<mxfile host="Electron" modified="2024-03-02T21:49:23.165Z" agent="Mozilla/5.0 (X11; Linux x86_64) AppleWebKit/537.36 (KHTML, like Gecko) draw.io/23.1.5 Chrome/120.0.6099.109 Electron/28.1.0 Safari/537.36" etag="A4CoImv6gEgsS9a7mvxw" version="23.1.5" type="device">
  <diagram name="StrÃ¡nka-1" id="Sk1Bz4ga3P-O3lUswv_4">
    <mxGraphModel dx="1816" dy="664" grid="1" gridSize="10" guides="1" tooltips="1" connect="1" arrows="1" fold="1" page="1" pageScale="1" pageWidth="827" pageHeight="1169" math="0" shadow="0">
      <root>
        <mxCell id="0" />
        <mxCell id="1" parent="0" />
        <mxCell id="IL1taavYY2HPRo79wi6H-10" value="" style="shape=image;aspect=fixed;image=data:image/png,iVBORw0KGgoAAAANSUhEUgAAA0EAAAFDCAYAAAD8qgX7AAAACXBIWXMAAA7EAAAOxAGVKw4bAAAgAElEQVR4Xuzdd3gUxf/A8ffuXkkulQQCCIggRWmCoFTpRQFpUhRBhC+IWBAULAgKgihVigiKShGlCEqTngQIhNBLKFKUKhAS0tvl7nZ/f+SSXI7k7oDIT2Vez3OPsnV2ZvZuPjOzG+nhKlU1BEEQBEEQBEEQ7hOy8wJBEARBEARBEIT/MhEECYIgCIIgCIJwXxFBkCAIgiAIgiAI95WCg6BHMkj6PoWM8s4r7mOKjcyxSSR+nUTiwkTix2eiSs4bAZJG1ltJJL6TVfD6+5Wn+VeEtOapJBTVeYog/ZbXE0nqa3Ve/M/iov7+K9Iv3BmdhbRvkkiv6rziHpO8aDR6BRNbB6C/zfuraEn4d/mKQ0v6Ua7gX0lBEAThX67gr/dYHYZwA/oE5xV/Mx8r5ldTSJqTRNLMZJJGZZBV7h/y3gabgtfYAAIHBxCwWEehv88aKAcNGA8qSAUlvWIGSRMzsRWc80WnmJmU+amYizmv+DtpqE9mkDopiYSfEkj4PomkDzKxeuF5/t0rt5s/9yr996p+FMZd/S0qBeV/oIWMkckkLkkgfmESyYPN2IwO6+8B9fFMUickkbAkgfglSaRXc1jXPoX4nxPyPsvzr8+noOvzQJGd/5+q0PotEdTgDb7btI1ZXSrRbtwGoiKWM7SOwXnDIiGFdGf+zrk8V+Jvu5P/kZRqQ1mz7BUeVpzX/MtJfjzaeQRzVmxl/+GjHNuzkcWjnuZBvfOGgiAIeXTOCwC4qcf7B+eFfzPFRuaIdKwHTPjP1yHZQK2VQeqwDKSPTehTnXf4p5JQdnnj7bzYTiuhosp//y+Q7aksbMeNGBKd1/x9tHrpJA9RMXzvS8ABGcmoYnsAFLPzlv///j/yxxP3qn4UznX9LSq35L+kYn4zDXOqN75DDSh6K5mvp5HSRyHgu78x6HSg1UsjeaCG8XtfTIcVZCv5uonUYhrKej/8l9jTowFq3npHt1yfB4ry/P9UhdZv5VH6ftCDtNk9eK36NNpHvMzE34PwT89y3rIIKDzYoQuP7F3EO3GFRfqFLf93M5QpR0n5rPPi/wRvn3R2zXiF0QevYHmgHR/PG8vo0wcZvCr2P1qagiDcrfxBUOVMkt80o/prqF4y3u/7430hb7VWK5O0F8xYymigSihHjJjme6FLAxQrGZ+mYS6loVoN+HwP5t4WVBPov/TH55Dkcn/tiUzM8V74/WElbWI6NqMG573wPmgms6GKPiWDxNagC7Bi8dbhFQFZLS1o57zxn2pE1gCTDXPfdDKftKHKEsphL0zfGbPTB2hlskh/NYOs8hpSrA7jLglzHQX/j72QNTfX546kkfVqCul1VTRfDQ77EDjJkNd4q5RJ8juZ2AI1NAWSlmQAEspaPwKWOTQK5LK88PVSBl1+j/afRJKZt8Zzio2spir6xfr8vfnBFjL6Z2CupqJZZXR7vDAtNaBkapjfSyJrfwB+Yfmbm9YXk0mTTQQs1Uj7MhN5pQ5bUyuqv4qaocN7rgnjJQlkG+bnLMi/+GOKsLfcMhR0t9EILDx9gDGL1G8zUT70x/tS9uZay1QSW+gI+MhefhXMpA/MJKuchhSvwxhdyE9fYfnjpv64dTv7SyqWQamklTbg+7kXunJu6ocH95fL/NNZXJefu/rrzDn95tu4fwrK/zJZmCsreA83oosH0OO9zIB5hBnLTzoMluz0SxsVbE9aUf00uGbANNcbfU4dc5X/7q5ftmF+zopukT/e+xyu2pb3v1qghnReRnJYVqCCrs9kJX1CGraNfvhtlUHSsLycQlopI/6TjcjaXZ7ffn2F5s/DGSSN1DANN6HPsO9TLpPkcVaMw3wxpgNIaBUySf2fGcsDGtJFA95zTBiv2rd3Vb8AfK1kDkon8zEVTQbpmh7vmT7Z+7v9/pPRKaCqOVGdRlb8deLs/ypSShW6dCpB6OQIknPvfwmfR7vz4ZhXaF3JD8uNQ/y8x8txL3SlmjLkg6E890QZTJY4Tmyez8QZazmbnm+zwikhNB44kje7NeLR0iYssadY89lbfLotFlXfiPGbXyPzx9NUbF2TEgH+SBfXM2nMV+yKU8G7PbMjBnDqhV58ddYGSAQ9N4/QrpF0emkRl1WQAh7nfx+/T59GD+EvW0i6tJs5Iz9g5XkbSo1XWTyzL9WK++GttGPNwSFo2Dj/fT+6zjqBDZD8qtPrnZEMaP0IQUoaFyIW8Mn4HzmWooG79LnjZn9djWGsnhXMlGfHsMP+faFUGszPi2uwqONQ1sQX8l2eQ0vh0E9fcSjn3+e3sTV6NEPLlkAm1vE2EgRByJV/UsJZL/yHBhA4yITBkm8NAFKsguEHPwL7B1LsTR/0QZmkPWP/erHp8H4/gMC3vNGbsshoI2F6P4DAgf6Yjmb/qBe+v4a1jg1dlIy5fxbyQj8CvtWj+YHujIJaPvtLVnsIDOP8MF2zkPmoDr9hPugrZWEpBkgqWUNSyQjS4zMskGKD/TAqmaT2sWT3Aik2MoemY/vdh4D+gQROMKI1sOR77qHw9HlAkzDM9SdwYCD+ywoYYDvnhf+QQAK/0iOd9yagTzGCegfmD4AAtFQuHoliz8kb5C8CDVu7NJI/TSFlaCZZZTQoYSb11Sw0p5aq9ogZs2zAeMJhhWIj8500LLHe+L8SSLFhPuhLZpDSz4ImSShXZdTStux8fCmNtGesgIZaWkW+bE+jzor5cRnTOD/8h/nj+7uN9N6W7PP72LCUldEfvmWei2dcps954wLorWQMy8B6xkTAgEACJxhQa1sL7AEsMH/c1R93bmd/ScPaPY20Cnp8p2YHEG7rh7v7y5P8c1V+7uqvo4LSj+f3T0H5rz1owxavQ3EMmi/o0Olt2Era/62zkvWgDp8x/gS85Y/PVQtpA+3PLnmS/66u38+K5QEFxS+DlKlJJH6VRPLwTCyBOTtraCYNW89kEhYlkjg7hbRO1luem4KCr490Hd5fGdB6ppFZDrQ6GaQ/oWCaZ0S2UTTnd5U/fxoxxlgwP5FXG21PZqEeNWJIti+QVbIaaxgnBlDsf354J1pIf9H+/eJB/VKbZ5ARYMDvlUCK9QskYIYX+hv2Y7ut3ydZMm0Dpd//lVldylO1cTOqBf09c5mMdbvRUdnEqv0OXUyGx3ht6rtUOzqWjo0b0mLQr4Q8VY/cyXhKFQbM+IwWf02nZ7OGNOg4gtCyw5j7bhP8C6gDt1Io33sKM3voWfdeNxrUbUjr/01mVXR83mCevhZtqkTxfp+edOrQg0/Ot2LSmPYU9+j4MmW6DGdI0G/0b16fx+s3p+s7X7HjSvb9Zzs+jxdbNabJhzvIOPUlnevWoWbtenSyB0DIIXQcP4fXSoYx8tkmPNFiAD/q+jFzRGN8c05xV+nD5f7WkytZcaUZPVsF2TteFCq2bk3JXWsIdxcA3UIhsMYL9Hr8KmE7/hQBkCAIhbq9Fus1PYaT9p7IFB3GfQpq6YJ6gST067zQpQKqlNdzWdj+koatuIScoGIroaA7J6H5aGiZEpJVIrc79YoOXZqMHCch/65DzpKQ0jRUXyDIgrm2jNdiL3QpQJaM8TcDUl0LVh1QxkJWaR3GNbrsRkeCHu/NTtNsCkvfvaQlEjlnJB+uPJf/y1uxkVVNwfSxHz5bJax9Ukl+04IS4TSagYalpQV5pwGd4wHKZmF+QIfXSn32NJt0Ba9VBqQGWVgMoFyWUUuraIEWzA2tWNpasOpVbCEyylV7LmkS+jBDdv4hoZxRoLgNVQZMKhoysnOvv6fcpM+tshYsxXR4/WLfP86A13algJGMQvLHXf1xx9P9bWBrlUZqIwXTZO9bR0k8UsD95Un+uSo/T7lKv0f3T8H5r5k0yJDy12WLBDYNLadDXpPRRxiQVUCT0O3QI9WwYDXiWf67uv5iKqreiqW0HtOHAQQO9cM7MYu0IWZ7oCFhmBVAwKuBFHs5AP+5etSOqaS19ez6AKRz3visgcyhqaQMsqL72oQh57nLoji/q/zRZIxbdVhb2YMi2UbWkxr6Hfm/A/UbvbJHjswKhj0KhKjZ+eNB/ZKuy0ilrGTVsqEB0jX7lD6PqMSET+L5dr2YEpVGcL1BfLVuJeNalbjNHyl3fGnSrRUJa1dz0iFtysNP0SxkP4u/ieSGRSPrWhgLVp8hZxOlUhs6PHSA7+dGcsMCasppls5bj7VdZxrkHzAqmFya5u2qc3bJVJYeiSHDkknihSOcjHG8CRLZvW4HsTZAS+HQmlBu1m9JPY/mpmokX7pEyoONaN/wIfwkC4kXLxBbQGdmQeQSrejRJIYlU37kaIIVLfMi6xZvwdK8DbVzYtG7Sh+u91f/Yt3ygzzWvSNlZUCpSJvWxQhbu5ucGN09A83HhbJ37z52f9eVhG9GMe/IHc2lEAThPuFJ8y6XVtlMRrcsLCFa9lx0PxVOOG8F2GSU6wU0P13tr4CUJSGZVdQgDVsVG8h61AdU5Cv23sJMKfsHWwUpPfv4kkZ2KBegouptZIxLcphCpqHJejQ94K+iZcrIDt+JUqL9eHYu0/f/zabD+wt7cZ0yYjpVyBPjARayaioYf3IaYfLT0NLzXz/xMrLOimayN1hKqNhq2rCdMGIsY8HyoIItWEZ/zb69JiGl5uWYpEFuBqZLSKioPsCdvFDDTfooYMpJvhEiHy27fHOm+gByfAHNp8Lyx139cdeY83T/SpmkNreixXndecBY0P3lLv9ScF1+nnKRfo/un0LyX0qXwFvLX6Z6DRQJKeeaNPL+HyBNRlKsaN64z38Lrq9fAix6vJbr7c+wyeg3GJAnWbHqjRiyALNkb5BLyCe9MIVmkVzPgrbFmBe8FXJ9OZRtXug7pZJ1zYTvMYeLvdvzg+v8yQRpvxH98+mYHzLibbNg8dZjchytUiXkeIf8sUpkzzPGff0yg3TAB3+zmYxuqSS9pGBY64V3qM6pk8Y1LeMaF67HEflzf76u8DUberdgdtgKCn105zZJwa3o3vAPfv3iYr5OJtk/AN/0G8Sk5pxIJTYmLncUUQ4MIiDlOjEO3y/ajevE6qsT7CdBhgY+7Zj620c8ZQ8KrRd+YGDfeZyyAVIgxQNVrl+9UfhjXFo6qel5a7XUJFJ0ARTzlbLvXyeS5HizaCSHj6N3Rk9eGTyXTe9eZuP3s/hyVTSJhZ4wj1Q8hGBDZQYtCqdf7kIdXnIk/gYgC9fpS/eggNzsnxC6nK1D36Nb1R/50taa1qatTNznkOFuZbFn+gt0+dqbwAcfp8fwufwQ/CYvzDnO3/FkmSAI/36eB0EGC+nvZMJiP/z3yEgaqB1TSKrgvKGd8xevq/01CTlJw+Kvw2uFTNqIVKwHvPC5Ziatrg7vGTJUBzT7B4f/5kiSkbN0eI3wxVjQcyipEpKXDdULsL9kQTNpeYdxlb5/EbWxGevvRnzinVYky0gma/b15zReg1VUm4yUDlyTkQOtZNWyojvqjT4li4xGNrRUBSWdvMaic77nSNehu56BpZaK95UCgg933KUvh8PvvhboUMlSJSSjDc1AbsCh+t2a2ELzx139ccfD/VUfBd93vVFfTyXtRR3+C2+vkZjL+f7yNP/u5FwOCk2/h/dPYfkvXVZQgqzY/EGXE0Q/ZMWapWC4bv+3rKEGauRWgkAVzSYjZQCym/zPHQ3KtzRPnIKMNXtUOaehryM7nwvbRwOsjg3Rwq8PAEnD0isDyyUj+mKZpDfT47vdfq8Uxfld5Q+AWYfXdkhtaUGflIW2xwed80hBYefysH7J0UZ8oo1oFc2kvZtKWnoAvpH586hAkj9Vn6yM9c8/MEgyxuLVaFG/HElXrpJWWJpum0yZZ7pS89AKPriR/wZSExNI9qpCkBfZATMyAYH+uV83anwsCf7VKGWSyHmQSC5ZmhBrPPEp9gSm72BCr27kDlxa07iZE2lpScQnydQuEYzMtVtuXwDkQEKK532BScEhFLclEp+qgaahoaDkfrXKBBXPmTqWI4urUUsYG7WUmdV78snseYxNeYbhm5LzF6uUv/MPQIu7wU3zIX7oOohlBUWcelynzxPu9s/cz7I1VmZ3e5KwhBbotozj8G1GL+akG1xLgmtXLzFzWRu2v9iE8vOOc9ZpVFYQBAG4jZkGeg3NW0KOzZ6yopXOIqP5bXyzuNxfQhctY21oRQ73wX+kH77LDRh+8MN/vDf6AnrBbhGvxxBtI/PFLGz+2Ys0fxvWqmr2D8BlA4ZYK+bOVlQF8LOS2dbhmRGX6Ss6UpKMVNKKpaT9zM5TvaQgnho6lQnPVaTgvmQXZBvmZir6cOcpcsAVPcZLVjK7W1B1gMlGZrcstH0G9FlAmoKSZcNSQUZ3SkY5oWCrY0G7LmdPr3HHpmBcp0PtnkZ6EytqgIZa0oalmi1/735h3KXPKiMnqljq2I8XbCHzqexpNzn7G25ayexoRZPJnh7V3OmZIFf5467+uOPh/vJxPfpEBeNcb5T6aaQ/kT9z3daPwrjLvyJSaPo9uX9c5f8VA8ZzVjL7ZmHz19CKW8nolYW0y4g+d/RBw9LGjM0bMKhktc9CPa7PfibJw/wvVKoO41GVzH5mbD6At42sLlmo0Xr0VkBWsTS2YAvW0IwatpqZpLdU0Uc5BLGurg9Q66WTVl/BNMeEzxwjau/s54OAojm/q/yxU8KNyLUzyXhSwhBxG98wHtQvtbIFW2B2YqRYBTmD7E4JB4XWb8lIuVbD+Ornjcx9sRrPvPMRrWLn8vrU3dzOWEDO9+enPSrf+v2pVKJzl7Ls+GU7iU7lY/tzJ9tjnuTFl2oTqIC+ZBP6da2WGzvb/tzM2jN16D+kESX1IPtV5fnBHTGErmdP7khlJokxMVy3f2JupuYNIKtXiQg/S7W+w+j6aBB6WY9vycpUL+/nEJCYaNyzB1V9JCSvcnTo+zT+UeEczACs1/gr7gEaNH0YbwkMJZvSp2Nlh15MmQdqNeSR4l7I2Ej+60+up+nw8sqfC1k340gtW5f6ZY2AjMEr++UnamwYq/ZUpN/bnezPYskYgyryZJ0HyZtz4CJ9OVzlv9v9bZz9ZSWXnxrE262sbFj3u+fP8+geokHrx6lUKhCT0YvAh5rwcrfapJw+xTWPDyIIwv3G85GgdD1eKyykvZdEpiIhnzHgvUuHJedHvLSZ1HczsQapqEawTE4kM06P9yQfjDHu95cjvDC0SCeto4Rpiw45C7SSVqw+Cvo/PWhFazLGOb7QO4PUaenZPZZJCvrN3viclsGm4DXThPpKGkkLNKRkBUO0glTWvr+b9KFYyfg4HXMpFc1PQ1MsJH1nRrqpx2eMCb3FSsbodMxl7OtlK4nfZiDf1GP6yIQ+pyFywgvT9jQyPk0iQwZpv4mArwwODSkfyj9Wn/o+K1C4zYc6q2SR5WXAJ7qA/FIVvGb4oA3IIPmbNDRVQtnvhV/OG6xUGeWGjUx/b/QJIGXpUUKysEUruTNi3JEjfPCTMkjvmkbSGypkyig7TPidUtznX6ab9Nl0eC00kjYghcSuIF3V47XFiNzAfnKrDq8Z3qiD00jsoCHd0OO13YBczyGBrvLHXf1xm343+zuLN+Az30rS4HTMF3wx5jxAXlj9KOXm/nJXvu4oHtbfHM7pj3Vz/4D7/J/tgzoog5Sv0lCtMrrdJnx/cnhmRVUwnNRI/ywJa5CGfMqI7zyDvX7eZv4702QM3/ig9s8gZU4GmiyhHDbi+6393pQ01MczSetvQ/UF6YaCYbUvpp0Ox3Z1fSWySB9oRT/XP/s5oAQvfNZZSHkjA91H3ujMRXB+l/ljF2/AeC6DtCBvfP5yWO6OB/VLq2Qm9e207CmxVgllrwkf51Ggwuq3Gsu2iX3ZNlFH3fcW82xEP8ZGOg9TeSDn+9NvFXrO5vv+NDzWhWe9N/NBVAFzay3RzB0xheCxU9n6kjfpV6NY/OsGbrS0r7edZ/GI9zGNGs7yHVPxURM5vW0Or03d6fCGOVdsnFs4gpGm93jzq02MLSaTHnee0BlDGX0xJTtQt11g24EQ3l0eTq0QHXGHljNyzIbsqYDWYyz4/GemjlpM5EALCRd3s2D5Wq61zTm+hH/NF5j0xRTK+BmQLDc5tfVzxm1KyNcJYNn3LeNXj2fETzsZrrOSvG0sXUZvJVmNYe2Hb2AYNpwpq0dRxqSRcfMCB5Z9TvThS9k7u0pfDhf578n+aswGlh97gymlvmHM+dv49ZNMPPz0O3zyySOU9ddhjr/I0bBZvD59Z87ED0EQhFtID1epeutXeAGvI74n/KyYu2dirqWiKUCCgnGZCa9TBTQqioDWNJXEZnoCJthfsS0Iwj+TzkLaV+lI0wIwnXZeKXicP5KGeWQyWQf88AvzIDi852QeaNKNKhd/Zfvl22gE/9vpGzF+2xhShz3LpMPuHkD8f3C36fN0fymILrNX0T68F4NX3fBsFFcQBOEO5Y0EGTQ0WULK1FAbWLBaFAw3Hba8F1J0GBf4Ogy/FyFJxVpTQz6tIJsBfyuZbawoR71FACQIwn1Bq5ZJ5kN6TLP/iQEQgMrVXSu56rz4PvH3dPcVnbtNn+v9JfyfGMSAqhFMe18EQIIg/P3ygqBSZlJHZ2L1BhJ0GOeaMNzp26v+iSRQG6aTNkRFM2hoqowuyoTP2ltnLguCIPynlDaT8nEGVpuCcb5P3h9MFYR/AOWhPnz9/WBqWM+x8pORRIg5bIIg3ANS+dcWaAC6bZ87rxMEQRAEQRAEQfjP+afOiRAEQRAEQRAEQfhbiCBIEARBEARBEIT7igiCBEEQBEEQBEG4r4ggSBAEQRAEQRCE+8q9D4KkINpP3sbOGc9SwvX7Mv9Z9I0Yv30Nw6sX8jY5pQqDFm5lZ3gYu6IOcXxJP8oVae4aaP5pBFtG1r6Nv3BbgH9r/v/t+VtUJHxrvsSMVeEcPHSQI3vW8kEDL+eN/rlE/RAEQRAE4T6Qrz0tF2/Iqx+N5MXGD+Nvvc6xjV8zbtIvnLmN16kq1Ybyy0eZvP3iN/xR0N+609I4u3Mtq/WnSfkv/SEA2xnmv9yG+UgEPTeP0K7OG/xD/H/lv1yS3t9t5uP6+nyLzeGjaPL6GpLzLS3AvyV/pRJ0fOtNKh14gzY995Kg+OCtZTpv9c8l6ocgCIIgCPeBvCBILkuvz6fxXPIMXm2/kcuGmvSbOIU571yl84Qo0h12csVQphwl5bPOix2YObt+FtOdF/8raGj3smH4t/j/zH8L+z5tz4BlMag5izSVgmLlfy05iJDiNk4vO0y8DbCleXzv/DOI+iEIgiAIwn9f7oQRpUIHejx2im8nrSQ6JoXEy5HMnbke+ZluNPEhezpY2BI+/N8Yvlu6grUbNrFu7hs0KZ59CKXGq/wYupvIqe0IrPYGaw4eJvrIAdYOrY4CIAXy9IR1hEfs4cixaI7N6Yx/zsntdKWa8ubMlWyP3MO+HetYMKoTlU32lfpGjA/7jmE9R/DVDz/xy/qthK6YSI/KeVONpIDHGTh9Bduj9nFo327CV06mewWn6WtyWV6YH0HYR424k0lKIc1GsvC3HezfG8Fvc16jYbDnc25cXh+AEkLjwVNYtnk3R48d5kDoT4xpXaLgOYtyMM3HriViwQCqezuvLIC7/Nc9wdsrNrMr6iAnIj7huac/YOnm7UTu3sz4ptknMFboyEeLN7N37262/zyJl/pOYNsPtzftSNNs2GwOHzUnqpQIavgqs5dvZu/+AxzeG8aqqS9Rx8/zOVnuyl/yq87zYxeyZVcUB/aEsnJyH2rdxvFdkUt1ZuqazezcsZhBlXx5Zvpeoo8c5mjYaBrZBzdclr8H+e+uftzV9Yn6cXf5JwiCIAjCv0ruSJCxyqOUjznO8bjcPliyTh/njHEAj5RV2PInoK9FmyqL6NFnPLGqH0+MXMyMMRfoPGw9ccfn8WKrefh0nM2uftF0f95pOpyWyKbRz7IJhQoDf+SXOg7rAJQqDJjxGS0OjaTniEjivKrSe9Jc5r4bT7dxu7Knw+ifoGfT3+jZfypXrCbqvbeCecPbEfr6GuI1mTJdhjMk6De6N1/MebOOwAfLoL/q1I+spXLxSBR7Ym5gyb/GPaUibRpsZGDvlhwzl6XLxO+YNuYizw7/jZvuRojcXZ+mUL73FGb2SOCLEd3ofyIJY5lHeCAjPq9XHAANJB9qD5nFJ9XCeWfgAk54Ml3RXf5b9zO9Zzu+COrOt6Hv83avRQzt2ZKDqXqMkhl0j/LKtFFU3/467fofJq14C8Z8P4NSCdljBlJwF2b/MpIn8s9mwhazktd7fMHh/BdRAI2ka8fYMPU3Rh2+TLrfYwyeNY+P+kbR/aszHowGuCl/OYSO4+fwmvF73nx2IMcyytBl4rfMHHGBZz/exd3+gXL1+hpGdF4DyiO8tWoB5WY3Y0RoVt4G7srfXf7jpn7c7fWJ+nF3+ScIgiAIwr9KbhBk8vVBTk8hzXGtOY00mwkfH3tvqJbI7nU7iLUBpHBoTSg3F7Wknvd6Nt3lnB+lUhs6PHSA+YMiuWEBLKdZOm89fb7uTINJu9hiBbQUdq3awBUrQDrHj5xBblCWEBnibRrJly6R8mAj2jfcyeId50m8eCHfOQDQEomcM5JI5+We0JIIW7iIo0k24CJrF2xg8Lctqef9G5vdXL/b6zOXpnm76pxd0oWlR7KnA2VcOEKi03EsFokK3Scx/elzjB0wk33J7qKvO5HOjgXzOZikAmbMgFK1JW3KHuK7hUdItAExO1m85jSdmmbvoSVsZkzPPRgdjgKg2dKJt2Ifc9RR9+3V7Hkjp8Vr5cRXfRi45DIqYLsQycYL9lUJ0azddo6+jz6AgieNXNflL5doRY8mMSzp+SNHE7LLb93iLQyZ2Yba+l3suu2I+Pa4Lf98geyt+Y/sun7c2+u7NX2ifgiCIAiC8G+SGwSlp6ahmXxxnJ2F0QcfJZ2LafaGtpZOanpel62Wmi3BLWkAACAASURBVESKLoBivhKk311jXA4MIiDlOjEOjUHtxnVi9dUJ9pMgAdCSiU+y5q5XNQ1kmewQTSM5fBy9M3ryyuC5bHr3Mhu/n8WXq6JJdNvL7CE1kdjYvNaQFh/LTaU6QT7ur9/t9WUFUjxQ5frVG04jP/npa73G5C7V8L7+IzEpTlv6tGPqbx/xlCH7n9YLPzCw7zxOuW8h5me7yvnL+Vt9cmAxAjLiiMvIuU6VuNibuWmVirVj/Ap3Pf1WoucPYvjqWHKOYkmJsx9DIqBWT94c3IknyppA1dAFlEW/39PpSK7LXyoeQrChMoMWhdMvZxdJh5ccib8Bbn9Y8Pa4Lf/cfKXA/EdyXT88uj5RP/6x9UMQBEEQhHsrNwgyn/2dCyXrUiNY4viN7CaIvmp1qmSeYdXlnCkjgYQUNwDZgYgUHEJxWyLxqU4BgCTZAxPPqfGxJPhXo5RJAvvohlyyNCHWeOIdX1PlMtbI4mrUEsZGLWVm9Z58MnseY1OeYfimZNe7eUouRkgJPdj7naWgEgRbE269/gK4vT4tifgkmdolgpG5VmBDFxRK+J/lo+4TqTBxIZOGH6T35/tyDgfpO5jQq1vus06aNY2bt9vABUBFddpPTUwgybs6IT4SJGqAhH+Af+7zKJ719ENWSiwxMQ4PvufwasTIGf3RTxnI85uukKHJlOu3iJXVnDd0xUX5x93gpvkQP3QdxLI49+VV1NyWf/6tb8l/d/XDo+sT9eMfWz8EQRAEQbi3ch9Ztv25npXR1RkwojOPBHnjW7o+g9/sgG3DSnbnTvUy0bhnD6r6SEhe5ejQ92n8o8I56NC7nXUzjtSydalf1gjIGLwMHgVEtj83s/ZMHfoPaURJPch+VXl+cEcMoevZ49EbhmUeqNWQR4p7IWMj+a8/uZ6mw8vL6cUIUhBPDZ3KhOcqZr+w4XZI/rR46UVq+MlgLEuHl57BPyqMAx6kz+31qVeJCD9Ltb7D6PpoEHpZj2/JylQv7+eQfzZi927lQNwFlo+ZzB9tJjC6VXDeei2TxJgYrts/MTdT7eHq3bP9sZ3Qq4/zYv96BCmgC2lE3y7V8qJoNYMEh3PnpiEuxbNOdH0xivmkEfNXIpmags9Drflfl2q3UUauy1+NDWPVnor0e7sT1YL0gIwxqCJP1nnQqWEuU7pBT/r3rE+p23ig3x235e+Om/rh0fWJ+lEE9UMQBEEQhP+CvFdkq1dY/t4Igj4eyffbPsHfco0jG6by+vT95MY4tgtsOxDCu8vDqRWiI+7QckaO2YBjx6ll37eMXz2eET/tZLjOSvK2sXQZvZVkpRavzZ/AcxWCCSrmj7c8lrBdQ4m/vpVP+37OjozzLB7xPqZRw1m+Yyo+aiKnt83htak780Y6XJLwr/kCk76YQhk/A5LlJqe2fs64TQn5R4FkH8o/Vp/6PitQ+NODZwkcWPbww4YSjFweTrXiMrEHljHyo03ZL0XQPcbrCz6l+4PFCAz0x1upz9pd/bgZs40JL05ke7q767NxbuEIRpre482vNjG2mEx63HlCZwxl9MWUW0ay1JiNjP2kASvGfUK334ey6oqbK9G5zv9dIb2Y8eVAHg8pTjFvHfVXbqfP9X189fpIfr6sgvUE34z4jOCxE9m8x0T65UiW7jmMpabzie5Qajhfz2nFp3PC6KNL5erRtXy9YS9tK9nXu81fN+WvxrD2wzcwDBvOlNWjKGPSyLh5gQPLPif68KW8dEi+PNn3PYbKE1j3c97iu2ZzXf5KeTf5765+eHp9hRH14+7yTxAEQRCEfxWp/GsLNADdts+d1+Wnb8T4bWNIHfYskw4XVf+x8O8l4d9lDtu776XzS4u4fMv8pX8pXV0+3DCLUrM6MnS9UwAt3Ib/aP0QBEEQBOE/4bYn/HgytU0Q/q3kB2pRQ9vMslARAAmCIAiCIPxX5U2HEwQB9dICXmjnvFQQBEEQBEH4L/F8OpwgCIIgCIIgCMJ/wG1PhxMEQRAEQRAEQfg3E0GQIAiCIAiCIAj3FREECYIgCIIgCIJwXxFBkCAIgiAIgiAI95V7HwRJQbSfvI2dM56lhHjfdtHRN2L89jUMr644r8mmVGHQwq3sDA9jV9Qhji/pR7kiLX0DzT+NYMvI2uKVg4IgCIIgCMI/2q3NYF1NRv52jENzOhF0B0GKUm0oa5a9wsOFtMXR0ji7cy2rd5wmRfwhlnvHdob5L7ehaYtWdJqyH4vz+n87uSS9Fxzh9Mnj/B59hEM71rDgo+d41MepEhdSvw1tp3H0xFF+fbUSCoDkR4cZe/k9+leGVlUcjn+C308cI3pvKL98OYzW5fT2IyhUGvwzh2d3wJR32Hzk4g15bdYv7D54lOi9m/lxbDeqeDtuYeTBVm8y++dQDhw5zJHdW1k99xXqmkAK6cXCAwvpU8p+y8qlePaLUMKnPkPJW+/iOyP7U6XtEKb/sptjK1zcw3fCg/JxlT+ifEAqVo9XZv7K7oNHOBr5G9+/25qyosdBEARBEO7ILT/PumptaK6d5a+abWha7PajIEOZcm5+9M2cXT+L6b+eIdN5lXCXNLT7OrC0sHdCK6o9Vp+W/Wdz4fFRTBn4aHaj2a7w+q2RFRNHUOPGPCADXvVoWjuFa7GqwzZmQt99kkdq1OHJ9m/ys9qJz99v71lngVyWXp9P4znrMl5t34Snuo9j38PvMOedBvZGuURQizEsmNCEG4uG0qFJI5p0foVx32/nXIbTsTBQ+aXP+eDhrXwwbhMxjkm8YwpVXpnL3L4lORkRTYrz6iLhonzc5s99Xj6SP63em8zzth/5X6sGNHl5JbqenzP5xfL56rcgCIIgCJ5xCld0VG/TAi1sBouia9KuaTHytR+UEBoPnsKyzbs5euwwB0J/YkzrEsiAUuNVfgzdTeTUdgRWe4M1Bw8TfeQAa4dWt/fcBvL0hHWER+zhyLFojs3pjL/DofWPv8uWnZ/R0idvmVL1ddbu+ZIu9laM5Fed58cuZMuuKA7sCWXl5D7U8vOkhQOGtlPYNv9zZv0azt7NX/DWG9NZHR5B+OzncqeFuTq+J/vrSjXlzZkr2R65h3071rFgVCcq53Q7657g7RWb2RV1kBMRn/Dc0x+wdPN2IndvZnxTb3Q1hrE+bDzNHK+/0mB+iZxNZ49acdlCmo1k4W872L83gt/mvEbDYJcRaT4u0w8uy/8WcjDNx64lYsEAqtt706WAxxk4fQXbo/ZxaN9uwldOpnsFpyacXJYX5kcQ9lEjvPKv8ZxqJvHP7azbE8cDD5ZxmJ7nqn5LcOkwx0o1oUkJGWPtp6h7+TDRBQ2ZaTYybp5k/baTKCVLEVRgBuSnVOhAj8dO8e2klUTHpJB4OZK5M9cjP9ONJj6A8hDdh7TlxjfvMnH9CWJSM0iNO8/h/WdIyhfYSvjVG8q0gXoWvTeDqCIbTrVxZn4/2vYdy+LD8QWXaVEpoHzc5s/9Xj5eT/J0k+v8NPNXfk9UebDN05SPi+OhZ9pQXkRBgiAIgnDb8jcPdNVp20Jj+9YowraeoFabpg69qArle09hZg89697rRoO6DWn9v8msio5HBWzH5/Fiq8Y0+XAHGae+pHPdOtSsXY9Os05gA9AS2TT6WVo81YSuOcscWI7+xoaEJnRo7GdfolC1XWuKR64lLEEDOYSO4+fwWskwRj7bhCdaDOBHXT9mjmiMb74jFUam+KMS617uybSLTRlQ7yCvdxxNVI32PFVC9uD4bvZXqjBgxme0+Gs6PZs1pEHHEYSWHcbcd5vgLwHW/Uzv2Y6n2n9GlG973u6VytSeLWnUtBMTIjOwnlzJiivN6NkqyN4wV6jYujUld60hPN7DhpRSkTYNEviid0uebNaHb83dmDbmGYI9iaHcpd9N+efRQPKh9pBZfFItnHfeWsCJDACZMl2GMyToN/o3r8/j9ZvT9Z2v2HHFqSZoqVw8EsWekzfufMqebCDw4dZ0fcrEoagTecdxWb9B4hSRBx7kqQbB1HjqSWJ27iNJX1DmSRiKPcKzbR/hr8i9XHauzAUwVnmU8jHHOR6Xl1tZp49zxliZR8oqSH6PUa/iRXbuvHLLveFILt6KMZ915K/p7/HtqbyxVCm4C1/u2M3eyPyfyF+HU8fTKVM2a/a5ZeXvHV0ooHzc5Q/c3+WjlK5Aees5Tl+1oa/8EmO63mDWu4s4U7YSD/2thSUIgiAI/035fn511VvTUtvOe6csJPy1lWNvt6V50BpW3dRALk3zdtU5u6QLS4/EoAIZF46Q6HiAu2H7nd82XmNx+yb4b91IsvwIT7cOYPu0XSRrIIe0okeTGJb0/JGjCTbgIusWb2HIzDbU1u9ilwctZuu5oxxPSeTha0lcunmI65kKN1P8KBYgIeP6+Pvc7K8EtqHDQweYPyiSGxbAcpql89bT5+vONJi0iy35psyks2PBfA4mqYAZMwB/sW75QV7p1ZGy6xdzWapIm9bFCJuxm2THXV3RkghbuIijSdnpX7tgA4O/bUk979/YnO68cX5KJTfpN3tW/haLRIXuk5j+9DnGDpjJvuScAE4j+dIlUh5sRPuGO1m84zyJFy847ppNSyRyzkginZd7RE/90WGcGg2a9SIbP32Vd1ZezQ3SXNZvAMnMgfAj/K/9izxTPpmd71+nbO/cgwNGWk3ex+nJgGYhdv93vLvwmL38XJEw+fogp6eQ5rjYnEaazYSPj4TkF4AfSSQmu5g7JRfnmVEfUCM4mSUX4vM1xrWEzYzpuQejwzIAzZZOvNVpoTuSlH8EuMgUVj7u8we4v8vH24S3OZ0MpQK9P3ye1G9eZvWftWml98YkgiBBEARBuG0OI0E6arRtRfmyPZkXvpNda0bSMPAJ2jWzj0xIgRQPVLl+9YZTz39RsfHHhg1cqPcMzQIldNXa0dornHV7s1vvUvEQgg2VGbQonN0RO9kdsZMdX3YlWO+Dv8HpUIXQ0tNI00BVVdJS0gANVZNRJM+O72p/OTCIgJTrxDgEO9qN68Tqgwh2nrJnu8r5y85Rm0ZC6HK2luxKt6oKysOtaW3aypp9tzxwUDg1kdjYvONq8bHcVAIJcn45QAHcpt/D8tfXeo3Jr9fGO+06MSmOW2okh4+j96gISrw0l02/zWd0j5oEejBVyXMW9k5oyaO1ezL3nB9+aoLDyzfc1G8ACdL27eBkvb48x262X7SRPxrIfuakarUa1GjwLB8ca8j0bwZTzW1PvkZ6ahqayTf/Q/lGH3yUdFLTNLTUFFLxJ8DfRYbIpTEdG8NL02PpMuZV6jg8tC8Va8f4Fb+w5tf8n1/nD6SG2/TdK4WVj/v8Ae7v8slIJ8Pbn0d6juJlbSETVl1B9fbBy5JGuquhKUEQBEEQCuTwuEQN2jaHZUM789UpGyAR9OxkfmjbjOBffyFOSyI+SaZ2iWBkrrlsCN9pT7J6ZRPrzvyP9s1CuFK5JfLW0RywzyjR4m5w03yIH7oOYlmch9PDnGn2D6Ch5fxv9r/dHN8ALvdX42NJ8K9GKZME9tEPuWRpQqzxxN/yXICKWlDDJXM/y9ZYmd3tScISWqDbMo7DWc4buSAXI6SEHux90FJQCYKtCcSnOp//Vm7T71H5K5TwP8tH3SdSYeJCJg0/SO/P9+UcDsjiatQSxkYtZWb1nnwyex5jU55h+KbkfHl517JOsmDmdtZ8/AYttn5IaKLmtn7njralRLJ6zUFsV7dyzlY875j5aFhSLrP75y1c6N2YmgESJ286b5Of+ezvXChZlxrBEsdvZF+tvmp1qmSeYdVlG5r5OMcuV6BJo9J888eVgvPXGs3PCyM5HHeVb9r+wNjBoTw/4ygZcPcjDfdSAeXjLn8ob9/3Pi0f27VznFcG884rvzPn5WVcsIF31WpUuPwH5wv6LhEEQRAEwaXcbk1djTa00u9m094Y4uLiiIuL5dzmUM7UbkvzYAnUq0SEn6Va32F0fTQIvazHt2Rlqpf3yxfwZN2MI7VsXeqXNQIyBi+D5wGRGsOWddHU6vQWL7W2sHF9dO7zHGpsGKv2VKTf252oFqQHZIxBFXmyzoO3NCzuxN0e3/bnZtaeqUP/IY0oqQfZryrPD+6IIXQ9ezx+DZ6Ns7+s5PJTg3i7lZUN6353+fzBLSR/Wrz0IjX8ZDCWpcNLz+AfFZYbSLriNv0elb+N2L1bORB3geVjJvNHmwmMbhVsXy/zQK2GPFLcCxkbyX/9yfU0HV5eTnN5pCCeGjqVCc9VvIvnUjSSI+Yy91xT3h74GN54UL9zd00kbMorDP/xjMu8V3zK0LB7OyrFnuZMXpQHOm/8/Pzwt3/8vLL7GWx/rmdldHUGjOjMI0He+Jauz+A3O2DbsJLd6YDtHD8viKTCkEm817EW5YKDKFHuURo+UQGT8w1k/ZMlExaQ0WsMg2vaXx+hZpAQE8N1p09MXMqdP1v1t7m1fNzmT+6u92n5ZOxn3bYkpMtRHIzX41fuKd54oyUx28K55CojBEEQBEEokD0IkqnZpjlee8I55jDyoMZEsON8bZ5uXhwJG+cWjmDkBm/6fLWJQ4f2EPrjRF6s6ZsvyLHs+5bxq3X0+2knB/ZGsGlMM/wkQFeL1xasJXT7Tn55szreTccStiuULSvfp1nutBGNm+HrOVi9E22TNrD+jMOvuxrD2g/f4PuMjkxZvYsjByLZvnQifWsHOc7pu3N3e3zbeRaPeJ/QB4azfMce9m6cwdM35vDaZztJ1kAp34vZ67aya+OHNPSuyfCV2wlfO40eTn+xVI3ZwPJjlXk8bSPrb7eL17KHHzaUYOTycPZHLOVVn9WMnLCJmxqge4zXf1hP+I5dhH7UCO/aw1m7K4xtv46iuQm36cfD8s+hxmxk7CdR1BnzCd3KKoCEf80XmLR8G/v27WPfb2N59ODnTNuUkH8USPah/GP1qV+l+F0EQYB6lV+/WEpW9xG8UNHLg/rtCfszJyePc3z3SsbVPcvUd+ZyxKEVa2g2jp17o9hv/+ye1iH7LYjqFZa/N4K1pn58v20vUas/ocGfU3l9+n6yZyCqXF83iv6TjvPwoNmsC99O6MrZvN26fIFBuOXMYj75wcaLHw+kxh2/Ri8/peZgFq1ew6+jmuJTqQ9zf13D6kmdyfnTN0UqX/koHuSPJ/7L5ZPKrmlvM+OvZszasofIlaOpFT2R9xb/6TIYFARBEAShYFL51xZoALptnzuvE/4/SEF0mb2K9uG9GLzqRtFOExMEQRAEQRAEwbNBDuFekfB/YhADqkbw42YRAAmCIAiCIAjC38GT9xIJ94DyUB++/n4wNaznWPnJSCJSnbcQBEEQBEEQBKEoiCDoH8J2YQkDWy5xXiwIgiAIgiAIQhET0+EEQRAEQRAEQbiviCBIEARBEARBEIT7igiCBEEQBEEQBEG4r4ggSBAEQRAEQRCE+4oIgoqchG/Nl5ixKpyDhw5yZM9aPmhQJH8tURAEQRAEQRCEIuAUBBl5sNWbzP45lANHDnNk91ZWz32FuiZALknvBUc4ffIEp09Ec/LQLrYs+Yx+dQKQACmkFwsPLKSPw5+X1zcaS8S2UTzp9h10EsV7fkv0yRPZx3f8RG/lw3puD3BvedXirRWrGdfEH8l5nVSCjm+9SaUD79PmibrUafYCMw9mOm/1j6VUG8qaZa/wsOK85l5QKP/it2ya8SwP/C3huYEyzV5l2o8biTp4mOiDmxj1RE7dkinTdzHHXdY9F/cHoJRuxrA5v7Jr7wGO7NnMTxN6Ut3XoYbI/lRpO4Tpv+zm2IqC8thV+gRBEARBEISi4tDCkghqMYYFEyqz/dOhdNj+J2lepahcQc+fGZDd2rewd0I7Xv7pBopfGer1m8isqW9yuv0E9uYd6A5oxP38CrVXSYCRp6ftYPC5l+g+9ww2QLPZnHf4f6Tw8Ivv0ePGArrsTr71D5rKQYQUt3F62WHibYAtjXTnbf7BDGXKUVI+67z4HrFxccUXbOo+m7dbRTBya+Kt+XvHJIq1+IhFY0qxbuIwPos4S1yWjE625q4PKhHIX4teovPUI1jsS/Pqnrv7I4D2739G+/iP6Nk0lBjvWrw6+2smDYim86xT2FCo8spc5jY+y9KIaOo3tB82l7v0CYIgCIIgCEUlr79deYjuQ9py45t3mbj+BDGpGaTGnefw/jMk3dIS1bCkXGHvmjD+CCjPgz63jIfcPk3FZrNhs6mogKbZ7P+2oQK6GsNYHzaeZj55uyiVBvNL5Gw6B0mgb8T4sCV8+L8xfLd0BWs3bGLd3DdoUjzvEiW/6jw/diFbdkVxYE8oKyf3oZbfbaZdV5Me3Uuzc8UW4hzyRS7VmalrNrNzx2IGVfLlmel7iT5ymKNho2mkB3RP8PaKzeyKOsiJiE947ukPWLp5O5G7NzO+qXf2oUs15c2ZK9keuYd9O9axYFQnKttHGQxtp7Bt/ufM+jWcvZu/4K03prM6PILw2c9RzsNREyngcQZOX8H2qH0c2reb8JWT6V4hezhCqfEqP4buJnJqOwKrvcGag4eJPnKAtUOro4AH6ZcIavgqs5dvZu/+AxzeG8aqqS9RJyd/PSgfACynWLX6L5r1aktIQdcll+WF+RGEfdSI25pkqDxEj1cbc2zSCGZtO02cWQXNijU3vlYILh7Ijb+ukWWvdzl1L2d/1/eHHpNJ5uLhg1wza9gST7LvVBIGby/7aKGNM/P70bbvWBYfjncegvUgfYIgCIIgCEJRyW2LSX6PUa/iRXbuvIL7dpeMMagSrfq05+FLhzh6a5RU5KwnV7LiSjN6tgqyNyoVKrZuTcldawiPt59fX4s2VaJ4v09POnXowSfnWzFpTHuKS4AcQsfxc3itZBgjn23CEy0G8KOuHzNHNMY37zRuKQ83okHgYXYezMi3XL2+hhGd29G02Ut8ey6FDcPrU7N2HR5rOYFIC2Ddz/Se7Xiq/WdE+bbn7V6pTO3ZkkZNOzEhMgOUKgyY8Rkt/ppOz2YNadBxBKFlhzH33Sb4SwAyxR+VWPdyT6ZdbMqAegd5veNoomq056kStzSpCyBTpstwhgT9Rv/m9Xm8fnO6vvMVO65kl7bt+DxebNWYJh/uIOPUl3SuW4eatevRadaJ7PrgLv1oJF07xoapA2ndsB71nh5OaMkhfNS3cnYQBa7LJ5fK1T2R/FWjUe40s3y0VC4eiWLPyRu5ozWekALqUv+hc1wq9hrf/bqRsG0bWDHtFRrmBmFG/Hy9qfnGcqL2RhG5aQmT+z9Bzmq394d2k43fLMWv71j6169E9Y4jGVptD9N+OEbuWI7Nmr2vrOTliZ379AmCIAiCIAhFxSEICsCPJBKTc/u+C6Cn/ugwTp04xqEt3/JWhYOMfed7ThfYKixi6l+sW36Qx7p3pKwMKBVp07oYYWt3k5yzjZbI7nU7iLUBWgqH1oRys35L6nmDXKIVPZrEsGTKjxxNsKJlXmTd4i1Ymrehtj7vNO7oy1ekzLVz/HlXj/mks2PBfA4mqWAzY7aCUqkNHR46wPdzI7lhATXlNEvnrcfarjM571WwnjvK8ZRErl5L4tKhQ1zPvMnNFD+KBXgymqWRfOkSKQ82on3Dh/CTLCRevEDs7UQSuW5NP4DtQiQb918mxQq2hGjWbjtHqQcfyGvwuygfR7ZLf3BBKkeFB5xDBUBLJHLOSD5cea7gYKQQckgpQow1aPjgXsb1bk/LZ15mVtzTTJvQlezH2FJY/15bWrVsTv0Gzek6Ooxi/WYxpVdZZDy5PzRSTqxj2emH+d/HU/lyTDMSN/3C3usFpFKSbnmWzH36BEEQBEEQhKKS+0yQlppCKv4E+Mtkt1ILkvNMUEzeNKEcmoYGSI6tO0lCsi+/exoJocvZOvQ9ulX9kS9trWlt2srEfQ4jMlo6qel5KdNSk0jRBVDMV0IqHkKwoTKDFoXTL2cDSYeXHIm/ATwbVpAw+vigpKeRdjcXZbvK+cv5TygHBhGQcp0Yx8u5cZ1YfXWC7VPKNPt5VVUlLSUN8EPVZBTnFnWBNJLDx9E7oyevDJ7Lpncvs/H7WXy5KprEWwrTjQLSDxIBtXry5uBOPFHWBKqGLqAs+v0OiXNRPqQ7ZKgtnfQsL0zeHl2YZyQJyRzFwi9DuZgBcIPIJWu59HNDHjOs4nomaBkJ3ATARsyBRUxf1YmlLRoQuGwlCe7uD7ksPabPp9cfo+j07F6Sizdg8OfTWRD8Di/MPIrbmNmD9AmCIAiCIAhFI7ePWUs+zrHLFWjSqPStzyt4QEtLJsUWRPGgvIarV7FieKckFvBM0R3K3M+yNVY6dHuSaq1boNuynsNZDuvlQEKKG3L/KQWHUNyWSHyqhhZ3g5vmQ0zr2ozGTzXN/jRpRN1GI9iQ5nAMlzSy0jNQTSZMd9U+V1Gd2tFqfCwJ/qUp5XBguWRpQqzxxKfYM1CzfwCNOwkus7gatYSx/TvQcUQYJYfMY2zbgt5wd+tIRX63ph+vRoyc0R+/9e/xfJeudO7anVcXnc4/WuOifPLR+eJrSCf1riLN/NTrV7hKMUoE5NVuSa/n/9i7z7AorraB4/9tVAFBsKIo9oIldsQKdmOLLZZoNGpMMWpsj8bERJ8klhiNMaY9dqMm9hYbYAUsFLHFij2iSC8K7M77AZQFKQtCXo3377r4wM7s7Jx7Zs6Ze86ZGa0+hZQckkDFoGBISUl7OEcex4eqeDM6NrzOxpUneKiHlPAAfvrxEPadO1HLhAe8FWT9hBBCCCFEwWSccemv8MdyPyqNmcOUbnUpX8IBp/I1ad64kmkn/I9C8DtTiu7De1LTwQKrUk0YPrAJD/39Cct6wlxgei5v3sitliOZ4JnK7h1/ZRkSZUWLfn2pbq1CZVGerkM6YRvgS2ASGB74sMnflaETulPLQUfafU2uNGlQAfNMy8hd8s0w7pWujGt+vmQC/bW9bL/UgLfHuFNKB2qbj5oZDwAAIABJREFU6gwY3Q0z7534F0ovgJqydZtTw9ECNXpi71zjXoIWC4vMQ86SH0YQ79yQps7mgBozC7M8EqJ0OnvsrRMIvxPNI0WDdUUvRvSsleXel5y3jzFNhSpU1F/n2t1sdhyVAy3Hzmf2G67P3FeTGyX6MNv8KvH2lD7UsNGgKeZK5xE9KH38MCEpgMaFFl2aU620HZYWdrg0G8q4NxwJ2BdAnEKex4eScIubMZVp1c4VKzVgXpbWXZpideMqd01IYvJcPyGEEEIIUWiMrlEbuLdjGm+rxjJ55GJ2fGmPOuk+F7fOZtSpsLwf82y4x6bPZ+D6+ThW+nyGdcoDzh1YxISlp00baWYiQ/huNoR+wLzSPzMja3alv86BUyWZvMGXuiW1RARtYNKM3WlPcVPC2T79A8zGjWfe1mmUs1JIenidU+u/5kzwzczLyYX+agAB8b1o+ZoFe4+anp1oXPqz8Pt3eK2kI/aWWppuPMjgeyf44f1J/HHLAPowVk2citW08Ww4NB9rQzQXDyzhvfmHiVUgo/+koFTYur3JnG/nUc7GDFXKQy7s/5rP90Rl6lFKOfErs7bOYuJvhxmvTSX2wEx6frKfhAp5rH+8Lz8t8eS/S3wYrI3n7unt/LT7OB2qGC08t+3zlBpn9+aUCd30THIEgNoal3pNaWr9OxqumX5fkPKQ3TM/osR/JrP0wBQcVDFcPbKGcbP2kPZcDTWlW49l5rTKlLbVkHDnDN6/vs/c7U+GfuZxfDw+wcKJ/2P65KX4jLdBkxLH9YCNfPTJFu6lJ0Eat9Esm9UFR5tSWNs3Y+mWriReWMa7/9nGPUNe6yeEEEIIIQqLyuW95QqA9sDXWae9mFQO9Fy8iS6+/Rm96X7GCbzOnVkHZhA/7nXmBBflu1U0VHt3HctqrqLnuJ1ZTuBFjkzdPmZ1mPD7QpwW9WKab1wBhvwJIYQQQgiRu+xub3iBqbBtPJLh1Y+wdq9RAmTEpKFbz0XPpVVfsrnMCN5vZvMP/N6/S+7x0lKp/wQ6XFvAokOSAAkhhBBCiKJhwi3bLwZNxcH8tGw0dVKvsPGLSRyJzzrHPygxhAX9emX9VDy3VMJWD6fT6qyfCyGEEEIIUXhevuFwQgghhBBCCPEcXrLhcEIIIYQQQgjxfCQJEkIIIYQQQrxSJAkSQgghhBBCvFIkCRJCCCGEEEK8UiQJEkIIIYQQQrxSsiRB5lTw/JDFf3hzKiSYkGP72bp0FA2tAHUpBi4P4eL5c1w8d4bzQUfZt+YrhjawQwWoSvZnxakVDC6dsUid+0yOHJhGExMfxK2yqk6fmcvZeyyQs8EBHP1zHfP7VkZjNI+m1li2rR9FZeMPhRBCCCGEEMJERumJCoe2M1g+uyoH/zuWrgevkWBRmqqVdFxLIv0tlykcn92RYb/dR2NTjkZDv+S7+R9ysctsjmcsqIA01BzxNdPrnmTikAn4h6twKF+NMsl30RvNZVauPKXUl40+EUIIIYQQQgjTZSRBmor0GdOB+z/35cudN9ISj/gwgiPSp6uezgkopMTd5vg2H64Oa0EFa1WhJEGlnUsTdWofh65FkQok/hXA7SdT67zLqkVDqOVog6WmI9sCx6CgJ2zZUHp9dw49oLKpTf+PJzHcqwYOmgSuH1nOF7PWEhqngM6dWXvf49Hai7h6ueFkZ4vqxk7mzPiBoxGGjNVQO/PmT+sYeWsKXb7w41HGFCGEEEIIIcS/wNOxayqbejRyvcHhw7cz9bxkT425QxU8B3eh8s0gTscoWWcogBRC9h9E3WU8U3vVw8ks81T92R8Z5NkCj+mHSLrwPT0aNsCtfiO6pydAqEvSbdYS3ivlw6TXPWjcdjhrtUNZNLEFxZ4sRFeX9tUCmDq4H9279uWLME/mzOiCo3GCp8RzIyQA//P3STH6WAghhBBCCPHvYJQE2WFDDNGxRr0iz9DR9BMfLpwLJWjfr3xUKZCZHy/jYt5ZkwkUIg98yoCP/0TbfS67969n3kgPymVJhnKidvKkr0c4a+at5XRUKsqjG+xYtY+UNu2pr0ufSYnm2I5DPNADShxB27x52LQdjSyNFqRE47dkEtM3XjEhGRRCCCGEEEK8bJ4Oh1Pi44jHFjtbNWlZQnae3BMUzjOpkqKgACrjXhWVClX656ZJ4d7xNcw8vo5FNbvw/mdfs9r5P/SYeYS4PBaicixJCbOqjFzpy9CnH2qxUPthawYkA0oi8YkZa67ExxCntcO+mAoS8/gBIYQQQgghxL9CRhIUe5bQW5XwcC/Dz1dvP5vk5EFJiCVO74Cjgwr+TvvMwt4ey7gL5H+0nJ6oCzuYv6w1vcY2oqL6CGeM8zKVKvMtSoAScZ+Hj4NY3Wsk6yOy+UEdoC5OSUczIBUAVYmSOOqjiYzPZn4hhBBCCCHEv1LG86z1V/hjuR+VxsxhSre6lC/hgFP5mjRvXAmrrBlHdh6F4HemFN2H96SmgwVWpZowfGATHvr7E5ZTx5IxtRP1WjejRtniWGrUmDnUpk/310i9eok7RhlZ8sMI4p0b0tTZHFBjZmGGCjA88GGTvytDJ3SnloOOtPuWXGnSoALmT79tRYt+falurUJlUZ6uQzphG+BLYNLTGUDlQMux85n9hmumR3MLIYQQQggh/h2MHpFt4N6OabytGsvkkYvZ8aU96qT7XNw6m1GnwkjMmDF7hnts+nwGrp+PY6XPZ1inPODcgUVMWHraxAcMmOHc9j0+mFmFMvZWqB7d55LfBsZ/tYdIo46alBO/MmvrLCb+dpjx2lRiD8yk5yf7iTWEs336B5iNG8+8rdMoZ6WQ9PA6p9Z/zZngm2lf1l/nwKmSTN7gS92SWiKCNjBpxm4ydRyprXGp15Sm1r+j4ZrcFySEEEIIIcS/jMrlveUKgPbA11mn/bvo3Jl1YAbx415nTnDacDghhBBCCCHEqydjONwrwpSRfUIIIYQQQoh/r1cuCRJCCCGEEEK82ozuCfqXS/FjRuvOWT8VQgghhBBCvGKkJ0gIIYQQQgjxSpEkSAghhBBCCPFKkSRICCGEEEII8UqRJEgIIYQQQgjxSpEkSAghhBBCCPFKkSRICCGEEEII8UqRJEgIIYQQQgjxSpEkSAghhBBCCPFKkSRICCGEEEII8UqRJEgIIYQQQgjxSpEkSAghhBBCCPFKkSRICCGEEEII8UqRJEgIIYQQQgjxSpEkSAghhBBCCPFKkSRICCGEEEII8UqRJEgIIYQQQgjxSpEkSAghhBBCCPFKkSRICCGEEEII8UqRJEgIIYQQQgjxSpEkSAghhBBCCPFKkSRICCGEEEII8UqRJEgIIYQQQgjxSpEkSAghhBBCCPFKyZIEmVPB80MW/+HNqZBgQo7tZ+vSUTS0yjxXUVLZ92Tp9im8ptVQ/f31/NrPCVXWmf6fqOwbMWrRFo4FhnDabxfLJnvhrM06V9FQlezPipAznFz8Oo7pAdE2mMy+fdNoks06qEr24ZfDS3nDKUv0tG5M2hVK0JLuOLwogRVCCCGEEOIfZJQEqXBoO4Plsz24v3IsXT3c8egxis+XHeRKUsZcRc28XiNcz5/kgsGR1+orBAVHomSd6f+DyhbPKXMZoF/LCM9meAzbiLbf18wd5IIm67xFxBB3nfBqA+lTOa9f1FCha09qHN/M/ojM0dPWak8b5TJ33NrTyl6yICGEEEII8erJSII0FekzpgP3f57MlzvPER6fRHxEGMEnLxGjgLbOOHb6zKK1dcaXNVVGs9lvMT2edCloStJi9DzW7z3G6dBgTnn/xgwvp6zdTdnS1h3Dmp072f3fLpRqMZktu9bxcaNK9Fu0hRWjav9jiUaOLJrQyeMevy3awl/RBiq074RLRAQVO7fHxXjl1M68+csRfD51x8Lo48Kg1l1l51Y9vQc1JdfOOU01enZ3wnvzEWIz5UBaardvi+KzkJVn3OjYyv6F6WUTQgghhBDin/I0P1HZ1KOR6w0OH76N3niOdKnnN/L77db083RIP3HW4OrlRamj2/CNVAANLgPnsaivjh1TetOsYXO8Rsxl05lIDJkXla3U0KUMfn0Qi4NvsPb9rnSduI3bJ76hT9fuDPv5XLbr9E/SlKmES+oVLt7Vo6v6FjN63ee7ySu55FyFisZJkBLPjZAA/M/fJ8Xo40KhNuP+7rWccx9M55I5p5bmDXvTTbOHTScfZZ6grU2HtgoH9wfgs/8cddu3kiFxQgghhBDilWOUBNlhQwzRsTmkLIY77NgQSL0+3XBWAxpX2nvZ47P9GLEA6jK06Viby2vmsy4knKSUR0RfD+F8eD7SF01ValW8yV9hCsWqVkF75RLRL8RYOMDSCsvHiSRpKjFw+gDif57D1mtxJOosscqUBEXjt2QS0zdeKfzETaVFE+fLqgPODOpbFV22AwWL4dHbk6jtWzmfmnmKtrYX7ZSD7LuQQtTh/YS6daCNZEFCCCGEEOIV8/SWeiU+jnhssbNVw4PsTt8Vorw3sH/sFHpXX8v3ei+8rPbz5Yn0G4ZUxXEsbuDe3fsm9fxkorKhw8xVTGhWgtIl1Xiu386EEuWwe1SZnR5n+WnUVLaE53uphSspkSTLUtToN41hygre3nQbg0MLLFISSMwuXEXmMafX/078r4NpERLzTKxVJTzp0/wqW769kSUJ01Kngycuzg786NsTBQ3WdmZoWjuwefPDbNMpIYQQQggh/o2e9gQpsWcJvVUJD/cyOd/D8+gk67el0rV3E2p5tUW7byfByenTlBgiY9Q4OpXI+fs5UeLY91kvXv/cm/D9M+n6+gh+PXeJZaNfp1OPyf//CRCg//sKYZoOfDzKkrX/Xc91PVhUr0WlW1cJ+0eTIDDc3s7qkCYMaW9PSqbsRU25zr1wC9rCn/ezxExbhw5tYP3YHnTv1ZsevXrS79uz1OvQmhLSGSSEEEIIIV4hGfmK/gp/LPej0pg5TOlWl/IlHHAqX5PmjSth9fQkWc/lzRu51XIkEzxT2b3jr4zeBsNdjvheptaQcfSq6YBOraNYqarUdrEx8eZ7NY6VyhN9NYxkjStVy9zk8s1/OLvITdJJdhyIQXUrgMBIHTblW/LBB+0IP+BLptVUOdBy7Hxmv+FadA9zUGI5uPpPSnT0pLTxj2iq0KOnM4c2H3xmGKG2Tns8dcfYczyciIgIIiIecGWvN5fqd6CNZEFCCCGEEOIVYtRpY+Dejmm8PecslUcuZofvQbw3LmaClwvmGTNhCN/NhtCqvJbwJzszdYHoubJiIpN2WzL4hz0EBfnjvfZLBrkVMzEJ0lCxcmluXb2D4lSZSrFXufakl+mFEM/Rbyaw8E5rvtvnj9/GT6h75kumrLqWediZ2hqXek1pWs2x6JIgIOX8Btae12BtFFyzej153XIvGwMSMz4EQIdb+zZY+PsSahRTQ/gRDoXVp1MbRxO3kRBCCCGEEC8/lct7yxUA7YGvs07LnsqBnos30cW3P6M33Zd7SYQQQgghhBAvlXzevqPCtvFIhlc/wtq9kgAJIYQQQgghXj5Pnw6XF03Fwfy0bDR1Uq+w8YtJHInPOocQQgghhBBCvPhMToL019fwTrs1WT8WQgghhBBCiJdKPofDCSGEEEIIIcTLTZIgIYQQQgghxCtFkiAhhBBCCCHEK0WSICGEEEIIIcQrRZIg8XLQVGPkiv0c9vXhaEAQZ9cMpbzsvUKIV4HOnVkHtzG+dlG+gls8PxXF3N5i4SZfAoMCCfHfzn+aWWSdSQjxgshyGmlOBc8PWfyHN6dCggk5tp+tS0fR0CrzXEVJZd+Tpdun8JpWQ/X31/NrPydUWWf6/6K2pVqHMSzYfIzQ30dR+R9sj8w6fMPpc6fZ8m4VNAAqG7ouPM5fZ7YwtrrRimjdmLQrlKAl3XEwCpyqZH9WnFrB4NIZm1znPpMjB6bRxORnBOZOZd+IUYu2cCwwhNN+u1g22Qvngizboi4f/b6Vzz1sM7a9/hK/DGtPq7aedJ93khTj+f8l8o6fBpdBv7Jn4euULZIEMJfjX12KgctDuHj+HH+dC+XMcW82fz8Or/K6zIvIYf8rDHnH53nlUv4niqp8KgV96yTiv44h6rcoopbHEPd2Mgbj8jmmkDQlluiV0UQtjyF2zGNSLY2mF7mc46Mq2Z8VIee4eO4s54OO4b1hERO7VcO6IDEyq8n7fwRx7o/MdaymTGvGLdnC0eOnCPHfy2+z+1G7WEF+oOA0tcaybX0R1f3/j+0LaKg2dCm7vY8QFHqW80F+HN67mZmeNi9O+2uCoto+GrcJ7D1zjovns/wFL6Z7MaMZVU50++hDqpyaSvvGDWnQ+k0WBT4ymuFfyqh9uHjuDOeDjrJvzVcMbWCHCtPqB5VVdfrMXM7eY4GcDQ7g6J/rmN+3ctr5zotOZeDxZ1FE/hFF5O9RRK6JJmZWAo+qp79N0/4xcavjeFTC6Dt1E4n+IZFU4wJqUklcFEXUlGSUl+nAe4kZnUqpcGg7g+WzPbi/cixdPdzx6DGKz5cd5EpSxlxFzbxeI1zPn+SCwZHX6isEBUe+IC9l1VBt1FKWDinF+SNniMs6ucgpJIdH4NCiRdoJsEUjWtWP4+8HhkxzaWu1p41ymTtu7Wll/w8eRSpbPKfMZYB+LSM8m+ExbCPafl8zd5BLPisxDZUHTaHv/eUsPhb7gmz7f4BJ8dNz4/dv2eMyngmexQv55MSU4/8x3pObUKNOA5p0+ZA/DN35emqXTMlAke1/JsXneZhS/iIsH6BYqtD9VoziQ+0pPt0SVcNEElqlH98qheRhCSTHWmL7TnHsx1qjK5NEQg995oUUGRPik3qSWZ71cPPozdgVt2gwdRmLB+R3+2ipOmQqnZWrRBkf/Co7ukz9ii6RS+jXqjENO0/mmMsE5gyvkc/lPx+zcuUpVSQXIExpXxSUIqsQ9VxaOYYunh357FASf/00hLYdezPTO+6lqoOLavvozyykS/261HJ78lePltN8iDhzkpBEoxnVDpR01HPxZDCRelCSE0j8N16xy1YKx2e3o2btutRrPYDPAsrxwfwPaWqePjnX+kFDzRFfM73uZeYO8aKJRxcGjF/EhsC7/FM13PNTofufHQ797HEYZYvVWQNJ45JIyXKdMFeuKaQoGtRVkkm2yTpRFIWM6kJTkT5jOnD/58l8ufMc4fFJxEeEEXzyEjEKaOuMY6fPLFpbZ3xZU2U0m/0W0+PJWZCmJC1Gz2P93mOcDg3mlPdvzPByytrdlC1t3TGs2bmT3f/tQqkWk9myax0fN6pEv0VbWDGq9j/a0GVPz6VfhtJhyExWBUfmXCa1M2/+cgSfT90p3E5wFdwMJrS0Bx5Oaszrt6ThrWDOZKpgtdRu3xbFZyErz7jRsZV9/k+UC7r+Fk3o5HGP3xZt4a9oAxXad8IlIoKKndvjkp+Np3Wjb58yHP59HxH5bH21pVvx4aKNHPTz58ShHSyf1p2qVgC29FgSwC+9s8ZDg9v4bfw5sZ7pL8wqaHzyYmr8Ui6waesdWvfvQMkcd8ICyOP4z0TRk/TwPDsPnEdTqjQOT9fDhP2voPEzNT4FZVL5i7B8igrtHgvMQzWoUkB1V4fZFTCUevLjCooFqC9qUacAcVp0YSowN9o4Vnoej44j5n/pPUVjH5NqVF8/F5PiA6CgTwzn3J/f8NGcIGqPHEam0UB5xEfj0p/pve7x028Xs0zRYWWl5kZwIH8/VtBHn+fEhRjMLC2e3QYFlUv7panzLmu9j+E3vyPFa33AtsBgzoScYvvY9LZJ25gJv+/laEAg5458wRud/sO6vQfxO7aXWa2MuutyLL9p7UvJ1pNYsesQJ48fYdeS92heIsucOS7/5aeye413FvzOwYATBJ04hu/GufSplH4Kndf2QYVD83dZvGEvx0+eIvi4D5vmv0UDmyx7T47xM6DX6zP+qEDPAW6cWredWwZQl+7B/G17OXxoFSOrFKPzguOcCQnmtM8nuBufBOe0fFP3n+egsqnNgJkr2Hc0gFP+3mycO5i66eU36zCPA798zXdbfDm+91s++mABW32P4Lv4DcqrQWXThOnbD/Jrv/Jp8VTZ0Gzado782IcKz9S/Cilxtzm+zYerdi5UyNQdnFP9oKG0c2miTu3j0LUoEhMiuf1XACev/YNX4AtTohrdQR2aYgYM+RhJldo0BU5aYnFFT/JrWRteURSe1qAqm3o0cr3B4cO3s828U89v5Pfbrenn6ZDe6Ghw9fKi1NFt+EYqgAaXgfNY1FfHjim9adawOV4j5rLpTCSZ+yqylxq6lMGvD2Jx8A3Wvt+VrhO3cfvEN/Tp2p1hP5/Ldp3+cfrUtPVQa3JOypR4boQE4H/+fqEP2VJxAb9TFWjZrAR1WjYh/PAJYnTGl+Fr06GtwsH9AfjsP0fd9q3yP2SngOuvKVMJl9QrXLyrR1f1LWb0us93k1dyybkKFXMM1rM0ld1pVjyYw4H5rPw01Ri+8Cva3llAv9bNadZtIt7O41g62QNbVQLXwyIoW9EZtboMnSbN5+tBddBhiUtFJ25evWH6/lXA+OTF9PgZuOvvx5067oU6TDWv4z8zFWb2NXi9Qw3u+B3n1pMvmLL/FTB+psenYEwqfxGWLyulymMe11BjFpheRStqzDabo3RO4FEdPakeiSS56rDcnZ6+qwwkj4knyUGH9bji2I+2wVzziPjBKYVyJd+k+GSi8PDoIc7Y1aOBcZaaW3zU5XjjPwOJ/2UB+6PUmRMB5SF//rwOmyEzebtpFWp3m8TYWv58szqUVOP5Ciz39kt/9kcGebbAY/ohki58T4+GDXCr34ju36W3TaknWdCvIy27fEVAsS5M6B/P/H7tcG/Vndl+RnVZbuXPq33RuNK+WRTfDmxHk9aD+fVxb76Z0ZkSmc4xc1n+S01NuZ7jGeOwi7fbNOW1pm3o9fEPHLqdtjfmuX1QiPk7lN3z38GreSMadRqPd6kxfDqkauZYmxg/y0YD6Vd8L2t9o1EAw71tTOzRkVat3+LXK3HsHt8Ut/oNqNduNn7GC8pp+abuPwWlLkm3WUt4r5QPk173oHHb4azVDmXRxBakjeZT41hTxY5h/fjmRiuGNwrk/W6fEFCnCy2d1ChxJ1gw7Q+KfzCboVXMsG81kS/aXeS/MzZz85kKQY25QxU8B3eh8s0gTj9zFQ2erR9SCNl/EHWX8UztVQ8ns6zzv1wUWz3JXZLR39Oijc86NQeaVJIbge64DrPjGvRNUzBkbV9EoXt6AVxlY4cNMUTH5pCyGO6wY0Mgo/p3w3nnKm6pXGnvZY/PwmPEAqjL0KZjbS6v6cm6kHAMQNL1EKKzLCZXmqrUqniT0DCFYp5V0F45SHR2x8//N5Uq56uPSjR+Sybhl/XzwqB6zCnfEEZ0GURnl1gOT72H88CMydraXrRTDjLlQgpRd/YTOqEDbRy2selhehC1Dfh46xE+fLKJtZYUi9v49PtAwdff0grLx4kkaSoxcPoA4n8extZr9fHUWWKVbYuePZ2LK+X+vsK1fA6j1lRpT9eKp/hlpB/3U4CUi6z7cSeDf+pBsznHOHH1Jk5tymPlWIM+nRpRPfEutTbuopJzJNfC4k0/USxofPKSj/jpb17lusqLSmU1cOmZFqhA8jz+ATDHc+4JLs4FlBQenPwfk1eE8jh9ap77HxQ8fvmIT0GYUv4iLV+6lNExxLsrKKgxW2uNxaWMmkZ1zQzzmwkkjUoAOwXtBmt0EekTHVJ4XF+NxVQLtHEAasx3mfFoYgqpWh2658wUTIlPVkpCDDGpVlhbGdWWOcZHTamukxmhXsWIneEYWpKljlWIO7eD9Re/Y9Jn8xlSwpKziydx/F7h7P+F0n49lcih5b8QGGMAHj89PoBcym8kp/ZFicFnxUpOx+iBG2xfvpvRv7ajkeUu9j4ZkmXK8l9KCrE3bxJXwZ0uzQ+z6lAY0TeuZ50pV/rrfvx5Pf2fqDNsP3CFITXLouFSRmJvSvxUjnR8qyNRm4aS79t9TFl+bvtPAamdPOnrEc6afms5HZW2/+xYtY8xi9pTX3eUE0DqldOcjYum8t8x3HwYxL1HGh7G2WBvp4JwSDr7M1P/14gV836gnW1pjn06iL2ZhuPraPqJDxemK6QmRRAW9CczP17GRX3WYzlN5vpBIfLApwyI68+7785l97goDq75noUrj3InOes3X1QKKSNiiBwOPFaj+csM62/N0TzZuTSpJH0TTdLT8y9QEoyyvcoppCg6rMNA9cAMzaBkUmzNMI/JmEUUvqdJkBIfRzy22Nmq4UF2DYtClPcG9o+dQu/qa/le74WX1X6+PJF+lUJVHMfiBu7dvW9Sz08mKhs6zFzFhGYlKF1Sjef67UwoUQ67R5XZ6XGWn0ZNZUt4vpf676OChBOHOP/pLN54sIwBN/QMflq7aKnTwRMXZwd+9O2JggZrOzM0rR3YvPlh2iypZ/ll5EQ230+LpbbRBDaMf/L955SUSJJlKWr0m8YwZQVvb7qNwaEFFikJJGa3O2VLhbm1NZrEBBJMzkrSqIs7YBd3j3Dji6737/FAV5sSNhB//TqRZStSo1k1Kp5YzWZXL9yrnqNiqdv43TB5BYtOfuKnTyQx2QIry+yaloLJ+/iHtHuCWvDezkR0Ns40GzmHBT+nMnzAUs6n5r7/5XNzPis/8SmAvMtfxOVLp11rg91mUEqn8nhgPHF21tj+oQWVgcfj43l82xrbcVrUxVNJ+jCBWDtrbNdpUdkZMOj0JH0eQ8Z5mYKi1qHo4Hm7S/KOz7NUNvbYa2O4mO2V4MxUJbyYNMaOdR9s5LYenrkQrHam74Jf6H91Gt1fP06sYzNGf72A5SU+5s1Fp43KXEDP035lpb9L2K3c+hEKyBDNgwcZy1UiH/BQUxsHaxUk5h1jrDsyf9entEwPbur11bwz5EcumLY58/5+XtOfi0Js+C3PAAAgAElEQVSs7+cMTOrHqNFL2TP5Fn8u+47vN50h2qQNpsKubj8+HN2dxs5WYFDQ2jmjO5n/OlRT+Q2G1DvNmk/DTOwVzaec9p+84pvLdJVjSUqYVWXkSl+Gps+OSouF2g/b9PmV9HbXYDCQEJcA2GBQ1GiehiiFK38s5/Dw7+l2fS5T/GOy1HspHJ/dkWG/pV1EyMuz9UMK946vYebxdSyq2YX3P/ua1c7/ocfMI8SZsHv//1Oh+58tNntyGMyq12Ix2xrzqPT/ayYRa3QRO7VpMvpSCvE/JQMKSjGgoQFznxyWJwpFRhIUe5bQW5XwcC/Dz1dvZ78TPzrJ+m2pLO7dBJ+otmj3fU7wkyxdiSEyRk19pxKo+Tv77+dEiWPfZ73wdf+MnT2P0XPqGXr/8h32cwfy/cUiqWZeXnF+bN0WiP7ufq7oHTM+19ahQxtYP7YHP1zQAyocXp/L6g6tKbFlM2lpUAqxD8K5l55Q6qKS8redcqH/+wphmtF8POovlgxbz3U9WFavRaVbVwkzeRMqJCcmYbCywvjisSkMkQ+Isq1FaSsVxKbVmOpSZSiZGklknIL+xlVuOTahQ/MaXDg2iyPRvfigU13MYsIIewFq2HzFT1uMYmaJ3MpvppgLk47/pxRS4m5x7I99XB/YAjc7Fedjct//8nt/V1b5ik8B5Fn+PI6v5y3fE6p4Nap44IEZlnuTie6cin6TFo1NCsk11Zj/qEVtACK1WG7S8Xh0CvrftWhj1KiTtVhMLIZ5wbovcpVnfJ6hpmQbT9wigljydLxkznQNO+Dl0pjXd4byH6PPd4d0ZkmfPix+0IyODa+z8dMTPNQD4QH89OMh+nzeiVpLThP0nElevtqvnHpqnjJgyLvI+ae2p6STDtJPvVUOTpRIjSIy3sSdL/EQs/v3fnovipKakBZLU+X1/bymP7dk7gasYWbAOhbV7scXi39kZlxnxu/J8gCd7LaPhTuTFr6Nbt47DNhzmyRFTfmhK9lYK+uMebGk2aA3cDgwkz3GPcCFKof9J6/45jJdibjPw8dBrO41kvXZVFZmAEr6H6CgPHthR2VDkw8n4HFpE/tKvs30Hr58uOVOARPB3OoHPVEXdjB/WWt6jW1ERfURzmSd5SWlilKjTr8mTazRXpo+FM5ini0WYWkfKS0TiG2agsHXHPUzG0MUlowUU3+FP5b7UWnMHKZ0q0v5Eg44la9J88aVjE5I9VzevJFbLUcywTOV3Tv+yjgADHc54nuZWkPG0aumAzq1jmKlqlLbxdRHbKpxrFSe6KthJGtcqVrmJpefHWz64lM50HLsfGa/4Zr9uO7npUTjM28U49cadeED2jrt8dQdY8/xcCIiIoiIeMCVvd5cqt+BNpkGjeehoOufdJIdB2JQ3QogMFKHTfmWfPBBO8IP+GYzZjhnyTfDuFe6Mq5PnihjIv21vWy/1IC3x7hTSgdqm+oMGN0NM++d+D8CJfY61x/XonmtO5wIjOLciVAqtGqB462r5KsjqKDxyUs+4qepUIWK+utcu5ufFc+DScd/Bo11OZr36UiVBxe5FKuYvv8VNH75iE+B5FH+Ii+fRk9Kk1T0JRQUnYJSJoVH7VJR3dCkJT2JGtTxBpIb69MenaozkNwiFeVvdXpSpMPsjJ5Hg5LR26YtUrHVk1rd8OzJTEHkEZ8MKnQ25WjQYwrfTajO8R9WE2x8UTuH+CTvm0j92rWpXivtz+29bUSeXUSX+r347qIeJeEWN2Mq06qdK1ZqwLwsrbs0xerGVe7mmrGYyMT2K/lhBPHODWnqbA6oMbMwM7F9S5dD+U2isqXtW4OoY6MGc2e6vtUZ2wAfThl3g+W2fOUR0eHh3Ev/C38Yn78Owry+n9f056KmbN3m1HC0QI2e2DvXuJegxcIicylz3D46e+ytEwi/E80jRYN1RS9G9Kz1bIxyix+gcurEkI5xbF53nALdqZPH8nOVV3xzmW544MMmf1eGTuhOLQcdoMbcwZUmDSpgWlOrokTbqXzZ/jJfTZvFJ9M24TTuv7xVJT+PPoMc6we1E/VaN6NG2eJYatSYOdSmT/fXSL16iTuFcXy/6CqnkKLVoTurRh2d9qcJMENTPYUUu6wzi8Jk1M9m4N6Oabw95yyVRy5mh+9BvDcuZoKXS6aDxBC+mw2hVXkt4U92ZroEq+fKiolM2m3J4B/2EBTkj/faLxnkVszERkJDxcqluXX1DopTZSrFXuXaCzYWVOM2mpVbt7FlWiusqwxm6ZZtbJ3TA6NX74DaGpd6TWlazTH/lVyB6XBr3wYLf19CjWJmCD/CobD6dGrjaOI24DnWP56j30xg4Z3WfLfPH7+Nn1D3zJdMWXUtX1eK9FcDCIhvSMvXsjzbSFuP91fvxPfQUbw/dcey/ni2H/XhwJZptLEC9GGsmjgV77Lj2XDIn+N/LqTT/SW899XhtI4h/Q2u3HbG1RDIifsGHp0+yRVnV7Q3wp59+lluChyfvJgaPzXO7s0pE+pPfp8dkTtTjv/0e4LOn+XssY183vAy8z9eSkhKPva/AsfP1PgUVG7l/wfKpwK9exLx82KIWhtN9BdJpN6xpNhKXdqyU7RYLbRA3Tqe6BXRRP0YxyNLM4otTb9KqKgxX1IMi8fJxH8TTdTqaKK/TORRtcI6g8gtPum0jZnhHULIwfXM6Vucw5+8xcfb7mbuVSlofB6fYOHE/xHXfSk+/v6c9F7BaOvtfPTJFu4VShFNa79STvzKrK1ahv52mFPHj7BnRmtsVKBx6c/iHfs5+ud0mlu6MX7jQXy3f0PfrG90zqX8ebYvKf6s3u3EpA2+nDyyjnettzJp9h4ydUjksvzcaaj21g/sOrCHz1tbUmP0Knz2buKzdqZexCxqKmzd3mTOhgOcOHGCE7tmUjPwa77ZE5Upyc9p+xDvy09LbtJ2iQ+B/vvZMLUWgbuP88wpRq7x01C17yAanl3PH5cLWOvksHyT95+CMoSzffoHLEvqxrytRwk55cfBdV8ypL6D8UlgjjRlu/PFjAYcm/lf9jww8OjcL0xboeKdr96lnqkPr8u1fjDDue17fLt2N/6BQZzc/S09kjcwfvYeIvPTPr+kUpuloITq0BpfMHqow+xOKskNC6WCEzlQuby3XAHQHvg667TsqRzouXgTXXz7M3rT/cK5yijEUxqqvbuOZTVX0XPczkIbZvSvYVaHCb8vxGlRL6b5vlzv8BBCCCGEeFGYchHAiArbxiMZXv0Ia/dKAiSKgp5Lq75kc5kRvN/sRbkK+aLQUqn/BDpcW8CiQ5IACSGEEEIUlMk9QZqKg/lp2WjqpF5h46xJLDgSkfvNo0IIIYQQQgjxAnr6dLi86K+v4Z12a7J+LIQQQgghhBAvlXwOhxNCCCGEEEKIl5skQUIIIYQQQohXiiRBQgghhBBCiFeKJEFCCCGEEEKIV4okQeLloKnGyBX7Oezrw9GAIM6uGUphvUdOiH8TXUk3WvYeTP/hwxkwtC8Ny5n8/JsXgIpibm+xcJMvgUGBhPhv5z/NjF+cnNf0fymdO7MObmN87Wdf4SleALJ9hHgpZTmNNKeC54cs/sObUyHBhBzbz9alo2holXmuoqSy78nS7VN4Tauh+vvr+bWf0wvyrhgdZd1H8NXKXQQEhRDq/yerPumG69PXpRctsw7fcPrcaba8WyXtTdMqG7ouPM5fZ7YwtrpRxat1Y9KuUIKWdMfBKHCqkv1ZcWoFg5++fhx07jM5cmAaTQrpHEll34hRi7ZwLDCE0367WDbZC+eCLNuiLh/9vpXPPWwztr3+Er8Ma0+rtp50n3cS4xcr/1vkHT8NLoN+Zc/C1ylbJAlgLse/uhQDl4dw8fw5/joXypnj3mz+fhxe5XWZF5HD/lcY8o7P88ql/E8UWfnMsK/WjNa9BtJvxDu8OXQA7d1dsTHazqpiFajfsQ9vDBvOgKFv0qF1TRzMMqansaJio0bY3fNh24plrF+zldN/p2adqYByjo+qZH9WhJzj4rmznA86hveGRUzsVg3r/MZI5US3jz6kyqmptG/ckAat32RR4CPTpxcxTa2xbFs/ispFca6rtqVahzEs2HyM0N+L6DdypKHa0KXs9j5CUOhZzgf5cXjvZmZ6vlzvaiu67aOm3JBVnD1/jotP/s7sZ3qjQq2AhBD/MOMmFoe2M1g+24P7K8fS1cMdjx6j+HzZQa4kZcxV1MzrNcL1/EkuGBx5rb5CUHDki/FSSJUNVRpXInLLp/T3dMdj0EJuNvuUz/s6Z80ki4hCcngEDi1apJ0AWzSiVf04/n6Q+W1N2lrtaaNc5o5be1rZ/4PNl8oWzylzGaBfywjPZngM24i239fMHeSSlrSZTEPlQVPoe385i4/Fvhjb/p9gUvz03Pj9W/a4jGeCZ/FCPjkx5fh/jPfkJtSo04AmXT7kD0N3vp7aJVMyUGT7n0nxeR6mlL8IywdodSn8fXI321YsY+O2UyRWaEWjak8yMHNcmrfFJSmQPauXsWGDN3/bNcW9rmPm/UBtiZWVQvTdcB4ZAH0KqYXyQjcT4pN6klme9XDz6M3YFbdoMHUZiwfkc/uoHSjpqOfiyWAi9aAkJ5BofMUjr+lFzKxceUoVSYWvodqopSwdUorzR84Ql3UyAApKkVWIei6tHEMXz458diiJv34aQtuOvZnp/XK9lLnoto8KB6fi3Fn5FvXc6lLLrS616nfiq1PGFxiKcvsIIYpCRnWhqUifMR24//Nkvtx5jvD4JOIjwgg+eYkYBbR1xrHTZxatrTO+rKkyms1+i+nx5CxIU5IWo+exfu8xTocGc8r7N2Z4OZmUJGjrjmHNzp3s/m8XSrWYzJZd6/i4USX6LdrCilG189eQFgUlksOLPmHe1kBuRCUSe82HncfjqOBaLvO6qZ1585cj+HzqTuEO0lDBzWBCS3vg4aTGvH5LGt4K5kymEwAttdu3RfFZyMozbnRsZZ//E+WCrr9FEzp53OO3RVv4K9pAhfadcImIoGLn9rjkZ+Np3ejbpwyHf99HRD4bFG3pVny4aCMH/fw5cWgHy6d1p6oVgC09lgTwS++s8dDgNn4bf06sZ/oLswoan7yYGr+UC2zaeofW/TtQ0pQDy1R5HP+ZKHqSHp5n54HzaEqVxuHpepiw/xU0fqbGp6BMKn8Rlo9kHpwL5NLtaB7rDaREX+fWA7C2sUr/DQ06nYq48L9J0IPyKILwiEdodFpUgKpYNVr0GUDvwd2pZW+Gi9cw3hwxgjcHelCmMPYTk+IDoKBPDOfcn9/w0Zwgao8cRqbRajnER126B/O37eXwoVWMrFKMzguOcyYkmNM+n+Cuy3t6ocil/dLUeZe13sfwm9+R4rU+YFtgMGdCTrF9bHrbpG3MhN/3cjQgkHNHvuCNTv9h3d6D+B3by6xWlhm/kUP5Qc+lX4bSYchMVgVH5thmlmw9iRW7DnHy+BF2LXmP5iWyzJnj8l9+KrvXeGfB7xwMOEHQiWP4bpxLn0ppB3+e2wcVDs3fZfGGvRw/eYrg4z5smv8WDWyyHME5xk9DCcfi3L/zN8l6Pfr0v6zXFwq8fUzdf56DyqY2A2auYN/RAE75e7Nx7mDqppffrMM8DvzyNd9t8eX43m/56IMFbPU9gu/iNyivBpVNE6ZvP8iv/cqnxVNlQ7Np2znyYx8qFEb9K8T/k6dHqMqmHo1cb3D48G30xnOkSz2/kd9vt6afp8PTRtnVy4tSR7fhG6kAGlwGzmNRXx07pvSmWcPmeI2Yy6Yzkc9UFNlJDV3K4NcHsTj4Bmvf70rXidu4feIb+nTtzrCfz2W7Tv+vNM641S7GjSs3M6+bEs+NkAD8z98v9CFbKi7gd6oCLZuVoE7LJoQfPkGMzvgyfG06tFU4uD8An/3nqNu+Vf6H7BRw/TVlKuGSeoWLd/Xoqr7FjF73+W7ySi45V6FiPipJTWV3mhUP5nBgPrsfNdUYvvAr2t5ZQL/WzWnWbSLezuNYOtkDW1UC18MiKFvRGbW6DJ0mzefrQXXQYYlLRSduXr1h+v5VwPjkxfT4Gbjr78edOu6FOkw1r+M/MxVm9jV4vUMN7vgd59aTL5iy/xUwfqbHp2BMKn8Rli8zNeZOtahSKo7bN6PTr8QnciP4HLo6LalZ1h6HKs2o53iH4DPhGAAl/hLHNq5n85rtnI96zI0DK1j3v/+x7rej/G1KBZwHk+KTicLDo4c4Y1ePBsZZag7xMdzbxsQeHWnV+i1+vRLH7vFNcavfgHrtZuOXkvf055d7+6U/+yODPFvgMf0QSRe+p0fDBrjVb0T379LbptSTLOjXkZZdviKgWBcm9I9nfr92uLfqzmw/o7osh/IDoE9NW5Zak/1FP40r7ZtF8e3AdjRpPZhfH/fmmxmdKWG8D+a2/JeamnI9xzPGYRdvt2nKa03b0OvjHzh0O21vzHP7oBDzdyi757+DV/NGNOo0Hu9SY/h0SNXMsc4xfubYFLPE7YMNBBwPwG/PGua+3RhH4xznebaPqftPQalL0m3WEt4r5cOk1z1o3HY4a7VDWTSxBcXSZsCxpoodw/rxzY1WDG8UyPvdPiGgThdaOqlR4k6wYNofFP9gNkOrmGHfaiJftLvIf2ds5qZpFYIQL6SnF8BVNnbYEEN0bA4tpuEOOzYEMqp/N5x3ruKWypX2Xvb4LDxGLIC6DG061ubymp6sC0lrmJOuhxCdZTG50lSlVsWbhIYpFPOsgvbKQaKzXoV+IVhQY+hnDLfZxoQd9zIneUo0fksm4Wf8WWFRPeaUbwgjugyis0ssh6few3lgxmRtbS/aKQeZciGFqDv7CZ3QgTYO29j0MD2I2gZ8vPUIHz5ZYa0lxeI2Pv0+UPD1t7TC8nEiSZpKDJw+gPifh7H1Wn08dZZYZduiZ0/n4kq5v69wLZ/D/DVV2tO14il+GenH/RQg5SLrftzJ4J960GzOMU5cvYlTm/JYOdagT6dGVE+8S62Nu6jkHMm1sHjTh3wUND55yUf89Devcl3lRaWyGrhUOC1Qnsc/AOZ4zj3BxbmAksKDk/9j8opQHqdPzXP/g4LHLx/xKQhTyl+k5QNAQ7lW/XF3tUBHHDdP+HA2PGO4TXLEZS5HdqBBS09qWGp5eMqH8AST99znYkp8slISYohJtcLayugs8LniU4QKo/16KpFDy38hMMYAPH56fACmlV+leraHEUCJwWfFSk7H6IEbbF++m9G/tqOR5S72Jj6Zx4Tlv5QUYm/eJK6CO12aH2bVoTCib1zPOlOu9Nf9+PN6+j9RZ9h+4ApDapZFw6WMxD7H+MWxc0oH/FSxRCbpKNlwILPnf8e8R30Zse522jlAoW2fXPafAlI7edLXI5w1/dZyOipt/Xas2seYRe2przvKCSD1ymnOxkVT+e8Ybj4M4t4jDQ/jbLC3U0E4JJ39man/a8SKeT/QzrY0xz4dxN4sw/GFeNk8TYKU+DjiscXOVg0PsjuxUojy3sD+sVPoXX0t3+u98LLaz5cn0q9SqIrjWNzAvbv3Ter5yURlQ4eZq5jQrASlS6rxXL+dCSXKYfeoMjs9zvLTqKlsCc/3UouIBVX6zWXpW8ksHbUA/7h/5iQEABUknDjE+U9n8caDZQy4oWfw09ZSS50Onrg4O/Cjb08UNFjbmaFp7cDmzQ/TZkk9yy8jJ7L5flostY0msGH8k+8/p6REkixLUaPfNIYpK3h7020MDi2wSEkgMbvdKVsqzK2t0SQmkN9zO3VxB+zi7hFufNH1/j0e6GpTwgbir18nsmxFajSrRsUTq9ns6oV71XNULHUbvxsmr2DRyU/89IkkJltgZZntqVKB5H38Q9o9QS14b2ciOhtnmo2cw4KfUxk+YCnnU3Pf//K5OZ+Vn/gUQN7lL+LyAaDn3vGt7ArSYW5XmiqNO9Peci/7Ah+gV9lQxbMLVaMPsuv3uyRblaNOWy88LQ+w9+R9E3tnCi7v+DxLZWOPvTaGi8+Mp3wBPU/7lZX+LmG3iqAfxhDNgwcZy1UiH/BQUxsHaxUkmhBj647M3/UpLdMfppF6fTXvDPmRC6Ztzry/n9f056IQ6/s5A5P6MWr0UvZMvsWfy77j+01niDZpg6mwq9uPD0d3p7GzFRgUtHbO6E6aXocqSVGktaR6wk+tZMGm7qxr24zi6zcSCc+/fZ7Iaf/JK765TFc5lqSEWVVGrvRlaPrsqLRYqP2wTZ9fSW93DQYDCXEJgA0GRY3maYhSuPLHcg4P/55u1+cyxT8mc72Xy+8XynQhikBGEhR7ltBblfBwL8PPV9OvbGT16CTrt6WyuHcTfKLaot33OcHJ6dOUGCJj1NR3KoGav7P/fk6UOPZ91gtf98/Y2fMYPaeeofcv32E/dyDfX3yBjgCVNbWHfssPgx7z46ixrLuUz+6KwhDnx9Ztgejv7ueK3jHjc20dOrSB9WN78MMFPaDC4fW5rO7QmhJbNqdX3inEPgjnXnpCqYtKyt92yoX+7yuEaUbz8ai/WDJsPdf1YFm9FpVuXSXM5E2okJyYhMHKCuOLx6YwRD4gyrYWpa1UEJtWNatLlaFkaiSRcQr6G1e55diEDs1rcOHYLI5E9+KDTnUxiwkj7J9MZHOQr/hpi1HMLJFb+c0Uc2HS8f+UQkrcLY79sY/rA1vgZqfifEzu+19+7+/KKl/xKYA8y5/H8fW85XtC/ziRxMeQGB/DaetK9K5THpugB0RblKNCmRiuHr7LIwVIuMPZoJtUaVUZh8D7FPUF2Tzj8ww1Jdt44hYRxJKn4yVfYPlpv3LqqXnKgKEoiqy2p6STDtJTXpWDEyVSo4iMN3HnSzzE7P69n96LoqQm8DA/65nX9/Oa/tySuRuwhpkB61hUux9fLP6RmXGdGb8nywN0sts+Fu5MWvg2unnvMGDPbZIUNeWHrmRjrawzmk4xKBhSUjIuQDzv9nkqh/0nr/jmMl2JuM/Dx0Gs7jWS9dlUVmYASvofoKA8e2FHZUOTDyfgcWkT+0q+zfQevny45U5G+XP5/UKZLkQRyBjRqr/CH8v9qDRmDlO61aV8CQecytekeeNKRiekei5v3sitliOZ4JnK7h1/ZRwAhrsc8b1MrSHj6FXTAZ1aR7FSVantYuojNtU4VipP9NUwkjWuVC1zk8sv0mBTVXEav/8jPw9MYMkHn7DtthorKyusLM2NrpQAKgdajp3P7Ddcsx/X/byUaHzmjWL8WqMufEBbpz2eumPsOR5OREQEEREPuLLXm0v1O9Am06DkPBR0/ZNOsuNADKpbAQRG6rAp35IPPmhH+AHffI0ZTr4Zxr3SlfP96HH9tb1sv9SAt8e4U0oHapvqDBjdDTPvnfg/AiX2Otcf16J5rTucCIzi3IlQKrRqgeOtq+SrI6ig8clLPuKnqVCFivrrXLubnxXPg0nHfwaNdTma9+lIlQcXuRSrmL7/FTR++YhPgeRR/iIvn9qO0hVLY1fMAq1Gi7ldeWrWKEXyw4i0XtHkWOIf21O2oj1aFaApRrkqZdHGROW717RA8ohPBhU6m3I06DGF7yZU5/gPqwk2vqhd0PgUNRPbr+SHEcQ7N6SpszmgxszCzMT2Ld3zlF9lS9u3BlHHRg3mznR9qzO2AT6cMr4Wl9vylUdEh4dzL/0v/GE8+Xp4el7fz2v6c1FTtm5zajhaoEZP7J1r3EvQYmGRuZQ5bh+dPfbWCYTfieaRosG6ohcjetZ6NkY5xU/jQosuzalW2g5LCztcmg1l3BuOBOwL4Ok1tOfdPnnJK765TDc88GGTvytDJ3SnloMOUGPu4EqTBhUwralVUaLtVL5sf5mvps3ik2mbcBr3X96qYvRUklx+v1CmC1EEjG7rM3BvxzTennOWyiMXs8P3IN4bFzPByyXTQWII382G0Kq8lvAnOzNdgtVzZcVEJu22ZPAPewgK8sd77ZcMcitmYiOhoWLl0ty6egfFqTKVYq9y7Ukv0wtA5diR9995DUfnDsza4kfwqZNpfwE/8abxMznV1rjUa0rTao75r+QKTIdb+zZY+PsSahQzQ/gRDoXVp1ObLI/RzU2B1z+eo99MYOGd1ny3zx+/jZ9Q98yXTFl1LV9DdfRXAwiIb0jL17I820hbj/dX78T30FG8P3XHsv54th/14cCWabSxAvRhrJo4Fe+y49lwyJ/jfy6k0/0lvPfV4bSOIf0Nrtx2xtUQyIn7Bh6dPskVZ1e0N8KeffpZbgocn7yYGj81zu7NKRPqT36fHZE7U47/9HuCzp/l7LGNfN7wMvM/XkpISj72vwLHz9T4FFRu5f8nyqfDrnJT2vQeSP/hw+j1ejOcok5yKOBm2g3U+ruEeIeQXLUTvYYOpd+g16mju8zhQxfzNdKm4HKLTzptY2Z4hxBycD1z+hbn8Cdv8fG2u5l7VQocn6JmWvuVcuJXZm3VMvS3w5w6foQ9M1pjowKNS38W79jP0T+n09zSjfEbD+K7/Rv6Zn2jcy7l17iNZuXWbWyZ1grrKoNZumUbW+f04Omr3VL8Wb3biUkbfDl5ZB3vWm9l0uw9GN+Sltvyc6eh2ls/sOvAHj5vbUmN0avw2buJz9qZehGzqKmwdXuTORsO/B979x0VxdU3cPw7W6hSFSsKdqNiiSWIWEE0xthi1FiiKbZEfaKxPRoTE40xtlhiNJrHFo0l9t4AFUFAKYIlGnvHQu/s7rx/gLrUnV3A6Jv5nLPHIzM7O/d329y5d3cIDQ0ldP8M3gibw4JDcblmLArLH5L9+XXZbTos8yPs9FG2TKlP2IEQ8l1iFBo/BRXbjWXZtqOEhvqx5Zu2PP3tc/67J/v7Y0Cx8kdy+TGVLoY900azOq0b83adIvJsEMc3zWZwE0f9i8BCKSt357vpTQmc8T2HHutIv7CKqWsFPv1hJI1L5sfrZLJ/hODy2RoRQHVsTt5tBRMc6bl0O139+zFi+6P8U6YyWSmdnlYAACAASURBVLEoqTNyE6vfWE/PL/aV2DKj/zfMGjJ+6yKcFvdiqv/r9QwPmUwmk8lksleFlJsAegRsWwzj47oBbDwsD4BkpUHLlfWz2VHpEz53f1XuQr4qVFTvNx6f6wtZfEIeAMlkMplMJpOZSvJMkNJ1EL+uHkFDzVW2zZzIwoAnRX95VCaTyWQymUwmk8leQc9/Hc4Q7c0NfNpxQ94/y2QymUwmk8lkMtlrxcjlcDKZTCaTyWQymUz2epMHQTKZTCaTyWQymexfRR4EyWQymUwmk8lksn8VeRAkk8lkMplMJpPJ/lXkQZDs9aCsw7C1Rznp78ep4HDObxhCST1HTiaTyV5pag9mHt/NuAbGPQJVJpPJZIXLcxlpTjWvMSz905ezkRFEBh5l1/LhNLPKvVdpEhx6snzPZN5UKan7+WZ+6+v0ajwrRrDhjR4TWLb1KGcizhF1+iDrp3ahmjrvjqXDzGcB5y6cY+fIWtlPmhZseGdRCH9F72RsXb2OUeXGxP1RhC/rjqNe4ITy/Vh7di2Dnj9+HNQeMwg4NpWWkn8jsGiCQ3OGL95JYFgk54L2s3qSN86mHNuiEf/ZuotvPW1f5L32CquGdqJtBy+6zztDlv7+/08Yjp8Sl4G/cWjRu1QulQFgEfVfUYEBayK5fPECf12IIjrElx0/f4F31TwVoJDyVxIMx6e4ikj/M6WYPhCplZnGrMQ4TiWm4Zp38z+u8PgI5fuxNvICly+c52J4IL5bFjOhWx2sSzBGgqhhSHICh+JjCYhPYGlaJpXz7lTKlPXHsnvzcGqWxlhEYUsdn1Es3BFI1NZS+oxCKakzZDkHfAMIjzrPxfAgTh7ewQyv1+tZbaWXPwqqDF7P+YsXuPzsFX2Uac1LpgF6KzWe1enavBdktEmJY0WGLt/fXzcvo32QyUyhV7cEHDtMZ80sTx6tG8s7nh549hjOt6uPczXtxV6lzbxxc2pcPMMlXTnebCISHhH7yjwU0tI6lVOLhuPj3hyPAcuIaTeDr7q/rEGaSGbMExxbt86+ALZoTtsmSTx4nPtpTar6nWgv/s09t060dXg5ZwaAYIvX5Ln0127kEy93PIduQ9V3DnMHumQP2iRTUnPgZN5/tIalgYmvTN6XOknx03Jr608cchnHeC/7Ei53Uup/Br6TWlKvYVNadh3Dn7ruzJnSNddgoNTKn6T4FIeU9Jdi+oBa6UnMz9BxWa0iuWQPXQIkxEdzhplejXHz7M3YtXdoOmU1S/uXVP6ItE1NprdgwRg7B962MUeVkcKMAi4cS5NZlapUKJUPVFJn+HKWD67AxYBokvJuBkBELLUGUcuVdaPo6tWZb06k8devg+nQuTczfF+vhzKXXv4IODrZc2/dhzR2a0R9t0bUb9KFH85q8u5okscKBQ46MU9ZFnEQ4akg/P94JmOptg8ymWle1DmlK31G+fBo5SRm77tATHIayU9uEHHmCgkiqBp+wT6/mbSzfvFmZa0R7AhaSo9nV0HK8rQeMY/NhwM5FxXBWd8/mO7tJKmTUjUaxYZ9+zjwfVcqtJ7Ezv2b+LJ5dfou3sna4Q3++YoiJhH+xy9sCrpBXEYWyTeOcTQaKjvnSZ/CmQ9WBeD3tQcW+n8vNgFuRxBV0RNPJwXmTdrQ7E4E0bmmRFQ06NQB0W8R66Ld6NzWwfgLZVPP36IlXTwf8sfinfwVr6Napy64PHmC69udcDEm81RuvN+nEie3HuGJkb2vqmJbxizexvGg04Se2Muaqd2pbQVgS49lwazqnTceStzG7ebghMbSH5hlanwMkRq/rEts33WPdv18KC+lYklloP7nImpJe3qRfccuoqxQEcfn5yGh/JkaP6nxMZWk9Jdi+oCrFra8Z2PNFpUCIW/MyZ4J6Z2ayPb4OPzi41mbkk4Dvf0cstL4MSmeo/FxHI+PZ11KOm4FHMckkuIDIKJNjeHCwQX858dwGgwbirt+IEyNj5iFd5aCbZbm/C0IOGdlUlUQcMnKolrefU1VRP+lbDiSjb6BBM3vjH390ewOiyA68ix7xub0TaoWjN96mFPBYVwI+I73uvyXTYePExR4mJltLV98RqHp13Jl1RB8Bs9gfURsoX1m+XYTWbv/BGdCAti/7DNalc2zZ6HHf/0Jdm/y6cKtHA8OJTw0EP9tc+lTPbvyG8wfBBxbjWTplsOEnDlLRIgf2+d/SFObPDW40PgpKVvOnkf3HpCp1aLNeekPTgSbBvSfsZYjp4I5e9qXbXMH0Uji8R8rBGxFHWp09E6O42BqFmbocBQVPFbka2VMUtT5mfnM49iqOSzZ6U/I4Z/4z+iF7PIPwH/pe1RVgGDTkml7jvNb36rPV6K4T91DwIo+VDOq/TXQPshkL9nzFlSwaUzzGrc4efIuWv09cmgubmPr3Xb09XLM6fiV1PD2psKp3fjHioASlwHzWPy+mr2Te+PerBXen8xle3SspLsYmqjlDHp3IEsjbrHx83d4Z8Ju7oYuoM873Rm68kKB5/TPUWLf8AP6vXkfvxPXc5+bmMytyGBOX3xU4ku2BC4RdLYabdzL0rBNS2JOhpKg1r8N3wCfDiLHjwbjd/QCjTq1NX7Jjonnr6xUHRfNVS7f16Ku/SHTez1iyaR1XHGuhasRjaSypgfu9hGcDDNy+lFZh48X/UCHewvp264V7t0m4Ov8BcsneWIrpHDzxhMquzqjUFSiy8T5zBnYEDWWuLg6cfvaLenly8T4GCI9fjrunw7iXkOPEl2maqj+5yZg5lCPd33qcS8ohDvP3iCl/JkYP+nxMY2k9Jdi+p7J/myxgJs+OnxSk/lEZ8Y3dg542dnwJ+nMTsvi2X2pRIWKo5a29LJ3wMuuDCd1aUzKKJmZEknxyUXk6akTRNs1pqn+KNXE+Ch0WpwFJVcVoNamMyFDwa/WFlzVakpoEFR0/6U9v4KBXq3xnHaCtEs/06NZU9yaNKf7kpy+SXOGhX0706brDwSX6cr4fsnM79sRj7bdmRWk15YVlX6tJvtYCmUB+Q8oa9DJPY6fBnSkZbtB/JbRmwXT36asfhks6vivNQVVeo5jlON+Pmr/Fm++1Z5eX/7CibvZpdFg/iCS8CCKA/M/xbtVc5p3GYdvhVF8Pbh27lgXGj9zbMpY4jZ6C8EhwQQd2sDcj1pQ7lnlUpSn28xlfFbBj4nvetKiw8dsVA1h8YTWlNE/TCHHT1coSNbpsBc1uOkUJGk1VBdFHHUCj0uiAhs8PwXl3hDYO7QvC2615ePmYXze7SuCG3aljZMCMSmUhVP/xH70LIbUMsOh7QS+63iZ76fv4La0BiGPQtoHmewl0xsE2WFDAvGJhQxZdPfYuyWMxn264awgu0H2dsBvTyCJAIpKtO/cgL83zGdTZAxpWenE34zkYowRNURZm/qut/nrhkiZ2rVQXb1CfEndySwRZrT/1peQkFAC/9eLuJVTWRGZnnsXMZ6gZROZtu2qxIsFIwgZnPWPpE6HgbzdKpGTJx+ifyta1cCbjuJxjlzKIu7kUaLcfGifa61SU77cFUBIUCAhQYGcWlTA9xpMPX9LKywzUklTVmfAtP4kr/yRXdeTSFVbYmVEG6d2qUGVB1e5nieshihrdeId17OsXh7EoyzQJV1m04p9aDr3wN1Cx61rt3FyqYpVOU/6dGlO6/4+1DevQnXnWK7fSJa+5MPU+BhiRPy0t69xU6hK9cpGBNYAg/UfAHO85oZy+eJ5ok9t5rMyu5m9NoqMnK0Gyx+YHj8j4mMKKekv1fTlkbdaKnRZ9MxSsNXSgvMCiIKSw+ZmaLIyaZizj1ap5phKQTKgFVQcVCspr9VJn+UsgpT45CWmJJCgscLaSi81JsZHACwQSBO19ElNJ8XCiv1KBamApeTKW4SS6L+eS+XEmlWEJehAm0GG/oopKekXhHz5D4CYgN/adZxL0CKm32LPmgMktupIc72JJknHfy2JJN6+TVI1D7q2csVGyCL+1k0eGzHS094M4uCZOyRpQBsXzZ5jV6lYrXKeQVBh8Uti32QfvDq25y339vT6yg+HIUuY188ZBaBw8uJ9zxg2zNvIuTgNYvot9q4/Qlb7TjTR/9pkIcfXCgqeijqctBpqKM05goZGog4HUcHjAguDcaScn+bqOc4nxXP/QQK3w8N5mP6Up0k2ONhln0Da+ZVM+Z+Oj+f9wtKvmxH4zSwO51mOb4wC2weZ7CV73j+KyUkkY4udrQIeF9R8isT5buHo2Mn0rruRn7XeeFsdZXZozl0uwZ5y9joe3n8kaeYnF8EGnxnrGe9elorlFXht3sP4slWwS6/JPs/z/Dp8CjtjjD5qKcjk9MIP6PmrJfbV3uT9ccv5vewYPlh2nsy8u5YGAVJCT3Dx65m893g1/W9pGfS8/VDR0McLF2dHVvj3RESJtZ0ZynaO7NjxNHsXzXlWDZvAjkfZsVQ1H8+Wcc/eX0xpqaRZVqBe36kMFdfy0fa76BxbY5GVQmpBxalAAubW1ihTU0gx8sJGYe+IXdJDYvRvuj56yGN1A8raQPLNm8RWdqWeex1cQ39nRw1vPGpfwLXCXYJuST7B0mNM/LSppGZaYGVZcp2H4foP2d8Jas1n+1JR2zjjPuxHFq7U8HH/5VzUFF3+jMzO/IyJjwkMp7+U02eAIOpwFLV8mBzPB8/+KIqYo8ZWBASw1WQwPD2Dprrss1GJOtSqkjkzw/HJT7BxwEGVwOV86ymNJwLpiNTJTOUDLBhtrkDUiVggkFoS1aA4/Vde2vvcuGPE1blUunge6131i7GPeapsgKO1AKkSYmzdmfn7v6aNWfZ/NTd/59PBK7gkLTsNv9/Q9mIRSfT/lgFpfRk+YjmHJt3h4Ool/Lw9mnhJGSZg16gvY0Z0p4WzFehEVHbOqM9ILzxiWhzZPamWmLPrWLi9O5s6uGO/eRsJ5cpT1qw2w9b5M+TZGwQVFoogbM3A0LScTqHkiZhFTY2ORJUFZ3SZ9MnSUUZQ8PTZKRqKbxHbBUPnB4g5/a5OpyMlKQWwQScqUD4PURZX/1zDyY9/ptvNuUw+nZC73Svi8wuSr30w8v0yWUl4MQhKPE/Unep4elRi5bW7BXcE6WfYvFvD0t4t8YvrgOrIt0Q8u/oXE4hNUNDEqSwKHhT8/sKISRz5phf+Ht+wr2cgPadE03vVEhzmDuDny69WDchIeMSDBHhw/zaLN3fi+EBPXFac5++XdZpJQezaHYb2/lGuasu9+LuqIT7tYfPYHvxySQsIOL47l9992lF2546cxjuLxMcxPMwZUKrj0ozLpyJoH1zlhnIEXw7/i2VDN3NTC5Z161P9zjVuSI6NSGZqGjorK4y9OaSLfUycbX0qWgmQmN2oKipUorwmltgkEe2ta9wp1xKfVvW4FDiTgPhejO7SCLOEG9xIknABUcqMip+qDGXMUrlj7EixCJLq/3MiWUl3CPzzCDcHtMbNTuBiQtHlz9jvd+VlVHxMYDD9BupXcdNniCgIxAoqttjYsKOg5TFiFmNS0lBb2vKJmYJ0oEp6ImtLIDYgIT75KCjf3gu3J+Ese75e0nQ6hZJbYjqfpSn5n40FtwELrQYXpZLbeXc2hTH9V2EzNc/p0BU/yfkpHCjvpIacOQTB0YmymjhikyUWvtQTzOrX+/l3UURNCk+NOU9D7ze0vdgyuR+8gRnBm1jcoC/fLV3BjKS3GXcozw/oFJQ/Fh5MXPQR6nmf0v/QXdJEBVWHrGNb/bw7SifqRHRZWWgB8ckjnmaE83uvYWw2pTEQBB6jo4VG5C8LBZcVSqplaNAoVDl9N4bjW8R2Q+dnBiDmvAARMf+NHcGGlmPG43llO0fKf8S0Hv6M2XnvxYxWEZ+fXwHtg1Hvl8lKxovuVHuVP9cEUX3Uj0zu1oiqZR1xqvoGrVpU17sg1fL3jm3caTOM8V4aDuz960UF0N0nwP9v6g/+gl5vOKJWqClToTYNXKT+xKaCctWrEn/tBpnKGtSudJu/TVtsWjpUrrh7v0mtivZYmVtg7+rJ0N5NSLp8iQf6pyk40mbsfGa9V6Pgdd3FJcbjN2844zZeyTWdrmrYCS91IIdCYnjy5AlPnjzm6mFfrjTxoX2uReMGmHr+aWfYeywB4U4wYbFqbKq2YfTojsQc8zdqzXDm7Rs8rFiTGuZ5txRNe/0we6405aNRHlRQg8KmLv1HdMPMdx+n00FMvMnNjPq0qn+P0LA4LoRGUa1ta8rduYZRE0GmxscQI+KnrFYLV+1Nrt835sQNkFT/X1BaV6FVn87UenyZK4mi9PJnavyMiI9JDKS/1NNngE5hxl6Vlv5pGdTNuToxE7W8qdFmX8AgYi8KPFIIZABW2kwGZWpL7hwMxOcFAbVNFZr2mMyS8XUJ+eV3IvTvgpsaH0HNYTMBhVJNpEKkjC6LYelZPFaruZN3X1NI7L8ynz4h2bkZbzmbAwrMLMwk9m85TE0/gGBLhw8H0tBGAebOvPPh29gG+3FWf+lwUccX04mPieFhzivmaTJG/baZofcb2l4sCio3akW9chYo0JJ47zoPU1RYWOROZaH5o3bAwTqFmHvxpItKrF29+aRn/fwxKix+Shdad21FnYp2WFrY4eI+hC/eK0fwkWCSRNA99mP76RoMGd+d+o5qQIG5Yw1aNq1Grq6ssOOj4KFCSzOtkmglZChVxGuzqCgILwZBhuJbxHbJ51cogbIdpjC709/8MHUmX03djtMX3/NhLb21fkV8/gtFtA+S3i+TlSy9e4o6Hu6dykc/nqfmsKXs9T+O77aljPd2yVVJdDEH2BJVmzdTDrIv1y1YLVfXTmDiAUsG/XKI8PDT+G6czUC3MhI7CSWuNSty59o9RKeaVE+8xvWXssZMIsGKml2+5JcdvpwNC8F//USaXlvC5z+eJFl/P4U1Lo3f4q065fI3sKVGjVun9lic9idKL2a6mABO3GhCl/blJOYBxTj/ZE4tGM+ie+1YcuQ0Qdu+olH0bCavz/PDEQZorwUTnNyMNm/m+ckYVWM+/30f/idO4fu1B5ZNxrHnlB/Hdk6lvRWgvcH6CVPwrTyOLSdOE3JwEV0eLeOzH05mTwxpb3H1rjM1dGGEPtKRfu4MV51roLp1I/+vnxXF5PgYIjV+Cpw9WlEp6jTG/nZE0aTU/xffCTofuI1vm/3N/C+XE5llRPkzOX5S42OqotL/MtIHSk0avyQm8HtqFta6DBYkJrAhJYPyACg4aF2GjUIm3yXGcSI+jr2JKfTT5PyIgqBmraUSz5R4/OPjWZ2mJdJMZWgVjhGKik8OVQum+0YSeXwzP75vz8mvPuTL3fdzz6qYHB+BYMsyrFBkMSchjkOJKdRXWjHDQln0rI1k0vqvrNDfmLlLxZA/TnI2JIBD09thI4DSpR9L9x7l1MFptLJ0Y9y24/jvWcD7eZ/oXET6lW4jWLdrNzuntsW61iCW79zNrh978PzRblmn+f2AExO3+HMmYBMjrXcxcdYhnuq3X0Ucv2hK6nz4C/uPHeLbdpbUG7Eev8Pb+aaj1JuYpU3A1u0DftxyjNDQUEL3z+CNsDksOBSXa8aisPwh2Z9fl92mwzI/wk4fZcuU+oQdCMm/jL3Q+Cmo2G4sy7YdJTTUjy3ftOXpb5/z3z0x2eVPF8OeaaNZndaNebtOEXk2iOObZjO4iaP+RVaRx38kiFgrVVwUQFSoOCeIKBTZs7rFJvX8CqGs3J3vpjclcMb3HHqsI/3CKqauFfj0h5E01v9OWlGktA8y2UsmuHy2RgRQHZuTd1vBBEd6Lt1OV/9+jNj+KP+UqUxWLErqjNzE6jfW0/OLfaW+zOi1Y9aQ8VsX4bS4F1P9X69neMhkMplMJpO9KqTcBNAjYNtiGB/XDWDjYXkAJCsNWq6sn82OSp/wufurchfyVaGier/x+FxfyOIT8gBIJpPJZDKZzFSSZ4KUroP4dfUIGmqusm3mRBYGPJGnMWUymUwmk8lkMtlrR/IjJLQ3N/Bpxw15/yyTyWQymUwmk8lkrxUjl8PJZDKZTCaTyWQy2etNHgTJZDKZTCaTyWSyfxV5ECSTyWQymUwmk8n+VeRBkEwmk8lkMplMJvtXkQdBsteDsg7D1h7lpL8fp4LDOb9hCHmfQyiTyUCslUHy3ATiNsQTtyaRVDf5x9Rfe2oPZh7fzbgGxj0CVfayCZRx+5BF2/0JCw8j8vQe/uue58HfMllpEUSyPkkkpaWI/HwRafJcRppTzWsMS//05WxkBJGBR9m1fDjNrHLvVZoEh54s3zOZN1VK6n6+md/6Or16eWn2Bp//Gc6FP4dT8yX1SWY+Czh34Rw7R9bKeUK8De8sCuGv6J2Mrat3Eio3Ju6PInxZdxz1AieU78fas2sZ9Pzx46D2mEHAsam0lPwbgUUTHJozfPFOAsMiORe0n9WTvHE25dgWjfjP1l1862n7Iu+1V1g1tBNtO3jRfd4ZsvT3/3/CcPyUuAz8jUOL3qVyqQwAi6j/igoMWBPJ5YsX+OtCFNEhvuz4+Qu8q6pzH6KQ8lcSDMenuIpI/zOllT5BRNsujeQ5CcT9EUfcmgSSPspEp5++clmkTU4kfl08cWsSSByVgSbv09oFHZkfpKG9ZI39EHschttgeamkTrTw+Ajl+7E28gKXL5znYnggvlsWM6FbHayN+mgzqrQbyYKNBwkOiyA67BBTWxSQwf9A+/uMsv5Ydm8upc9V2FLHZxQLdwQStbWUPqNQSuoMWc4B3wDCo85zMTyIk4d3MMPr9XpWW2nlj9JtPIejL3D5Yp5XxFK6l9HbUXCi23/GUOvsFDq1aEbTdh+wOCxdb4f/p/T6h8sXorkYfoojG35gSFM7BKS1D4JVXfrMWMPhwDDORwRz6uAm5r9fM/t653VgoSVjeBIJq+OJ/SOe+CVJJHtrAdB1Sib2z7j8ry0JpNbPfru2d2K+7fGfaPQ+oGiiWxpJSxNIbq8jc2QCcauSSKurt4MgonVPJ3lePHFz0tGWyjXE60evhxFw7DCdNbNqc/z7sbxz/DopFhWpXV3N9bQXe5U288bNqXHRj0u6cvRsIhI+N/YVeyikitqDp/C2eI24vJtKlUhmzBMcW7em8sqr3DFvTtsmSTx4nPtpTar6nWgv/s09t060ddjLrtiXFD3BFq/Jc+mv/YVPvPZxr/wHLPtjDnNj3mPwultkNwVSKKk5cDLvP1pDz8DEVyzvS5Gk+Gm5tfUnDvVZynivACYejS/B+Bio/wJABr6TWvPZ/nQsHevS85ufmTPlBj6jd/OsmJVa+ZMUn+IwkP4cpZY+QLQUUP9RButLSnDKJGVqKim3VNj4KUAQyRyaQmaiNbafqlFYaEibmExKDxV2m/UuExQiOntQHlYhaAGtUEIXsQbiUwbQnGFml0/YlFiOeu0GM3XaapbaDGTYJin5I+DQ4WvWTa/I3tlf8EPA3zzJVKBS5L0I+Kfa32xmVapSQfF33j+XACV1hi9neeu/2RQQzVut8m4HEBFLrrjloeXKulF0XWfFu0tP8NH5wbz/6zUJ+fZqKa380UYvomuTxXp/ESj77k/s7H2GyFS9PyscKV9Oy+XNEcRqAW0K+pv/f8siZFZnhv7xCKVNFZoPmc2S+WO43HUWIWCgfVDyxidzmNboDBMGj+d0jIBj1TpUyrz/2pRBbY8UUmursJ5eBnUsiBW06LKyRxqKY2Vw9AMQyfwigbS7NthtU4IIzx64qdxhi+OOnINZakidkwqnJQ4BlVrSh2YibLHFpkYKGRE2WN/SodPru7S9k0lqrMQiUoWm4Yu//9u9GAsqXekzyodHKycxe98FYpLTSH5yg4gzV0gQQdXwC/b5zaSd9Ys3K2uNYEfQUno8uyWqLE/rEfPYfDiQc1ERnPX9g+neTnmnmwqkajSKDfv2ceD7rlRoPYmd+zfxZfPq9F28k7XDG7wydwOULv2Y1ushv/5xOe+mbApnPlgVgN/XHpTsJLgAtyOIquiJp5MC8yZtaHYnguhcUyIqGnTqgOi3iHXRbnRu62D8BZCp52/Rki6eD/lj8U7+itdRrVMXXJ48wfXtTrgYk3kqN97vU4mTW4/wxMgOX1WxLWMWb+N40GlCT+xlzdTu1LYCsKXHsmBW9c4bDyVu43ZzcEJj6Q/MMjU+hkiNX9Yltu+6R7t+PpSXUrGkMlD/cxG1pD29yL5jF1FWqIjj8/OQUP5MjZ/U+JhKUvpLMX2igOqQBeZRSoQsEO6rMbsKugrPPlxEtADFZRWKLCBJhfqGAOY528tmkrwggfiVSaRVFckcH0fsH3HErUglS3LhLoKk+ACIaFNjuHBwAf/5MZwGw4aSazVQYfFRuvL+yNZE/TiBJccu8yRDB6IGTZ4rIIPtb3EU0X8pG45ko28gQfM7Y19/NLvDIoiOPMuesTl9k6oF47ce5lRwGBcCvuO9Lv9l0+HjBAUeZmZbvem6wtKPliurhuAzeAbrI2IL7TPLt5vI2v0nOBMSwP5ln9GqbJ49Cz3+60+we5NPF27leHAo4aGB+G+bS5/q2ZXfYP4g4NhqJEu3HCbkzFkiQvzYPv9DmtrkqcGFxk+HVqt98aIaPfu7cXbTHu7oQFGxB/N3H+bkifUMq1WGtxeGEB0ZwTm/r/DQnywv7PhSy08xCDYN6D9jLUdOBXP2tC/b5g6iUU76zXzmcWzVHJbs9Cfk8E/8Z/RCdvkH4L/0PaoqQLBpybQ9x/mtb9XnK1Hcp+4hYEUfquVrf0Wyku4SstuPa3YuVMs1HVxY+6CkonNF4s4e4cT1OFJTYrn7VzBnXuYd+GLSltchXDTD7J6AkCaguKlCdS8n7SKgzXlB9sBHm/NvAbTdUsm8boGF5Fl8EVFJ7uMlKFBkvvivcpcN9l9bYfGXgCj1sP8Cz1tQwaYxzWvc4uTJuwWOvDUXt7H1bjv6ejnmdPxKanh7U+HUbvxjRUCJy4B5wzXgrQAAIABJREFULH5fzd7JvXFv1grvT+ayPTq2sHzORRO1nEHvDmRpxC02fv4O70zYzd3QBfR5pztDV14o8JxeOkUV3vvvAJJXLeRonKLgjkpM5lZkMKcvPirxJVsClwg6W4027mVp2KYlMSdDSVDrlWZVA3w6iBw/Gozf0Qs06tTW+CU7Jp6/slJ1XDRXuXxfi7r2h0zv9Yglk9ZxxbkWrvkaycIpa3rgbh/ByTAjGz9lHT5e9AMd7i2kb7tWuHebgK/zFyyf5ImtkMLNG0+o7OqMQlGJLhPnM2dgQ9RY4uLqxO1rUu5U5zAxPoZIj5+O+6eDuNfQo0SXqRqq/7kJmDnU412fetwLCuHOszdIKX8mxk96fEwjKf2lmL68xFoZZNRTYBaW08qICsx2mCO+nUJ6Qy0az1TSaqixPJAzwnlqRpkv7bAfboPlHQGzhQ44DnDAYaQV6ryTKSaQFJ9cRJ6eOkG0XWOa6o9SC4mPYNeMt1yvctvhM/638yB+xw6wdcFwWpXTa2WltL8mK7r/0p5fwUCv1nhOO0HapZ/p0awpbk2a031JTt+kOcPCvp1p0/UHgst0ZXy/ZOb37YhH2+7MCtJrywpJPwBaTfaxFMqCb/opa9DJPY6fBnSkZbtB/JbRmwXT36ZsrmvMIo7/WlNQpec4Rjnu56P2b/HmW+3p9eUvnLibXRoN5g8iCQ+iODD/U7xbNad5l3H4VhjF14Nr5461xPhZNh9AX/vDbPTPno3XPdzNhB6dadvuQ367msSBcW/h1qQpjTvOIkj/QIUdX2r5MZWiPN1mLuOzCn5MfNeTFh0+ZqNqCIsntCZ7NZ+Ccm8I7B3alwW32vJx8zA+7/YVwQ270sZJgZgUysKpf2I/ehZDapnh0HYC33W8zPfTd3A7X4OgwNyxFl6DulLzdjjn8t1Fg/ztQxaRR4+j6DqOKb0a42SWd/9XnzpEDZ5ppLbXoMuzStwoFTJI9Raw2GyGoqDQFUSrwmKDGt3QRJLaa9E2zkJrl3efnH9LtuF87T2/RyjY2GFDAvGJhQxZdPfYuyWM4f264bxvPXeEGnTydsBvUSCJAIpKtO/cgL839GRTZAw6IO1mJPF5DlMkZW3qu94m6oZIGa9aqK4eJ15qISh1Ciq8M4lPFOv5ZF8MujbkvwsMIMYTtGwiQXn/XhKEDM76R/JJ14G87ZLIySkPcR7wYrOqgTcdxeNMvpRF3L2jRI33ob3jbrY/zQmiqilf7gpgzLMsVllSJmnb8/cDpp+/pRWWGamkKaszYFp/klcOZdf1JnipLbEqsEcvmNqlBlUeXOW6kcuolbU68Y7rWVYNC+JRFpB1mU0r9jHo1x64/xhI6LXbOLWvilW5evTp0py6qfepv20/1Z1juX4jWfqyMlPjY4gR8dPevsZNwZvqlZVwJV8PZBKD9R8Ac7zmhnJ5LiBm8fjM/5i0NoqMnK0Gyx+YHj8j4mMKKekv1fTlyBqRQLKHiIgCs43WWFx50coI180wv51C2vAUsBNRbbFG/UTvzaVISnzyElMSSNBYYW2l11IWEh9F+YqUN29Iq2qbmTTgB25pnPCcsIIFs57S+7PtPNRJbH9NVRL913OpnFizirAEHZDxvH4AhaY/F6GQJYxiAn5r13EuQQvcYs+aA4z4rSPNLfdz+NmaKynHfy2JJN6+TVI1D7q2Osn6EzeIv3Uz705F0t4M4uDNnP/ERbPn2FUGv1EZJVdeDOylxE8oR+cPOxO3fQhGf91HyvGLKj8mUjh58b5nDBv6buRcXHb52bv+CKMWd6KJ+hShgObqOc4nxVPzQQK3n4bzMF3J0yQbHOwEiIG08yuZ8r/mrJ33Cx1tKxL49UAO51qOr+atr/y4NE1Ek/aEG+EHmfHlai5rC66rudsHkdhjX9M/qR8jR87lwBdxHN/wM4vWneKe3mzGq0wItcY2NYO091JIGKBAfcACq/3q7Jl7qQSRzA/S0fmVwSIm78aiKc5aYRttQcbnSaTXTyepQxrqFWWwDs0z6ikoM/7Fng+CxOQkkrHFzlYBjwu6sBKJ893C0bGT6V13Iz9rvfG2Osrs0Jy7FII95ex1PLz/SNLMTy6CDT4z1jPevSwVyyvw2ryH8WWrYJdek32e5/l1+BR2xhh91BIllPVm4ig7No3exl0t/CM3KgRICT3Bxa9n8t7j1fS/pWXQ8wKtoqGPFy7Ojqzw74mIEms7M5TtHNmx42n2LprzrBo2gR2PsmOpaj6eLeOevb+Y0lJJs6xAvb5TGSqu5aPtd9E5tsYiK4XUgopTgQTMra1RpqaQInlUkk1h74hd0kNi9G+6PnrIY3UDytpA8s2bxFZ2pZ57HVxDf2dHDW88al/AtcJdgm5JPsHSY0z8tKmkZlpgZVlyrZnh+g/PvxO0LxW1jTPuw35k4UoNH/dfzkVN0eXPyOzMz5j4mMBw+ks5fTlUG22w2wFiRQ0ZA5JJsrPG9k8VCDoyxiWTcdca2y9UKOw1pI1JIdHOGttNqlLv1wzHJz/BxgEHVQKXC7wTnIcgIGQEs/ZnX26lATwiaMMebv/ZisZm24mxLuX2tzj9V17a+9y4Y8yVj0S6eB4/fnFcMfYxT5UNcLQWIFVCjK07M3//17TJCZ7m5u98OngFl6Rlp+H3G9peLCKJ/t8yIK0vw0cs59CkOxxcvYSft0cTLynDBOwa9WXMiO60cLYCnYjKzhn1GeNrjrLmewxufI4NX9+QOCtqpMLKj6H4FrFdKFeesma1GbbOnyE5uyOosFAEYZuzv5jT7+p0OlKSUgAbdKIC5fMQZXH1zzWc/Phnut2cy+TTCXnavWffCcq+iWBI/vYhi4chG5gRsonFb3Tl82/m8Lvzf+kxI4AkCcX7VaA4b471eXOsqmeSNiyFxArW2K1UI0g8f7FBGmm11FitNPHOXoYC5VMFqmNlsKycTELnLCzPmEufUfoXejEISjxP1J3qeHpUYuW1uwUX4vQzbN6tYWnvlvjFdUB15Fsino3SxQRiExQ0cSqLggcFv78wYhJHvumFv8c37OsZSM8p0fRetQSHuQP4+XKpNDNGUzfzwdulBe/ui+K/en8/EPk2y/r0YcnLOs+kIHbtDkN7/yhXteVe/F3VEJ/2sHlsD365pAUEHN+dy+8+7Si7cwfZw6AsEh/H8DBnQKmOSzMun4qgfXCVG8oRfDn8L5YN3cxNLVjWrU/1O9e4ITk0IpmpaeisrNC/eSyFLvYxcbb1qWglQGJ2jVdUqER5TSyxSSLaW9e4U64lPq3qcSlwJgHxvRjdpRFmCTe48Qq0sEbFT1WGMmap3DF2pFgESfX/OZGspDsE/nmEmwNa42YncDGh6PJn7Pe78jIqPiYwmH4D9au46XtGSFYgJAOPzbA8nEn82xq021UobbLIfEOB+QoVCh0Qq8Jyu5qMEVlot6pQlUAMimIwPvkoKN/eC7cn4Sx7vl6ycLqHd7lPM5zsFJCafXRBrUalzSJL9xLaX2P6r8Jmap7ToSvm6RRI4UB5JzXP1rUIjk6U1cQRmyyx8KWeYFa/3s+/iyJqUnhqzHkaer+h7cWWyf3gDcwI3sTiBn35bukKZiS9zbhDeX5Ap6D8sfBg4qKPUM/7lP6H7pImKqg6ZB3bcn6ZSzpL3Ae+h+OxGRzSnwEuUYWUH0PxLWK7+OQRTzPC+b3XMDYX0FiZAYg5L0BEzH9jR7Ch5ZjxeF7ZzpHyHzGthz9jdt4zcSBYVPugJe7SXuavbkevsc1xVQQQnXeXV5xwwwzLPVlk9NegVailtc8qLemDslButUFt7K9pCCLaBlq4p8z+vo+9liw3HcIjheQB2L/Vi3ky7VX+XBNE9VE/MrlbI6qWdcSp6hu0alFd74JUy987tnGnzTDGe2k4sPevFxVAd58A/7+pP/gLer3hiFqhpkyF2jRwkfoTmwrKVa9K/LUbZCprULvSbf7Ov9j0H5N5ZAJNGjSgbv3sl9tnu4k9v5iuTXrl7oAFR9qMnc+s92oUvK67uMR4/OYNZ9xGvSl8QNWwE17qQA6FxPDkyROePHnM1cO+XGniQ/tci8YNMPX8086w91gCwp1gwmLV2FRtw+jRHYk55l/AmuHCZd6+wcOKNalhnndL0bTXD7PnSlM+GuVBBTUobOrSf0Q3zHz3cTodxMSb3MyoT6v69wgNi+NCaBTV2ram3J1rGDURZGp8DDEifspqtXDV3uT6fWNO3ABJ9f8FpXUVWvXpTK3Hl7mSKEovf6bGz4j4mMRA+ks9fUotWS01aMuKiGoRsVIW6R01CLeU2YOeVCWKZB2ZLbTZnZxaR2ZrDeIDRfb20mYgPi8IqG2q0LTHZJaMr0vIL78TkevLPwXHR4w/ye6g6nw0uQ/1bJQoy9Tg7U96UDHkJJFZRrS/ppLYf2U+fUKyczPecjYHFJhZmEns33IUkn5JBFs6fDiQhjYKMHfmnQ/fxjbYj7P6S7KKOr6YTnxMDA9zXjFPkzHq62KG3m9oe7EoqNyoFfXKWaBAS+K96zxMUWFhkTuVheaP2gEH6xRi7sWTLiqxdvXmk57188eoqPgBglMXBndOYsemEEz6po6B4xfJUHyL2K577Mf20zUYMr479R3VgAJzxxq0bFoNaV2tQNkOU5jd6W9+mDqTr6Zux+mL7/mwlrFffimkfVA40bidO/Uq22OpVGDm2IA+3d9Ec+0K915G+1Zcgg7Nmxq0Tjk/UGCnJaOtBu4qUUo8f13HNDK05liGCtl9gBqkFxIRbYs0kn9MILmLhsxBqWTGWVBmg9q49ulfSG+xoI6He6fy0Y/nqTlsKXv9j+O7bSnjvV1yVRJdzAG2RNXmzZSD7Mt1C1bL1bUTmHjAkkG/HCI8/DS+G2cz0K2MxExQ4lqzIneu3UN0qkn1xGtcf03WguaisMal8Vu8Vaec9PJbbGrcOrXH4rQ/UXox08UEcOJGE7q0LycxDyjG+SdzasF4Ft1rx5Ijpwna9hWNomczef11o+4Uaa8FE5zcjDZv5vltI1VjPv99H/4nTuH7tQeWTcax55Qfx3ZOpb0VoL3B+glT8K08ji0nThNycBFdHi3jsx9OZk8MaW9x9a4zNXRhhD7SkX7uDFeda6C6dSP/r58VxeT4GCI1fgqcPVpRKeo0xv52RNGk1P+c7wRdPM/5wG182+xv5n+5nMgsI8qfyfGTGh9TFZX+l5A+AbQeaSTPSyBuYzzx36WhuWdJmXU5nViWCqtFFijaJRO/Np64FUmkW5pRZvnLWupQVHxyqFow3TeSyOOb+fF9e05+9SFf7r6fe1alsPiITzkw4z+sSe/J8mOhhPv9xscWO/hi5qHnP79euqT1X1mhvzFzl4ohf5zkbEgAh6a3w0YApUs/lu49yqmD02hl6ca4bcfx37OA9/M+0bmw9ANKtxGs27WbnVPbYl1rEMt37mbXjz14/mi3rNP8fsCJiVv8OROwiZHWu5g46xC5JiSKOH7RlNT58Bf2HzvEt+0sqTdiPX6Ht/NNR6k3MUubgK3bB/y45RihoaGE7p/BG2FzWHAoLteMRWH5Q7I/vy67TYdlfoSdPsqWKfUJOxBCvkuMIuOnpPb7A2l2fjN//m1iq1PI8SWXH1PpYtgzbTSr07oxb9cpIs8GcXzTbAY3cdS/CCyUsnJ3vpvelMAZ33PosY70C6uYulbg0x9G0ljqj9cV2T6Y4dzhM37aeIDTYeGcOfATPTK3MG7Wy6r/xadrnkbyrATif48jbnEymVnmlPmfmbSZGEFHlnsWujppJPweT9wf8cT9EUf8UIm3EUQFZmtssBtuj81BFWY/22LzmzmqFL19aqWTtCCRhI+yEKtmkDw/kYQxmehejQr+jxFcPlsjAqiOzcm7rWCCIz2Xbqerfz9GbH+Uf8pUJisWJXVGbmL1G+vp+cW+Eltm9P+GWUPGb12E0+JeTPVPkuufTCaTyWQyAHRNMtA+MEdt5A8r/FtJuQmgR8C2xTA+rhvAxsPyAEhWGrRcWT+bHZU+4XP3V+Uu5KtCRfV+4/G5vpDFJ+QBkEwmk8lkshcUkfIAyBiSZ4KUroP4dfUIGmqusm3mRBYGPCn6y6MymUwmk8lkMplM9gqS/Cxx7c0NfNpxQ94/y2QymUwmk8lkMtlrxcjlcDKZTCaTyWQymUz2epMHQTKZTCaTyWQymexfRR4EyWQymUwmk8lksn8VeRAkk8lkMplMJpPJ/lXkQZDs9aCsw7C1Rznp78ep4HDObxhCST1HTiaTyV5pag9mHt/NuAb5H+EpewXI+SOTvZbyXEaaU81rDEv/9OVsZASRgUfZtXw4zaxy71WaBIeeLN8zmTdVSup+vpnf+jq9Is+KUVBl8HrOX7zA5Wev6KNMay75B/aKxcxnAecunGPnyFrZT5oWbHhnUQh/Re9kbF29hlflxsT9UYQv646jXuCE8v1Ye3Ytg54/fhzUHjMIODaVliWUBMGhOcMX7yQwLJJzQftZPckbZ1OObdGI/2zdxbeeti/yXnuFVUM70baDF93nnSFLf///JwzHT4nLwN84tOhdKpfKALCI+q+owIA1kVy+eIG/LkQRHeLLjp+/wLuqOvchCil/JcFwfIqriPQ/U1rpE2x4o8cElm09ypmIc0SdPsj6qV2ophdes2o+TF65j6DQM5w9uYtfv+hIFb3t/2R8hPL9WBt5gcsXznMxPBDfLYuZ0K0O1iUZI4UtdXxGsXBHIFFbh1PzH7jeVNYfy+7NpfTZ/2j6lNQZspwDvgGER53nYngQJw/vYIbX6/WsttLKH6XbeA5H6/X9z14RS+leJu/e/0J6/cPlC9FcDD/FkQ0/MKSp3WtVfmT/PnqXUgKOHaazZpYnj9aN5R1PDzx7DOfb1ce5mvZir9Jm3rg5NS6e4ZKuHG82EQmPiH1FHgop4Ohkz711H9LYrRH13RpRv0kXfjirybtjKRHJjHmCY+vW2RfAFs1p2ySJB49zP61JVb8T7cW/uefWibYOL7H5EWzxmjyX/tqNfOLljufQbaj6zmHuQJfsQZtkSmoOnMz7j9awNDDxFcn7l0BS/LTc2voTh1zGMd7LvoQ7Fyn1PwPfSS2p17ApLbuO4U9dd+ZM6ZprMFBq5U9SfIpDSvpLMX2ApXUqpxYNx8e9OR4DlhHTbgZfdc+5CaSqz8hFX9Ew/Gve9WiJx/vzuebxHYs+qp1zU+QViI/mDDO9GuPm2Zuxa+/QdMpqlvYvqc9XUmf4cpYPrsDFgGiS8m5+ScyqVKVCqdyAkJI+EbHUGkQtV9aNoqtXZ745kcZfvw6mQ+fezPB9vR7KXFr5o41eRNcmOf2+WyPquzWmzVQ/nkSfITL12V6lmT+vgyxCZnXkjQaNaNyuP98EV2H0/DG8ZZ53P5ns1fGiuVC60meUD49WTmL2vgvEJKeR/OQGEWeukCCCquEX7PObSTvrF29W1hrBjqCl9Hh2FaQsT+sR89h8OJBzURGc9f2D6d5OeaebCqRqNIoN+/Zx4PuuVGg9iZ37N/Fl8+r0XbyTtcMblFBHWhxKypaz59G9B2RqtWhzXvkeGKtw5oNVAfh97YFF3m3FIsDtCKIqeuLppMC8SRua3YkgOteUiIoGnTog+i1iXbQbnds6GH+hbOr5W7Ski+dD/li8k7/idVTr1AWXJ09wfbsTLsZknsqN9/tU4uTWIzwxskNRVWzLmMXbOB50mtATe1kztTu1rQBs6bEsmFW988ZDidu43Ryc0Fj6A7NMjY8hUuOXdYntu+7Rrp8P5aVULKkM1P9cRC1pTy+y79hFlBUq4vj8PCSUP1PjJzU+ppKU/lJMn5hE+B+/sCnoBnEZWSTfOMbRaKjsnN1+Kl08aVc+kDVrw3mqEcmMOcWSn45Q7t1u1FfyisQHQESbGsOFgwv4z4/hNBg2FHf9QJgaH7RcWTUEn8EzWB8RK6lPMVoR/Zey4Ug2+gYSNL8z9vVHszssgujIs+wZm9M3qVowfuthTgWHcSHgO97r8l82HT5OUOBhZra1fPEZhaZfWvrKt5vI2v0nOBMSwP5ln9GqbJ49Cz3+60+we5NPF27leHAo4aGB+G+bS5/q2YXbYP4g4NhqJEu3HCbkzFkiQvzYPv9DmtrkqcGFxk/3vM/XarVoqUbP/m6c3bSHO3oXASbnj9TyUwyCTQP6z1jLkVPBnD3ty7a5g2iUk34zn3kcWzWHJTv9CTn8E/8ZvZBd/gH4L32PqgoQbFoybc9xfutbNeemiw3uU/cQsKIP1fK1LyJZSXcJ2e3HNTsXqpXodLBMVrKe11DBpjHNa9zi5Mm7aPX3yKG5uI2td9vR18sxp+NXUsPbmwqnduMfKwJKXAbMY/H7avZO7o17s1Z4fzKX7dGx+QcKBdBELWfQuwNZGnGLjZ+/wzsTdnM3dAF93unO0JUXCjynl8scmzKWuI3eQnBIMEGHNjD3oxaUy9tbicncigzm9MVHJb5kS+ASQWer0ca9LA3btCTmZCgJav3b8A3w6SBy/Ggwfkcv0KhTW+OX7Jh4/spK1XHRXOXyfS3q2h8yvdcjlkxaxxXnWrjmayQLp6zpgbt9BCfDjJx+VNbh40U/0OHeQvq2a4V7twn4On/B8kme2Aop3LzxhMquzigUlegycT5zBjZEjSUurk7cvnZLevkyMT6GSI+fjvung7jX0KNEl6kaqv+5CZg51ONdn3rcCwrhzrM3SCl/JsZPenxMIyn9pZi+3JTYN/yAfm/ex+/E9ezzUSpRaDVo9BrTrMQEUitWpYr6FYlPLiJPT50g2q4xTfVHYcWJj1aT/dkKZSncFCu6/9KeX8FAr9Z4TjtB2qWf6dGsKW5NmtN9SU7fpDnDwr6dadP1B4LLdGV8v2Tm9+2IR9vuzArSa8uKSr+h9Clr0Mk9jp8GdKRlu0H8ltGbBdPfpqx+GSzq+K81BVV6jmOU434+av8Wb77Vnl5f/sKJu9ml0WD+IJLwIIoD8z/Fu1VzmncZh2+FUXw9OGcm9RmJ8bNsPoC+9ofZ6B//YqasOPkjtfyYSlGebjOX8VkFPya+60mLDh+zUTWExRNak72aT0G5NwT2Du3Lgltt+bh5GJ93+4rghl1p46RATApl4dQ/sR89iyG1zHBoO4HvOl7m++k7uJ2vQVBg7lgLr0FdqXk7nHP57qLJZK8OvUGQHTYkEJ9YyJBFd4+9W8Jo3KcbzgqyK7y3A357AkkEUFSifecG/L1hPpsiY0jLSif+ZiQXY/LVkMIpa1Pf9TZ/3RApU7sWqqtXiH9l6k8S+yb74NWxPW+5t6fXV344DFnCvH7Oue/aifEELZvItG1XJV4sGEHI4Kx/JHU6DOTtVomcPPkQ/VvRqgbedBSPc+RSFnEnjxLl5kP7XGuVmvLlrgBCggIJCQrk1KICvtdg6vlbWmGZkUqasjoDpvUneeWP7LqeRKraEqsCe/SCqV1qUOXBVa6n591SNGWtTrzjepbVy4N4lAW6pMtsWrEPTeceuFvouHXtNk4uVbEq50mfLs1p3d+H+uZVqO4cy/UbydKXfJgaH0OMiJ/29jVuClWpXtmIwBpgsP4DYI7X3FAuXzxP9KnNfFZmN7PXRpGRs9Vg+QPT42dEfEwhJf2lmj4AzGj/rS8hIaEE/q8XcSunsiIyuyJob4YQktKa/r3rUEYBZuWaMmRkN6oqlSgFXon45CWmJJCgscLaSi9GxYpPDkHIPwNXXCXRfz2Xyok1qwhL0IE2gwz9FdNS0l9Y+sQE/Nau41yCFjH9FnvWHCCxVUea608USDn+a0kk8fZtkqp50LWVKzZCFvG3bvK4qJFKHtqbQRw8c4ckDWjjotlz7CoVq1XOMwiSED+hHJ0/7Ezc9i2E6fdTJZY/RZQfEymcvHjfM4YN8zZyLk6DmH6LveuPkNW+E01yvleouXqO80nx3H+QwO3wcB6mP+Vpkg0OdtmlMe38Sqb8T8fH835h6dfNCPxmFodzLcdX89ZXfly6EEX4kd/4T/UwZny5msuFJ1Qm+8c9XwUkJieRjC12tgp4XFCpFYnz3cLRsZPpXXcjP2u98bY6yuzQnLsUgj3l7HU8vP9I0sxPLoINPjPWM969LBXLK/DavIfxZatgl16TfZ7n+XX4FHbGGH3UEiemxfEUAC0xZ9excHt3NnVwx37zNmIlX0UXgwApoSe4+PVM3nu8mv63tAx63luqaOjjhYuzIyv8eyKixNrODGU7R3bsyD5rNOdZNWwCOx5lx1LVfDxbxj17fzGlpZJmWYF6facyVFzLR9vvonNsjUVWCqkFFacCCZhbW6NMTSHFyHgq7B2xS3pIjP5N10cPeaxuQFkbSL55k9jKrtRzr4Nr6O/sqOGNR+0LuFa4S9AtySdYeoyJnzaV1EwLrCwLvFQyieH6D9nfCWrNZ/tSUds44z7sRxau1PBx/+Vc1BRd/ozMzvyMiY8JDKe/lNMHQCanF35Az18tsa/2Ju+PW87vZcfwwbLzZGZGsGTcMqb8dyEHPrMi42EYfx4I4n6ddB5l8QrEJz/BxgEHVQKXX4c7wcXpv/LS3ufGHSOuzqXSxfNY76pfjH3MU2UDHK0FSJUQY+vOzN//NW3Msv+rufk7nw5ewSVp2Wn4/Ya2F4tIov+3DEjry/ARyzk06Q4HVy/h5+3RxEvKMAG7Rn0ZM6I7LZytQCeisnNGfcb4NlRZ8z0GNz7Hhq9v5B7IFDd/nims/BiKbxHbhXLlKWtWm2Hr/BmSszuCCgtFELY5+4s5/a5OpyMlKQWwQScqsm+yAJDF1T/XcPLjn+l2cy6TTyfkafeyCJnVmaF/xBRch4o4P0nbZbJS8GIQlHieqDvV8fSoxMprdwsuxOln2Lxbw9LeLfGL64DqyLdEZOZsExOITVDQxKksCh4U/P7CiEkc+aYX/h7fsK9nID2nRNN71RIc5g7g/9i776gorr6B49/Z2aWIoKBYUewaFEs0FsRnxolhAAAgAElEQVSKojHGFttjN4ktMUaNRh8TjYmmWGOJMYl5bdFYYu8NUBEElCLYxV4iilIFhN2d9w9QFoTd2QWM5pnPOXtO4swOc3+3zb1zZ+enV3gaQdJL6DMyjMzoFIGkQHbsDEV37zDRutLZ/66uh3db2DiuOz9f0AECTu/O5Q/vNpTavi1r8JZB4sMY7mcNKDVxqeblkxG6v6O5Lo7is5EXWTZsIzd0YFvbjaq3r3JddoAk0lNS0RcrhuHksRz6xw+Jc3CjXDEBEjObZlXZ8pTRPuZxkoTu5lVul26Kd4s6XAiYhX98T8Z2ro9VwnWuJ5nRQRURs+KnLk5xqxRumztSNEJW/X9OIiPpNgF/HeLGgJa4lxA4n2C8/Jn7fFduZsXHAibTb6J+FTR9zzxNeMDfCfD3vVss3tiRowM9cf3lLFd0EimXtjJj2NasPdXU/mgDQ8/8ygXtKxCfF6go09YL99gwlj1fL/kKM6f/yu9OzXN69EWRZJUjZZw1kNXjCE7OlNLG8ThZZuFLOcbsfr2eP4siaZ/wyJzzNPV9U9sLLJ17QeuYGbSBxXX78s3SX5iZ9DYTDuT6AZ288sfGg8mLhqOZ9yH9D9whVVJRaegatrjl3tEUW5oPfA+nIzM58ChX3AuaP8/lU35MxdfIdin2AY+ehvFHzxFszKOxsgKQsj6AhPTixI5gT9NPJuJ5eSuHygzni+5+fLL9rvzrHyPnJ2u7QlEEsldy6aL5a1UgVcfMYUrX+lQq5YRzpTdo8VZVgwtSHVe2beF2qxFM9NKyb/fF7Aqgv4e/3xXcBo+n5xtOaFQaipetSV1XuT+xqaJ01UrEX71OuliNmuVvceXFxab/HNGVll1aUKtcCWxtSuDafCjj3ytN0KEgclxDC060Gjef2e9Vy3tdd0FJ8fjOG8mE9ZdzND7qeh3x0gRwIDiG2NhYYmMfEn3Qh8sNvWmbY1GyCZaef+opdh9JQLgdROhjDfaVWjF2bHtijvjlsWY4f+m3rnO/XHWqmfmLMrprB9l1uRHDx3hQVgMq+9r0H9UVK589nEwDKfEGN5660cLtLiGhcZwLiaRy65aUvn0Vs24EWRofU8yIn1i5BlV0N7h2z5wTN0FW/c8m2lWkRe9O1Hh4icuJkvzyZ2n8zIiPRUykv8jTp65C8w5vUqNcSYpZ21CyiifDejUk6dIF/n6WPlGNWgCVbVka9prB3P5prPr9GMnwj8cnm4DGviKNuk9hycTaBP/8B+GGk9qWxqeoyey/0h/FkuzSmGYu1oAKKxsrmf1bloKkX3Cg3ZCB1LNXgbUL7wx5G4cgX04bLskydnwpjfiYGO5nfWIeJWPWSitT3ze1vUBUVKjfgjqlbVChI/HuNe4/UWNjkzOV+eaPxhFHuyfE3I0nTRKxq9KBD3q4vRgjY/EDBOfODO6UxLYNwbzwpE5B88cUU/E1sl3/0JetJ6sxdGI33Jw0gAprp2o0bVQZeV2tQKl2U/mu4xW+nzaLL6dtxXn8twypkesVCcYYOT9Z2xWKImDwOIue+7unMXzOWaqPWMpuv6P4bFnKxA6uOSqJPmYfmyJr8uaT/ezJMcWoI3r1JCbvs2XQzwcICzuJz/rvGOheXGYnIVKlejluX72L5FydqolXufbsLtMrQUW5NuNYtuUwISG+bPqqNY9+/5j/7sp161dlh2uDZjSrVdr8Rs5iGtw7tsXmpB+RBjHTx/hz7HpDOrctLTMPKMD5J3NiwUQW3W3DkkMnCdzyJfWjvmPK2qwHu2XSXQ0iKLkxrd7M9dtG6gZ8/Mce/I6dwGeGB7YNJ7DrhC9Htk+jbTFAd521k6biU2ECm46dJHj/Ijo/WMZH3x/PvDGku0n0HReq6UMJeaAn7cwpol2qob55/cVfPzPG4viYIjd+Klw8WlA+8iTm/naEcXLqf/YzQWcDtvB14yvM/2w5ERlmlD+L4yc3PpYylv6XkD6hGNU7f8bP23w4HRqM39rJNLq6hI/nHM8c5AAaj+kcDQ0j/NgmZr+dwYaPx/J/l5+NMP7J+GRRv8V0nwgijm5kTp+SHP9yCJ/tvFdo7aPoPoo1O3ayfVpr7GoMYvn2neyY0x2DV58VgLz+KyPkd2btUDP0z+OcDvbnwPQ22AsguvZj6e7DnNj/BS1s3Zmw5Sh+uxbQJ/cbnY2k32T6Mk7yxz5nJm/y45T/Bkbb7WDy7APkuCFh5PjGidQa8jN7jxzg6za21Bm1Ft+DW/mqvdxJzKIm4OD+H+ZsOkJISAghe2fyRugPLDgQl+OORX75Q7Ifvy67RbtlvoSePMymqW6E7gvmhUsMo/ETqdlnII3PbuSvK3nUqgLkj+zyYyl9DLu+GMvK1K7M23GCiNOBHN3wHYMbOuV8pjkfYoVufDO9EQEzv+XAQz1p51YwbbXAh9+PpkHh/HidQvGPEFw/WiUBqI/8kHtb3gQneizdShe/foza+uDFW6YKRYGI1Bq9gZVvrKXH+D2FtszoX8OqHhM3L8J5cU+m+b1e7/BQKBQKhUKheFXImQQwIODw1gjer+3P+oPKAEhRFHRcXvsd28p/wMfNX5VZyFeFmqr9JuJ9bSGLjykDIIVCoVAoFApLyb4TJFYZxK8rR1FPG82WWZNZ6B9r/OFRhUKhUCgUCoVCoXgFPf91OFN0N9bxYft1uf9ZoVAoFAqFQqFQKF4rZi6HUygUCoVCoVAoFIrXmzIIUigUCoVCoVAoFP9TlEGQQqFQKBQKhUKh+J+iDIIUCoVCoVAoFArF/xRlEKR4PYi1GLH6MMf9fDkRFMbZdUMprPfIKRQKxStN48GsozuZUPfFV3gqFAqFwjK5LiOtqez1CUv/8uF0RDgRAYfZsXwkjYvl3KsoCY49WL5rCm+qRWp/vJHf+zq/Qu+KsaJim9EsWL+foNBwokIPMO0t2T+wVyBW3gs4c+4M20fXyHzTtGDPO4uCuRi1nXG1DTpGtTuT90YStqwbTgaBE8r0Y/Xp1QwyeL26xmMm/kem0bSQkiA4NmHk4u0EhEZwJnAvKz/vgIslx7apz6ebd/C1p0N23usus2JYR1q386LbvFNkGO7/L2E6fiKuA3/nwKJ3qVAkA0Aj9V9VlgGrIrh0/hwXz0USFezDtp/G06GSJuch8il/hcF0fArKSPqfKcL0FZxEjfRUZifGcSIxlSq5NxdY/vERyvRjdcQ5Lp07y/mwAHw2LWZS11rYFWKMBEnL0OQEDsQ/xj8+gaWp6VTIvVMRE93GsXPjSKoXxVhE5UAt7zEs3BZA5OYi+hv5Eqk1dDn7fPwJizzL+bBAjh/cxkyv1+tdbUWXPyoqDl7L2fPnuPTsE3WYL5oUTgPULCWelWm63BdktHoSxy9P9S/8++vmZbQPCoUlDOqWgFO76aya7cmDNeN4x9MDz+4j+XrlUaJTs/cqatYNmlDt/Cku6EvzZkOJsPDHr8hLIQUc281gzVdNuLVqPF09GuPepCtzw7S5dywiEukxsTi1bJl5AWzThNYNk/j7Yc63NandOtJWusJd9460dnyJLYzggNeUufTXrecDr+Z4DtuCuu8PzB3omjlok02k+sAp9HmwiqUBia9I3r8EsuKn4+bmHzngOoGJXiUL+eJETv1/is/nTalTrxFNu3zCX/pu/DC1S47BQJGVP1nxKQg56S/C9BWCGmlJzH+q55JGTXKhn5qM+GhPMcurAe6evRi3+jaNpq5kaf/Cyh+J1inJ9BJs+KSEI2/bW6N++oSZeVw4FiWripUoWyR/UKTWyOUsH1yW8/5RJOXeDICEVGQNoo7La8bQxasTXx1L5eKvg2nXqRczfV6vlzIXXf4IODmX5O6aITRwr4+be33cGnbm+9OF0/8/VKlw1Eu5yrKEowSPBOHf8U7GIm0fFArLZNc5sQq9x3jz4LfP+W7POWKSU0mOvU74qcskSKCuN549vrNoY5f9ZbHGKLYFLqX7s6sgsQwtR81j48EAzkSGc9rnT6Z3cJbVSanrj2Hdnj3s+7YLZVt+zva9G/isSVX6Lt7O6pF1//mKIlahz+iWRM6ZxJIjl4h9qgdJi1aXaz+VC/9Z4Y/vDA9scm0qGAFuhRNZzhNPZxXWDVvR+HY4UTluiaip27Edku8i1kS506m1o/kXypaev01TOnve58/F27kYr6dyx864xsZS5e2OuJqTeWp3+vQuz/HNh4g1s/dVl2vNJ4u3cDTwJCHHdrNqWjdqFgNwoPuyIFb0yh0PEfcJO9k/qYH8F2ZZGh9T5MYv4wJbd9ylTT9vysipWHKZqP85SDpSH51nz5HziGXL4fT8PGSUP0vjJzc+lpKV/iJMXyGItnHgPXs7NqlVCLnzrKBkxQdAQpcSw7n9C/h0Thh1RwyjuWEgLI2PlEGHDBVbbK25Igi4ZKRTSRBwzcigcu59LWWk/xLrjWa9TwCB8ztR0m0sO0PDiYo4za5xWX2T+i0mbj7IiaBQzvl/w3ud/8uGg0cJDDjIrNa22X8j3/TruLxiKN6DZ7I2/HG+fWaZNpNZvfcYp4L92bvsI1qUyrVnvsd//Qkl3uTDhZs5GhRCWEgAflvm0rtqZuU3mT8IOLUYzdJNBwk+dZrwYF+2zh9CI/tcNTjf+ImUKl2SB3f/Jl2nQ5f1MRycCPZ16T9zNYdOBHH6pA9b5g6ivszjP1QJOEh6NOjplRzH/pQMrNDjJKl4qHqhlbGIsfOz8p7HkRU/sGS7H8EHf+TTsQvZ4eeP39L3qKQCwb4pX+w6yu99Kz1fidJ82i78f+lNZbPaXxPtg0Lxkj1vQQX7BjSpdpPjx++Q+7oeQHt+C5vvtKGvl1NWxy9SrUMHyp7Yid9jCRBxHTCPxX007J7Si+aNW9Dhg7lsjXosaxZDG7mcQe8OZGn4TdZ//A7vTNrJnZAF9H6nG8N+O5fnOb1MQonGNKsSzS3Hj/i/7fvxPbKPzQtG0qJ0rk5ISuZmRBAnzz8o9CVbAhcIPF2ZVs1LUa9VU2KOh5CgMZyGr4t3O4mjh4PwPXyO+h1bm79kx8LzF8tXxVUbzaV7OjQ1hzC95wOWfL6Gyy41qGJGIylW96B5yXCOh5p5+1GsxfuLvqfd3YX0bdOC5l0n4eMynuWfe+IgPOHG9VgqVHFBpSpP58nz+WFgPTTY4lrFmVtXb8ovXxbGxxT58dNz72Qgd+t5FOoyVVP1PycBK8c6vOtdh7uBwdx+9gU55c/C+MmPj2Vkpb8I01dYMs9dKvRJI1nxyUHi0YljRJVoQCPDUaqF8VHpdbgIItEq0OjSmPRUxa92NkTrtIU0CDLef+nO/sJAr5Z4fnGM1As/0b1xI9wbNqHbkqy+SXuKhX070arL9wQV78LEfsnM79sej9bdmB1o0JYZS79Om3kslZh3/onV6Ng8jh8HtKdpm0H8/rQXC6a/TSnDMmjs+K81FRV7TGCM016Gt23Gm83a0vOznzl2J7M0mswfJBL+jmTf/A/p0KIJTTpPwKfsGGYMrpkz1vnGzxr74ra4j91EUHAQgQfWMXf4Wzzv/lVl6DprGR+V9WXyu5681e591quHsnhSS4obHiaf46epVCTr9ZSUtLjrVSTptFSVJJz0Ag/zGxGbw+T5qSj9hsDuYX1ZcLM17zcJ5eOuXxJUrwutnFVISSEsnPYXJcfOZmgNKxxbT+Kb9pf4dvo2bslrEHLJp31QKF4yg0FQCexJID4xnyGL/i67N4XSoHdXXFRkNsgdHPHdFUAigKo8bTvV5cq6+WyIiCE1I434GxGcjzGjhog1catyi4vXJYrXrIE6+jLxhT2jaSFVmXKUsa5Hi8rBfD2gC+3fHsaS2M4smN0Tg8dsQIoncNlkvtgSLfNiwQzCU077RVCr3UDebpHI8eP3MZyKVtftQHvpKIcuZBB3/DCR7t60zbFWqRGf7fAnODCA4MAATizK47kGS8/fthi2T1NIFasy4Iv+JP82hx3XkkjR2FLMjDZO41qNin9Hcy0t9xbjxBodeafKaVYuD+RBBuiTLrHhlz1oO3WnuY2em1dv4exaiWKlPenduQkt+3vjZl2Rqi6PuXY9Wf6SD0vjY4oZ8dPdusoNoRJVK5gRWBNM1n8ArPGaG8Kl82eJOrGRj4rv5LvVkTzN2mqy/IHl8TMjPpaQk/4iTV8hy12tC0pOfHKTniSQoC2GXTGDs7EwPgJgg0CqpKN3ShpPbIqxV1SRAtjKrrxGFEb/9VwKx1atIDRBD7qnPDVcMSUn/YKQd/5JCfiuXsOZBB1S2k12rdpHYov2NDG40STr+K8licRbt0iq7EGXFlWwFzKIv3mDh2aM9HQ3Atl/6jZJWtDFRbHrSDTlKlfINQjKL35J7JnijVf7tjRr3paeX/riOHQJ8/q5oAJUzl708Yxh3bz1nInTIqXdZPfaQ2S07UhDw8cm8zm+TlDxSNLjrNNSTbTmEFrqS3ocJRUP8ywM5pFzftroM5xNiufe3wncCgvjftojHiXZ41gi8wRSz/7G1P/T8/68n1k6ozEBX83mYK7l+ObIs31QKF6y56uApOQkknGghIMKHubVfErE+Wzi8Lgp9Kq9np90HehQ7DDfhWTNcgklKV1Sz/17D2Td+clBsMd75lomNi9FuTIqvDbuYmKpipRIq84ez7P8OnIq22PMPmrhEgSEp0Gs/smHm6kADwhct4tbf7WggdVW7pt50W4RAZ6EHOP8jFm893Al/W/qGPS8/VBTz9sLVxcnfvHrgYSIXQkrxDZObNv2KHMX7VlWjJjEtgeZsVQ3mcimCc++X0CpKaTalqVO32kMk1YzfOsd9E4tscl4QkpexSlPAtZ2dogpT3hi5oWNqqQTJZLuE2M46frgPg81dSllD8k3bvC4QhXqNK9FlZA/2FatAx41z1Gl7B0Cb8o+waJjTvx0KaSk21DMtvA6D9P1HzKfCWrJR3tS0Ni70HzEHBb+puX9/ss5rzVe/szMzheZEx8LmE5/EafvFWc6Pi8S7B1xVCdw6YX1lOaTgDQkaqWn8B9sGGutQtJL2CCQUhjVoCD9V266e1y/bcbVuVz6eB4aXPVLjx/ySKyLk50AKTJibNeJ+Xtn0Moq83+1N/7gw8G/cEFedpr+vqntBSKR6Pc1A1L7MnLUcg58fpv9K5fw09Yo4mVlmECJ+n35ZFQ33nIpBnoJdQkXNKfkFx4pNY7MnlRHzOk1LNzajQ3tmlNy4xYSSpehlFVNRqzxY+izLwhqbFSBOFiBqdtyepVIrJRBda2eRLUNp/Tp9M7QU1xQ8ejZKZqKr5HtgqnzA6Ssflev1/Mk6Qlgj15SIT4PUQbRf63i+Ps/0fXGXKacTMjZ7hn5+3l5oX0w8/sKRWHIHgQlniXydlU8Pcrz29U7eXcEaafYuFPL0l5N8Y1rh/rQ14SnZ22TEnicoKKhcylU/J339/MjJXHoq574eXzFnh4B9JgaRa8VS3CcO4CfLr0aNUB//w73aIxzCRWkZKZO0GhQ6zLIMCuxBZQUyI6doejuHSZaVzr739X18G4LG8d15+cLOkDA6d25/OHdhlLbt2U13hkkPozhftaAUhOXal4+GaH7O5rr4ig+G3mRZcM2ckMHtrXdqHr7KtdlZ6FEekoq+mLFMHdySP/4IXEObpQrJkBiZqOqKlueMtrHPE6S0N28yu3STfFuUYcLAbPwj+/J2M71sUq4zvUkGRcQRcys+KmLU9wqhdvmjhSNkFX/n5PISLpNwF+HuDGgJe4lBM4nGC9/5j7flZtZ8bGAyfSbqF8FTd+rzmR8XqCiTFsv3GPDWPZ8vaTl9CqRm1IaH6WK/J+9DbcAG50WV1HkVu6dLWFO/5XfnZrn9OgLnuQXqRwp46zh2aJHwcmZUto4HifLLHwpx5jdr9fzZ1Ek7RMemXOepr5vanuBpXMvaB0zgzawuG5fvln6CzOT3mbCgVw/oJNX/th4MHnRcDTzPqT/gTukSioqDV3DFrfcO8on6SX0GRnoACn2AY+ehvFHzxFstKQxEAQeouctrcRFGxWXVCKVn2rRqtRZfTem42tku6nzswKQsj6AhPTixI5gT9NPJuJ5eSuHygzni+5+fLL9bvYdLSN//0V5tA9mfV+hKBzZC7l00fy1KpCqY+YwpWt9KpVywrnSG7R4q6rBBamOK9u2cLvVCCZ6adm3+2J2BdDfw9/vCm6Dx9PzDSc0Kg3Fy9akrqvcn9hUUbpqJeKvXiddrEbN8re4Ytli0yIhxR9nZ2BVhk/pTR17EbF4Nd7+oDvlgo8TYTjLIzjRatx8Zr9XLe913QUlxeM7byQT1l/OcTtdXa8jXpoADgTHEBsbS2zsQ6IP+nC5oTdtcywaN8HS8089xe4jCQi3gwh9rMG+UivGjm1PzBE/s9YMp9+6zv1y1almnXuLcbprB9l1uRHDx3hQVgMq+9r0H9UVK589nEwDKfEGN5660cLtLiGhcZwLiaRy65aUvn0Vs24EWRofU8yIn1i5BlV0N7h2z5wTN0FW/c8m2lWkRe9O1Hh4icuJkvzyZ2n8zIiPRUykv8jT96ozEZ9sAhr7ijTqPoUlE2sT/PMfhBdG+yhoOGgloBI1RKgkiuszGJGWwUONhtu597WEzP4r/VEsyS6NaeZiDaiwsrGS2b9lsTT9AIID7YYMpJ69CqxdeGfI2zgE+XLacBWCseNLacTHxHA/6xPzKBmzftvM1PdNbS8QFRXqt6BOaRtU6Ei8e437T9TY2ORMZb75o3HE0e4JMXfjSZNE7Kp04IMebi/GKL/4ia607NKCWuVKYGtTAtfmQxn/XmmCDgWRJIH+oS9bT1Zj6MRuuDlpABXWTtVo2qgyObqy/I6PivsqHY11IlEiPBXVxOsyKCcI2YMgU/E1sl32+eVLoFS7qXzX8QrfT5vFl9O24jz+W4bUMFjrZ+TvZzPSPsj6vkJRuAyeZtFzf/c0hs85S/URS9ntdxSfLUuZ2ME1RyXRx+xjU2RN3nyynz05pmB1RK+exOR9tgz6+QBhYSfxWf8dA92Ly+wkRKpUL8ftq3eRnKtTNfEq157dZXoVSI/YN/NTVqX1YPmREMJ8f+d9m22Mn3WAx4ZTJio7XBs0o1mt0i82sEVGg3vHttic9CPSIGb6GH+OXW9I57alZeYBBTj/ZE4smMiiu21YcugkgVu+pH7Ud0xZe82stem6q0EEJTem1Zu5fjJG3YCP/9iD37ET+MzwwLbhBHad8OXI9mm0LQborrN20lR8Kkxg07GTBO9fROcHy/jo++OZN4Z0N4m+40I1fSghD/SknTlFtEs11Devv/jrZ8ZYHB9T5MZPhYtHC8pHnsTc344wTk79z34m6GzAFr5ufIX5ny0nIsOM8mdx/OTGx1LG0v8y0ldwojaVnxMT+CMlAzv9UxYkJrDuyVPK5N7RIsbik0X9FtN9Iog4upE5fUpy/MshfLbzXs67KhbHRyDItji/qDL4ISGOA4lPcBOLMdNGNH7XRjZ5/VdGyO/M2qFm6J/HOR3sz4HpbbAXQHTtx9Ldhzmx/wta2LozYctR/HYtoE/uNzobSb/oPoo1O3ayfVpr7GoMYvn2neyY0z37mdOMk/yxz5nJm/w45b+B0XY7mDz7AI8Kpf8RqTXkZ/YeOcDXbWypM2otvge38lV7uZOYRU3Awf0/zNl0hJCQEEL2zuSN0B9YcCAuxx2L/PKHZD9+XXaLdst8CT15mE1T3QjdF8wLlxj5xk9FuTbjWLblMCEhvmz6qjWPfv+Y/+6KySx/+hh2fTGWlaldmbfjBBGnAzm64TsGN3QyvMgyevwHgoSdqOa8AJJKzRlBQqVSUSgr7eWeXz7ECt34ZnojAmZ+y4GHetLOrWDaaoEPvx9NA8Nn0oyR0z4oFC+Z4PrRKglAfeSH3NvyJjjRY+lWuvj1Y9TWBy/eMlUoCkSk1ugNrHxjLT3G7/nXLzMym1U9Jm5ehPPinkzze73e4aFQKBQKhULxqpAzCWBAwOGtEbxf25/1B5UBkKIo6Li89ju2lf+Aj5u/KrOQrwo1VftNxPvaQhYfUwZACoVCoVAoFJaSfSdIrDKIX1eOop42mi2zJrPQP1a5jalQKBQKhUKhUCheO89/Hc4U3Y11fNh+Xe5/VigUCoVCoVAoFIrXipnL4RQKhUKhUCgUCoXi9aYMghQKhUKhUCgUCsX/FGUQpFAoFAqFQqFQKP6nKIMghUKhUCgUCoVC8T9FGQQpXg9iLUasPsxxP19OBIVxdt1Qcr+HUKFQKP6VNB7MOrqTCXXNewWq4mUTKO4+hEVb/QgNCyXi5C7+2zzXi78Vin+KIJHxQSJPmkoo7x/JlOsy0prKXp+w9C8fTkeEExFwmB3LR9K4WM69ipLg2IPlu6bwplqk9scb+b2v8yuRV6L7RA5GnePS+Vyf8KV0K55778Jn5b2AM+fOsH10jcw3TQv2vLMomItR2xlX26BjVLszeW8kYcu64WQQOKFMP1afXs2g568fB43HTPyPTKOp7N8INE5wbMLIxdsJCI3gTOBeVn7eARdLjm1Tn0837+BrT4fsvNddZsWwjrRu50W3eafIMNz/X8J0/ERcB/7OgUXvUqFIBoBG6r+qLANWRXDp/DkunoskKtiHbT+Np0MlTc5D5FP+CoPp+BSUkfQ/U1TpEyR0bVJJ/iGBuD/jiFuVQNLwdPSG6SuXTsoXicSvjSduRSJJAzJybhckdM3TSJ4XT9wPaegKvYzkHx+hTD9WR5zj0rmznA8LwGfTYiZ1rYVdIcbIqrI3U37bQ2DIKU4f38Gv49tTMVfxK2qi2zh2bhxJ9aIYi6gcqOU9hoXbAojcXER/I18itYYuZ5+PP2GRZzkfFsjxg9uY6fV6vautqPJHdv8vONP100+ocXoqHd9qTKM2/2FxaJrBDv9SBv3DpXNRnA87waF13zO0UQkE5LUPQrHa9J65ioMBoZwND+LE/g3M71M983rnNaDrlQJ9vh4AACAASURBVEjc5PS839/n+JSkP+N4vDmOx+viif8+mZRWOqTclUvUkrI4jrgp6S9uk8M+neSFqWhF0PVJIqlj9otsJPdUkpYmkNxWT/roBOJWJJFaO2ujnP7nX8qgmxRwajedVbM9ebBmHO94euDZfSRfrzxKdGr2XkXNukETqp0/xQV9ad5sKBEW/jjvQvWS6aIW0aVhfdzcn30a0GqaL7FRp4hIyb13UZBIj4nFqWXLzAtgmya0bpjE3w9zvq1J7daRttIV7rp3pLWjJbXIQoIDXlPm0l+3ng+8muM5bAvqvj8wd6CrmY2YSPWBU+jzYBVLAxJfibx/KWTFT8fNzT9ywHUCE71KFvLFiZz6/xSfz5tSp14jmnb5hL/03fhhapccg4EiK3+y4lMQctJfhOkDJFsBzZ/FKTnUkZJf2CI0TuFJ66z6LepI/SwV3cViOAwvieNUW0T3JyS/q3v+fV2vZJK66FFHqBEKveLIiI/2FLO8GuDu2Ytxq2/TaOpKlvYvpPxRuzF60ZfUC5vBux5N8egzn6se37BoeM3COb5MVhUrUbbQB5cAIrVGLmf54LKc948iKfdmACSkQs/XZ3RcXjOGLl6d+OpYKhd/HUy7Tr2Y6fN6vZS5qPJHdv+vcqJMaR2XToXzWAdS+hNS/o0zdnnKIHh2e96oW58GbfrzVVBFxs7/hGbWWZuNtg8ib3zwA1/Uv8LcwR1o6tmF/hMWsyn0Htkt3GtOp6bYGEecPnSg+G4R7bAkkr1zvW2zWgYZkoiqRjrp9jk3ySHVykB3XY2o16OtDepLWZVB1JE2LB1hkwP2R0SsFpXE8TM7rK8bfNdY//Mvlt1ciFXoPcabB799znd7zhGTnEpy7HXCT10mQQJ1vfHs8Z1FG7vsL4s1RrEtcCndn10FiWVoOWoeGw8GcCYynNM+fzK9g3Pu2015Utcfw7o9e9j3bRfKtvyc7Xs38FmTqvRdvJ3VI+u+1I4ub3p0Ol32h8r06O/O6Q27uG1YTlQu/GeFP74zPCjcm+AC3Aonspwnns4qrBu2ovHtcKJyNLBq6nZsh+S7iDVR7nRq7Wj+hbKl52/TlM6e9/lz8XYuxuup3LEzrrGxVHm7I67mZJ7anT69y3N88yFizex91eVa88niLRwNPEnIsd2smtaNmsUAHOi+LIgVvXLHQ8R9wk72T2og/4VZlsbHFLnxy7jA1h13adPPmzJyKpZcJup/DpKO1Efn2XPkPGLZcjg9Pw8Z5c/S+MmNj6Vkpb8I0ycJqA/YYB0pImSAcE+DVTToy2b98fIZZDiqsd6tRqUDHmmw3WCFvnU62qz0izvsKTmjGDYXBctmEY2RFR8ACV1KDOf2L+DTOWHUHTGMHKuB8o2PgFOL0SzddJDgU6cJD/Zl6/whNLLPTIjo6kmbMgGsWh3GI61EeswJlvx4iNLvdsWtMPIfjPZfYr3RrPcJIHB+J0q6jWVnaDhREafZNS6rb1K/xcTNBzkRFMo5/294r/N/2XDwKIEBB5nV2jb7b+Sbfh2XVwzFe/BM1oY/zrfPLNNmMqv3HuNUsD97l31Ei1K59sz3+K8/ocSbfLhwM0eDQggLCcBvy1x6V826hDaVPybK13P5xs94/68q1535Ow9y/NhaRtQoztsLg4mKCOeM75d4GN6tzO/4cstPAQj2dek/czWHTgRx+qQPW+YOon5W+q2853FkxQ8s2e5H8MEf+XTsQnb4+eO39D0qqUCwb8oXu47ye99KmfEU7Gk+bRf+v/Sm8gv1TyIj6Q7BO325WsKVyjluB+fXPoiUcylH3OlDHLsWR8qTx9y5GMSpay9xBv5lSVOhDrSl+Bo12p5pZFhlb9I2y4BTtthE60h/M3fHa0TNNBIXJZLwcQb6BikkLk4ixU3H00mJJPXUARKSCBheqyaoUKVn/bep/udf7HkLKtg3oEm1mxw/fifPkbf2/BY232lDXy+nrI5fpFqHDpQ9sRO/xxIg4jpgHov7aNg9pRfNG7egwwdz2Rr1OEfc86ONXM6gdweyNPwm6z9+h3cm7eROyAJ6v9ONYb+dy/Oc/km2TQbQt+RB1vvF55wpk5K5GRHEyfMPCn3JlsAFAk9XplXzUtRr1ZSY4yEkaAyn4evi3U7i6OEgfA+fo37H1uYv2bHw/MXyVXHVRnPpng5NzSFM7/mAJZ+v4bJLDaq80EjmT6zuQfOS4RwPNbPxE2vx/qLvaXd3IX3btKB510n4uIxn+eeeOAhPuHE9lgpVXFCpytN58nx+GFgPDba4VnHm1tWb8suXhfExRX789Nw7Gcjdeh6FukzVVP3PScDKsQ7vetfhbmAwt599QU75szB+8uNjGVnpL8L05SbVeMrTOiqsQrOaaBVIeiHHHR4hWUAopUf/LP3PTjy/K+gCkBWfHCQenThGVIkGNDIcpeYbH4mEvyPZN/9DOrRoQpPOE/ApO4YZg7Pu9IgiKp0WrUFnkpGYQEq5SoW0JM54/6U7+wsDvVri+cUxUi/8RPfGjXBv2IRuS7L6Ju0pFvbtRKsu3xNUvAsT+yUzv297PFp3Y3agQVuWb/oBnTbzWCox70k/sRodm8fx44D2NG0ziN+f9mLB9LcpleMa08jxX2sqKvaYwBinvQxv24w3m7Wl52c/c+xOZmk0mT+mytczMuOXu//X39/JpO6daN1mCL9HJ7FvQjPcGzaiQfvZBBoeKL/jyy0/llKVoeusZXxU1pfJ73ryVrv3Wa8eyuJJLclczaei9BsCu4f1ZcHN1rzfJJSPu35JUL0utHJWISWFsHDaX5QcO5uhNaxwbD2Jb9pf4tvp27j1QoOgwtqpBl6DulD9VhhnXphFgxfbhwwiDh9F1WUCU3s2wNlgYPBvpQrXoC6uRVs+6x9ELelNQBOswSpYRNcsA33u/iU/V2xwmGCP7UUV1nNKUGKRFaqztjh86oD9dhF0amzWadAPSySprQ5dgwx0JXIfJNsL/c+/mMEgqAT2JBCfmM+QRX+X3ZtCadC7Ky4qMhvkDo747gogEUBVnrad6nJl3Xw2RMSQmpFG/I0Izse8UEPyJ9bErcotLl6XKF6zBuroy8TnVX/+aUJpOg3pRNzWTbyw3FeKJ3DZZL7YEi3zYsEMwlNO+0VQq91A3m6RyPHj9zGcilbX7UB76SiHLmQQd/wwke7etM2xVqkRn+3wJzgwgODAAE4syuO5BkvP37YYtk9TSBWrMuCL/iT/Nocd15JI0dhSLM8ePW8a12pU/Duaa7njaoJYoyPvVDnNyuWBPMgAfdIlNvyyB22n7jS30XPz6i2cXStRrLQnvTs3oWV/b9ysK1LV5THXrifLX/JhaXxMMSN+ultXuSFUomoFMwJrgsn6D4A1XnNDuHT+LFEnNvJR8Z18tzqSp1lbTZY/sDx+ZsTHEnLSX6Tpy5IxKoG4NfHETU9H2GaHzeWs4/+tRpOWwdN2WevIS2pJey8dvSjlaAOAF/+/EMiJT27SkwQStMWwK2ZwQkbio7sRyP5Tt0nSgi4uil1HoilXuQIioLsRTPCTlvTvVYviKrAq3Yiho7tSSRQRCyO9hdF/PZfCsVUrCE3Qg+4pT7UGm4yk/zlByDsLpQR8V6/hTIIOKe0mu1btI7FFe5oY3iiQc/zXkkTirVskVfagS4sq2AsZxN+8wUNjI5VcjJWv5+TEz1j/b4qc4xsrPxZSOXvRxzOGdfPWcyZOi5R2k91rD5HRtiMNsyYRtNFnOJsUz72/E7gVFsb9tEc8SrLHsURmaUw9+xtT/0/P+/N+ZumMxgR8NZuDOZbja2j2pS8XzkUSduh3Pq0ayszPVnIpn4TmbB8kHh+ZQf/P9qPuNpd9hzcyb4QnFf/Ng6E0FYJOQnp2S7B6BhmSBqvrIIRbIdZIJ8MhxzeMU+nQVVChvgdSZR3cFlEZXNioThfDYawDxaIEJLc0kn5M5EnTnO15vv3Pv9jzVUBSchLJOFDCQQUP8yq1EnE+mzg8bgq9aq/nJ10HOhQ7zHchWbMUQklKl9Rz/94DWXd+chDs8Z65lonNS1GujAqvjbuYWKoiJdKqs8fzLL+OnMr2GLOPWmTE6u8xuMEZ1s24bqQhKwICPAk5xvkZs3jv4Ur639Qx6HkZVVPP2wtXFyd+8euBhIhdCSvENk5s2/YocxftWVaMmMS2B5mxVDeZyKYJz75fQKkppNqWpU7faQyTVjN86x30Ti2xyXhCiuwgCVjb2SGmPOGJ7FFJJlVJJ0ok3SfGcNL1wX0eaupSyh6Sb9zgcYUq1Gleiyohf7CtWgc8ap6jStk7BN6UfYJFx5z46VJISbehmG3hNVCm6z9kPhPUko/2pKCxd6H5iDks/E3L+/2Xc15rvPyZmZ0vMic+FjCd/iJOXxb1entKbAOpnJanA5JJKmGHw19qyFBju9CGlGFPSOgjQawamwANKldQFcJFkimm4/Miwd4RR3UCl/KcCc5NoET9vnwyqhtvuRQDvYS6hAuaU1llPD2cJROWMfW/C9n3UTGe3g/lr32B3KuVxgMzLoTzVZD+KzfdPa7fLoyTykUfz0ODq37p8UMeiXVxshMgRUaM7Toxf+8MWmVdWGpv/MGHg3/hgrzsNP19U9sLRCLR72sGpPZl5KjlHPj8NvtXLuGnrVHEy8owE+XLDEXe/+dXfkzF18h2oXQZSlnVZMQaP4Zm7Y6gxkYViEPW/lJWv6vX63mS9ASwRy+pDCYZMoj+axXH3/+JrjfmMuVkQq52L4Pg2Z0Y9meMrDr0YvuQwf3gdcwM3sDiN7rw8Vc/8IfLf+k+058kGcX7tVNMjySqUCVn/q+2WTq6shLJv6YDElJxoLEea18Td2MEifSRSaS6S+idJNK/S4QSOqR0HQkN1dh8a4f146x9n6oQH6lQHymObYVkEjplYHvK+vlgKd/+518sexCUeJbI21Xx9CjPb1fv5F2I006xcaeWpb2a4hvXDvWhrwl/vqYwgccJKho6l0LF33l/Pz9SEoe+6omfx1fs6RFAj6lR9FqxBMe5A/gpv2mEf4wtzQe+h9ORmRx49A/UzKRAduwMRXfvMNG60tn/rq6Hd1vYOK47P1/QAQJO787lD+82lNq+jcxhUAaJD2O4nzWg1MSlmpdPRuj+jua6OIrPRl5k2bCN3NCBbW03qt6+ynXZWSiRnpKKvlgxDCeP5dA/fkicgxvligmQmJkvqrLlKaN9zOMkCd3Nq9wu3RTvFnW4EDAL//iejO1cH6uE61x/BVpYs+KnLk5xqxRumztSNEJW/X9OIiPpNgF/HeLGgJa4lxA4n2C8/Jn7fFduZsXHAibTb6J+FTR9zwjJKoRk4KEVtgfTiX9bi26rGlEPwg1r7GY+e8oYdL0TSbtsi1gI6TfFZHxeoKJMWy/cY8NY9ny9pBE2HkxeNBzNvA/pf+AOqZKKSkPXsMXt2Q4SKZe2MmPY1qz/V1P7ow0MPfMrFwpjEGhO/5XfnZrn9OhlJNlsKkfKOGsg69JbcHKmlDaOx8kyC1/KMWb36/X8WRRJ+4RH5pynqe+b2l5g6dwLWsfMoA0srtuXb5b+wsykt5lwINcP6OSVPybLl1wvo//Pp/yYiq+R7VLsAx49DeOPniPYmEdjZQUgZX0ACenFiR3BnqafTMTz8lYOlRnOF939+GT7XQsHgsbaBx1xF3Yzf2Ubeo5rQhWVP1G5d/kX0DfOQBuvxjaG50vhbOY5YHM9c7vU6gmJzTLQ+2UPUvIkCVj96oBV/RQS2mpwWCry9MsnSGvtsb2ZtY8goaurg7ti1koCHRnueoQHqlxLrPPvf/6tsoeYumj+WhVI1TFzmNK1PpVKOeFc6Q1avFXV4IJUx5VtW7jdagQTvbTs230xuwLo7+HvdwW3wePp+YYTGpWG4mVrUtdV7k9sqihdtRLxV6+TLlajZvlbXHlxsek/TnDuzOBOSWzbEEyeK3UFJ1qNm8/s96rlva67oKR4fOeNZML6yzkaH3W9jnhpAjgQHENsbCyxsQ+JPujD5YbetM2xaNwES88/9RS7jyQg3A4i9LEG+0qtGDu2PTFH/PJYM5y/9FvXuV+uOtWyr/Vk0V07yK7LjRg+xoOyGlDZ16b/qK5Y+ezhZBpIiTe48dSNFm53CQmN41xIJJVbt6T07auYdSPI0viYYkb8xMo1qKK7wbV75py4CbLqfzbRriIteneixsNLXE6U5Jc/S+NnRnwsYiL9RZ4+UUdGUy26UhKSRkIqn0Faey3CTRHVsw5IBATAWo+2fQrJnQRsdmhktq8FZCI+2QQ09hVp1H0KSybWJvjnPwg3nNTOLz4aRxztnhBzN540ScSuSgc+6OGWcx9RjVoAlW1ZGvaawdz+aaz6/RhZE6kFI7P/Sn8US7JLY5q5WAMqrGyszIt/fumXQ3Cg3ZCB1LNXgbUL7wx5G4cgX04bLskydnwpjfiYGO5nfWIeJWPW+NHU901tLxAVFeq3oE5pG1ToSLx7jftP1NjY5Exlvvkjp3yB8fgho/83xcTxjTIVXyPb9Q992XqyGkMndsPNSQOosHaqRtNGlZHX1QqUajeV7zpe4ftps/hy2lacx3/LkBrmPpCXT/ugcqZBm+bUqVASW1GFlVNdend7E+3Vy9x9nS7A1RKSncEnr+Da6dG2SSF5kA7NX9aotWQuhVNr0JxVoYrP/IhBVoi1M8gw8uyOIX1FPcIdFYKoQ+esQrxvuFVC91YqyXMSSO6sJX1QCulxNhRfl9V/yOl//qUM7rPpub97GsPnnKX6iKXs9juKz5alTOzgmqOS6GP2sSmyJm8+2c+eHFOwOqJXT2LyPlsG/XyAsLCT+Kz/joHuxWV2EiJVqpfj9tW7SM7VqZp4lWvP7jK9MkRq9hlI47Mb+etKPldeKjtcGzSjWa3S5jdyFtPg3rEtNif9iDSImT7Gn2PXG9K5bWmZeUABzj+ZEwsmsuhuG5YcOkngli+pH/UdU9ZeM2umSHc1iKDkxrR6M9dvG6kb8PEfe/A7dgKfGR7YNpzArhO+HNk+jbbFAN111k6aik+FCWw6dpLg/Yvo/GAZH31/PPPGkO4m0XdcqKYPJeSBnrQzp4h2qYb65vUXf/3MGIvjY4rc+Klw8WhB+ciTmPvbEcbJqf/ZzwSdDdjC142vMP+z5URkmFH+LI6f3PhYylj6X0L6BNB5pJI8L4G49fHEf5OK9q4txdcYDHLqpxD/RzxxK5J44gE2c4pjc8vgGDXSSFqQSMLwDKRKT0men0jCJ+nyH641ylh8sqjfYrpPBBFHNzKnT0mOfzmEz3bey3lXJb/4JPvx67JbtFvmS+jJw2ya6kbovmAMuwCNx3SOhoYRfmwTs9/OYMPHY/m/y3ksG7KIvP4rI+R3Zu1QM/TP45wO9ufA9DbYCyC69mPp7sOc2P8FLWzdmbDlKH67FtAn9xud80s/ILqPYs2OnWyf1hq7GoNYvn0nO+Z05/mr3TJO8sc+ZyZv8uOU/wZG2+1g8uwD5LghYeT4xonUGvIze48c4Os2ttQZtRbfg1v5qr3cScyiJuDg/h/mbDpCSEgIIXtn8kboDyw4EJfjjkV++SOnfAEm4iej/zcln+PLLj+W0sew64uxrEztyrwdJ4g4HcjRDd8xuKGT4UVgvsQK3fhmeiMCZn7LgYd60s6tYNpqgQ+/H00DuT9eZ7R9sMKl3Uf8uH4fJ0PDOLXvR7qnb2LC7AM8Nqd//odJb6YQvzqeuKxP/HiD9waJWlKWx/H410SedJDQ/GyP3bHM6GubZyBFalAbNmePNFjd1ZLeWN4oROeiR3VHBY569MkiYo4f5FBhtcqeEiNLYr9fjdVPDtj/bo36SdZ2Of3Pv5Tg+tEqCUB95Ifc2/ImONFj6Va6+PVj1NYHL94yVSgKRKTW6A2sfGMtPcbvKbRlRv8aVvWYuHkRzot7Ms3v9XqHh0KhUCgUin+OvuFTdH9bo4nJveV/k5xJAAMCDm+N4P3a/qw/qAyAFEVBx+W137Gt/Ad83PxVmYV8Vaip2m8i3tcWsviYMgBSKBQKhUIhnypCGQAZkn0nSKwyiF9XjqKeNpotsyaz0D/W+MOjCoVCoVAoFAqFQvEKkv3bd7ob6/iw/brc/6xQKBQKhUKhUCgUrxUzl8MpFAqFQqFQKBQKxetNGQQpFAqFQqFQKBSK/ynKIEihUCgUCoVCoVD8T1EGQQqFQqFQKBQKheJ/ijIIUrwexFqMWH2Y436+nAgK4+y6oRTWe+QUCoXilabxYNbRnUyo++IrPBWvACV/FIrXUq7LSGsqe33C0r98OB0RTkTAYXYsH0njYjn3KkqCYw+W75rCm2qR2h9v5Pe+zq/Mu2LE8m0Yv2w7J4JPE3HyIH/O7kvd4i/n7Ky8F3Dm3Bm2j66R+aZpwZ53FgVzMWo742obNLxqdybvjSRsWTecDE5NKNOP1adXM+j568dB4zET/yPTaCr7NwKNExybMHLxdgJCIzgTuJeVn3fAxZJj29Tn0807+NrTITvvdZdZMawjrdt50W3eKQrrPfGvEtPxE3Ed+DsHFr1LhSIZABqp/6qyDFgVwaXz57h4LpKoYB+2/TSeDpU0OQ+RT/krDKbjU1BG0v9MUaVPsOeN7pNYtvkwp8LPEHlyP2undaayQXitKnsz5bc9BIac4vTxHfw6vj0Vn2/XUMHjA75fs5egsIjM73/ZlWrW2d8vuPzjI5Tpx+qIc1w6d5bzYQH4bFrMpK61sCusGMmIz8sguo1j58aRVC+Ka12VA7W8x7BwWwCRm4vob+RLpNbQ5ezz8Scs8iznwwI5fnAbM71er3e1FVX+iO4TORh1jkvnc33Cl9KteO69/wcZ9A+XzkVxPuwEh9Z9z9BGJV6r8qP432NwKSXg1G46q2Z78mDNON7x9MCz+0i+XnmU6NTsvYqadYMmVDt/igv60rzZUCIs/PGr8VJIoQRdpn5Pl8fL6Nv6LRq//TkBrhOZ836dzEFJkZNIj4nFqWXLzAtgmya0bpjE3w9zvq1J7daRttIV7rp3pLXjS2x+BAe8psylv249H3g1x3PYFtR9f2DuQFcz4yNSfeAU+jxYxdKAxFcj718GWfHTcXPzjxxwncBEr5KF3LnIqf9P8fm8KXXqNaJpl0/4S9+NH6Z2yTEYKLLyJys+BSEn/UWYPsDWLoUTi0bi3bwJHgOWEdNmJl92y5oEUrsxetGX1AubwbseTfHoM5+rHt+waHjN55MiNd6qyuPtM+jn5YHnwEXcaj6Dr/u45J7pspCM+GhPMcurAe6evRi3+jaNpq5kaf/Cyh8T8XlJrCpWomzhBDQXkVojl7N8cFnO+0eRlHszABJSkTWIOi6vGUMXr058dSyVi78Opl2nXsz0eb1eylxU+aOLWkSXhvVxc3/2aUCrab7ERp0iIuXZXkWZP6+DDIJnt+eNuvVp0KY/XwVVZOz8T2hWqBMxCkXhym4uxCr0HuPNg98+57s954hJTiU59jrhpy6TIIG63nj2+M6ijV32l8Uao9gWuJTuz66CxDK0HDWPjQcDOBMZzmmfP5newVlWJ6yuP4Z1e/aw79sulG35Odv3buCzJlXpu3g7q0fWLbSO1HIaihVTcTM8lL+fSujizxNyIQErW5ucnbDKhf+s8Md3hgc2hv9eYALcCieynCeeziqsG7ai8e1wonLcElFTt2M7JN9FrIlyp1NrR/MvECw9f5umdPa8z5+Lt3MxXk/ljp1xjY2lytsdcTUn89Tu9OldnuObDxFrZoeiLteaTxZv4WjgSUKO7WbVtG7ULAbgQPdlQazolTseIu4TdrJ/UgP5L8yyND6myI1fxgW27rhLm37elJFTseQyUf9zkHSkPjrPniPnEcuWw+n5ecgof5bGT258LCUr/UWYPimJsD9/ZkPgdeKeZpB8/QiHo6CCS2b7Kbp60qZMAKtWh/FIK5Eec4IlPx6i9LtdcRMB6THHF3/JvB2h3IxLIfGaL3uCk6hcrWLhtJ2y4gMgoUuJ4dz+BXw6J4y6I4bR3DAQRRSfQmGk/xLrjWa9TwCB8ztR0m0sO0PDiYo4za5xWX2T+i0mbj7IiaBQzvl/w3ud/8uGg0cJDDjIrNa22X8j3/TruLxiKN6DZ7I2/HG+aSrTZjKr9x7jVLA/e5d9RItSufbM9/ivP6HEm3y4cDNHg0IICwnAb8tcelfNLN0m8wcBpxajWbrpIMGnThMe7MvW+UNoZJ+rBucbPz06nS77Q2V69Hfn9IZd3DaYh7Q4f+SWnwIQ7OvSf+ZqDp0I4vRJH7bMHUT9rPRbec/jyIofWLLdj+CDP/Lp2IXs8PPHb+l7VFKBYN+UL3Yd5fe+lZ5PujSftgv/X3pT+YUGRiIj6Q7BO325WsKVyoV2O1ihKHzPa6hg34Am1W5y/PgddIZ7ZNGe38LmO23o6+WU1fGLVOvQgbInduL3WAJEXAfMY3EfDbun9KJ54xZ0+GAuW6Mek/NeRd60kcsZ9O5AlobfZP3H7/DOpJ3cCVlA73e6Mey3c3me00slPWL/bxuwHzyT4c1qULfrZMa5nWTBH5Foc+yXzM2IIE6ef1DoS7YELhB4ujKtmpeiXqumxBwPIUFjOA1fF+92EkcPB+F7+Bz1O7Y2f8mOhecvlq+KqzaaS/d0aGoOYXrPByz5fA2XXWpQ5YVGMn9idQ+alwzneKiZtx/FWry/6Hva3V1I3zYtaN51Ej4u41n+uScOwhNuXI+lQhUXVKrydJ48nx8G1kODLa5VnLl19ab88mVhfEyRHz89904GcreeR6EuUzVV/3MSsHKsw7vedbgbGMztZ1+QU/4sjJ/8+FhGVvqLMH05iZSs9x/6vXkP32PXMs9HFFHptGgNGtOMxARSylUyWBJnQHTBvW5xbkbfyj89ZpAVnxwkHp04RlSJBjQyHKUWVXwKzHj/pTv7CwO9WuL5xTFSL/xE98aNcG/YhG5Lsvom7SkWQs8ltQAAIABJREFU9u1Eqy7fE1S8CxP7JTO/b3s8WndjdqBBW2Ys/Tpt5rFUYt4DV7EaHZvH8eOA9jRtM4jfn/ZiwfS3KWVYBo0d/7WmomKPCYxx2svwts14s1lben72M8fuZOa+yfxBIuHvSPbN/5AOLZrQpPMEfMqOYcbgrDupz8iMn22TAfQteZD1fvHZd8oKkj9yy4+lVGXoOmsZH5X1ZfK7nrzV7n3Wq4eyeFJLMlfzqSj9hsDuYX1ZcLM17zcJ5eOuXxJUrwutnFVISSEsnPYXJcfOZmgNKxxbT+Kb9pf4dvo2br1QAVVYO9XAa1AXqt8K48wLs2gKxavj+QS4YF8CexKIT8xnyKK/y+5NoYzs1xWXPWu5LVSjYwdHfBcFkAigKk/bTnW5sq4HGyJi0AOpNyKIz3UYo8SauFW5ReR1ieJeNVBHHyX+lak/EknndrPx0hImfzWfwaVsObt0MsH3c7UAUjyByyYTmPNfC4fwlNN+EXzQZSBvuyZyfOp9XAZkb1bX7cD/t3ffcVEcfwPHP3t3IEUsiB3F3mvs2EXRGHtssRtrjJrYjS2a+DNqjLHE2BK7sfdeAFGpCmKPBcEOggLSVLjb5w+KR7s7OHjEOO/Xiz+42d27+e6UndnZuzbyOabdjiPs6RmuTXSklfUh9r1MDKKqLpMOXmBc0ilWmZM3cm/y/kDWP7+5BeZvY4hVlqXfzL5ErRvCwQd1cDAxxyLdHj19JnblKPn8Pg/epE7RTVmhHV+Uucz6Ee68iAPi7rBjzVEGrO1K40VuePs/onCrUljYVKFnh/pUjnlGtb3HKGv7igcBUYYv+chqfPTJRPzUj/wJlNpStoQS7qbpgbJEb/0HIA8Oi725sxiQ4wi59DdTN13jbWKq3vIHWY9fJuKTFYbkP0fzB4ApreadYFGHAuTlKSd+n8oav4SKoA70wit6CX17VMJ3913eWddlwOhOlFLeQpl6IIYZVQb/yNdWh5h4JMigSSh9DIlPanJ0BBHxFlhaaH3AHIqP0bKj/0oWg+vG9fhEaIC3yfUDMCz/kpT2DiOAHIHzps1cjVADDzm88Tij/mpDffNjnEpakmXI8T9KMq8fPSKytD0dm5xni2sA4Q8DU2+kkzrQnROBif+EXefw2fsMrFoCJXffD6QNiZ9kQ/tB7QnbNxgf7eKXbedHR/nJIkVhB3o1C2Zb7+1cDUv4fEe2nOab5e2oY3IRbyD+/lVuRIZT/nkEj176EvRGyctIKwrmlyAYYm+sY/rf9dn065+0yVcMtzn9OZViOb4JjWY5c3umTHxsKAG+J5g7aQN3sqeLEoQckTwIkqMiiSIf+fMpICS9UisT5rSLM+On0aPydv5Qt6WtxRkWeCfOUkgFsCmgIejZi8x3upIVjnO3MLFxIYoVUeCw8zATC5Uk/5vyHG12g7Ujp3MgONNHzV4KW3otXU8f/xl06ezFa5vGjFq4lI2FJvHV8qtkU1esmwTR3q7cmvMzX4ZsoO9DNQOSe0sVNRwdsLO1Zo1LN2SUWOY3RdnSmv37XyZsEn+D9SMms/9FQixV9Seya0LS/kaKjSHWvChVes9giLyJofueoLFuillcNDHpFad0SeSxtEQZE020waOSBIoC1uSPDCJYe9L1RRAhJtUpZAVRgYG8KlGGKo0rUcZ7K/vLtcW+4k3KFH2C+0ODP2DOyUz81DHEvDPDwjzdS6Us0V//IeGZoKaMORqDiZUtjUcsYum6eL7uu5pb8brLXyZPZ1qZiU8W6M9/DucPgHd4LP2KbmvNKVD6M3pNWM3WQuP4atUN3r27wooJq5j+w1KOj7HgbZAPe46786zSm4RBfzIzKvRezOpB71g9cikekdnzyfTHJy3JqiAFVRHcybaZYB3xSb1pZhnTf6WmfkbAY133EbJIE05IyPvjyq9CeKmsjrWlBDEGxNiyPUuOzaG5acK/8YFbGT5wDbcNO53699eXbhSZ1y7z6Bfbm5GjVnNy6mNObFjBH/uuE27QCZPIX6s340Z1oYGtBWhkVPltMbmU+TZUWf5LBta+yrY5ASnvQhp7fpJkVH70xVdHumRThEKmFRmx2YXBiZsjqTBTuJMvcXs5sd/VaDRER0YDVmhkhdYkSxz392zk/Nd/0ClwMdM8IlK1e3F4zW/PkH8SJhHS0PH5DEoXhBzwfhD0+gbXHpelmX1x1vk/Sb8Qv7nEzkPxrOzREOew1qhOz+NKUu8jR/AqQkGdwoVQ8Dz9/TMiR3L6x+642P/I0W5udJt+nR7rV1BwcT/+yCXTCFKBxrSvF8jeOd68VAPBnqxd40rPeR2otuoqvinWxOWgSHcOHvJB/ewM99U2719X1cCxFewc35U/b6sBCevOi9nq2JJCB/aTMAyK43VIMEGJA0qTsNjMnScd1M/vE6AcxaSR/7JqyE4C1WBeuRplH/sTYPAplHkXE4vGwgLtyWNDaF6FEJavGsUsJHid0DQrihanSPwrXkXKqB/689imIY5NqnDb7WcuhHdnbIdamEYEEJBNF4rGyFT8VHnJaxrD48yOFHUwqP4nk4mLfIzbntME9mtKzfwStyJ0l7/MPt+VWqbikwV686+nfhmbvyRvI17wPAKeP3vE8p3tONe/GXZrbnBPLRNzZx9zhuxL3FJF5TE7GHx1LbeT2h7JkuqDf+fP/m9ZM3I8O+5m39SM3vikoaBIKwdqhvqyKnm9pPEyjk/qLTMpM/1XRndqkmnQGPt50qMoSJHCJpB46S1ZF6ZQfBivogwsfDGuzO/TI/lZFDk+OqEvM5S+/fWlG+0dzzy3MddzB8ur9+anlWuYG/k5E06m+gKd9M6PmT1Tlg3F5Nfh9D35hFhZQanBm9lbLfWG+pjTuP+XWJ+dy0ntO8Bg/PlJlkH50RdfHely6AtevvVla/cR7EynsTIFkBP/ABk57cSOZEXDcRNpdncfp4sMZWZXF8YdeGr4clQdn8+gdEHIAe+f2lPfZ89Gd8p+s4hpnWpRqpA1hUtVpUmDsloXpGru7d/L4+YjmOgQz/Ej/76vAJpnXHC5R7WB39O9qjUmChPyFq1IdTtDv2JTgU3ZUoT7B/BOWY6KxR9xL+1i0w9Gjn7Mo4jytGhTDgsFkKcELTs2wuKhP8+0e0zJmubjlzD/y3Lpr+s2lhyO868jmbBd6xY+oKrRDgcTN056BRMaGkpoaAj3Tzlxt44jrVIsStYjq58/9hJHzkYgPfbE55UJVqWaM3ZsG4LPuqSzZjhj7x4FEFSsfKa/2lf94BSH79Zl6Df2FDUBhVVl+o7qhKnTUTzegPw6kMC31WhS7SnePmHc9L5G6RZNsXnsT6ZuBGU1PvpkIn7K0hUoow7kwbPMfHA9DKr/7yktS9KkZ3sqhNzh7mvZ8PKX1fhlIj5Zoif/OZ4/VRkat/2MCsUKYJHHjAJlmjGkRx0i79zmeVL+lCpUEijMi1KnxxwW933Dxr9ciQKQCtDg2zWs6xfNqrGzOPREgYWFBRbmedJZLpcFeuLznoSJVUnqdp3GiomV8fpzK1e0J7VzMj7GMLD/evcylCjbejSyzQMoMDUzNbB/S5TV/ANI+Wg9qD81rBSQx5YvBn1OPk9nLmuPdXUdX35DeHAwQYl/wS+jUj7Pqo++/fWlG0VBiVpNqGJjhgI1r58+IChahZlZylxmeH5MClLQMprgp+G8kZVYlmnLsG7V0sZIV/wAqXAHBraPZP8OL9I8qWPs+dFHX3x1pGtCnNnnUY7BE7tQzdoEUJDHuhwN65bGsK5WolDr6Sxod49fZvzMrBn7KPz9/xhUIb0HEjOg4/MZlC4IOUDrq0s0BB2ZwdBFNyg/YiVHXM7htHclE9vapagkmuDj7LpWkc+iT3A0xRSsmvubJjPluDkD/jyJr68HTtsX0L9mXgM7CSVlyhfjsf9T5MLlKfvanwdGr3HIRm+9WTb5byK7rMbZw4NLTpsYZXmY72YdIEh7EKSwxK52IxpVssl8I5dlJtRs1wozDxeuacVME3wB14A6dGhlY+A5wIjPH8XF3yay7GlLVpz2wH3vLGpdX8C0LZl7cFnt74lnVD2af5bqu41Utfl261FcXC/iNMce8zoTOHzRmbMHZtDKAlAHsGXydJxKTGCXqwdeJ5bR4cUqxvxyPuHGkPoh95/YUk7jg/cLDW+uXuK+bTlUDwPSfvuZLlmOjz6Gxk+BrX0Til/zILPfHaGbIfU/8ZmgWze44baXefXusWTSavziMlH+shw/Q+OTVbry//+QP8mC8h0m8ed+Jy77eOGyZQp1/Vfw7aLzCYMcwMR+Nud8fLniuov5n8ex49ux/H03YYQh2bTn2+GfYWPryM8H3Lly+VLCn+davsqW7wzWFZ9EqgbMdvLD79xOFvUqwPlZg5h06FnKuyo5GB/jGNZ/xXn/xc8HVQz+5zyXvS5wcnZLrCRQ2vVh5ZEzXDwxkybmNZmw9xwuh3+jV+pfdNaRf2XNUWw+eIgDM1pgWWEAqw8c4uCiriT/tFucB1uPF2bKLhcuXdjBaMuDTJl/khQ3JHQcXzcllQb9ybGzJ5nX0pwqo7bgfGofP7YxdBIzp0nkq/kVi3adxdvbG+9jc6nqs5DfToaluGOR0fkhyoW1qx7RepUzPh5n2DW9Gj7HvdIuo9QZPyUVe/Wn3o2d7Env1qMR58fg8pNVmmAOzxzLhthO/HrwIn6X3Tm3YwED61hrXwRmSFmiCz/Nrovb3P9xMkTDm5vrmbFJYvgvo6mdPV9eJwgfhGQ3ZqMMoDq7MHVa+iRruq3cR0eXPoza9yLtLVNBMIqSSqN3sKHqFrp9fzTblhn9Z5jWYOLuZRRe3p0ZLh/Xb3gIgiAIgiDkFoZMAmiRyNdgBF9XvsD2U2IAJOQENXe3LGB/8WF82zi3zELmFirK9pmI44OlLHcVAyBBEARBEISsMvhOkLLMANZuGEWN+Pvs/XkKSy+E6n54VBAEQRAEQRAEIRdK/nY4fdSB2xjeZlvqlwVBEARBEARBED4qmVwOJwiCIAiCIAiC8HETgyBBEARBEARBED4pYhAkCIIgCIIgCMInRQyCBEEQBEEQBEH4pIhBkCAIgiAIgiAInxQxCBIEQRAEQRAE4ZMiBkGCIAiCIAiCIHxSxCBIEARBEARBEIRPihgECYIgCIIgCILwSRGDIEEQBEEQBEEQPiliECQIgiAIgiAIwidFDIIEQRAEQRAEQfikiEGQIAiCIAiCIAifFDEIEgRBEARBEAThkyIGQYIgCIIgCIIgfFLEIEgQBEEQBEEQhE+KGAQJgiAIgiAIgvBJEYMgQRAEQRAEQRA+KWIQJAiCIAiCIAjCJ0UMggRBEARBEARB+KSIQZAgCIIgCIIgCJ8UMQgSBEEQBEEQBOGT8vENgiRrOi4+y/llnSkspU4U/rOUlRix6QznXZy56OnLjW2DKfXxlV5BEITMM7Hn53OHmFBdmTpFyFUk8tYcxLJ9Lvj4+uDncZgfGpul3kgQhFwi+TJSKtKHTZc3MaDY+ytLE/u5XDg7g4aq5Jc+PDmae+cPc9D1DpFy6sT/LlPH37h68yoHRldACSBZ8cUyL/69foDxlbU6RlVNphy7hu+qLlhrDRL/P86vVLA+I5cfwM3Hj6vux9gwtS22WTm2WS2+232Qec3ykZwF9V3WD2lHi9YOdPn1EnHa2/9H6I+fErv+f3FyWWdK5MgAMA+lHcaxco8Tl/2u4Od2hoOrR1LPAlAUpd9GP+7cusm/N69x3cuJ/X98T9tSJikPkUH5yw7642MsHflPklP5k2TULWOJWhhB2D9hhG2MIHLoOzTa+Sv2jpiZrwnfEk7Y+tdE9ot7n27I/kbLOD5SkT5s8rvJnZs3uOXrhtOu5UzuVAnLrMTItCrf7vHl5p6RlNdq2pTFW/L9qgNc9LqMn8cp/pnfm+p5s/IGWaesNp5DO1N+rmyjyEclx29Yut+Na7tz6D0ypKTS4NUcd7qA77Ub3PJ15/yp/cx1sHrfBn8Ecur8KGtO5NT1m9y5lervykq65NXaUCpMp+/GUeHydNo1qEfdll+x3OeN1gb/UVr9w52b17nle5HT235hcN38SBjWPkgWlek5dyOn3Hy4ccWTiyd2sKRX+YTrndxOsqRSp+EMGDmSASNH0P/rQXTt0poqRfMkpFtUo+3QTlTWaq8Uts35sp89RbX7ckUR6vYeTp/2FRFD5/8fOXIplbPecu/oCpYeuMsn0LRokXkXHIp106YJF8Bm9WlRJ5LnIZoUW6mqtaOVfI+nNdvRouD/Y/cl5cNh2mL6qrczzKExzYbsRdV7IYv722WyEVNSvv80er3YyEq313wy41yD4qfm4e7fOWk3gYkOBbL54kTCuvVsNs5vxovN4/mimT3Nuo5k3oZz3I9N2uYtTlMbUqVGXRp2HMceTRcWTu+YYjCQY+XPoPgYw5D852D+ANlcwuSfvBQYXJACM82R6sUQ3SKxfivVxE6KRf2vBfmGFqDgdHOUNaOJ6qw2bH+jGRCf+Ev87FCbms16MH7TY+pO38DKvpk9PyoqDpzO57I/YdqVX8pPx+m/0PHVKnq3aEC9z6fiZjeRRV9XyeTxjWNaslTKi5Zso6TSyNWsHliUWxeuE5k6GQAZOccaRDV3N39DR4f2/Ogay79rB9K6fQ/mOkV+VG1wTp0f9fVldKxTi2o1k/5q03yGM6HXL+EXo7WhwpoiNmruXLrCKzXI76KJ+S/O2KUrDq/5bahavRa1W/blR8+SjF0yjkaJ4wDd7YOSqsMWMrPWPRYPbEvDZh3pO2E5u3ye8b6Fy+3UBLttZ/u69ezYdgCvZ1bUcmhAsUw0UAqbstgSRnThspQQo6D/F4Y3Fyb2/Oy8jZnDZvP3jt0cPn6SI6vH0sxG6xDKIjQd9Ss7T7lx9doVLjv9w+y2hZPfRFWsBeOW7+WcuwferkfYOKMLFRNnWU0df+Xs+oWsOOCC16nf+W7sUg66XMBl5ZcJy56kAnSYfwSXCx74XbvOtVVdyZf0vpD4+f7m+96T+XPrP+w/egan3QvoVfF9ScpTrjNzt53hkrc75w+uYMzIXzi7NdWyKoUtX62/gPMc+1w2Epfg0RWuFWtGs8IK8tRpTr3HV7ieooFVUb1da2TnZWy+XpP2LQpm/kI5q/k3a0iHZkH8s/wA/4ZrKN2uA3ahoZT5vB12mWgEUNWkV8/inN99mtBM9r4Zl698dF3lyfoeqeOhpOaEQ5yYXBuDJ8yzGh99DI1f3G32HXxKyz6OFDG89uqnLEPPbxx5sW4qC47eJDgqlqjQAK5cuktE6vMgq4l9eYujZ2+hLFoM6+TPYUD5y2r8DI1PVhmU/xzMnyyhOmlGnmtKpDiQnplgeh80RRPfvHgccQVV5DmiQqEGXppgvsMUTYt3xCsN2N9YBsUHQEYdE8zNE7/x3SJfqo8YQorVQHrio7Trw8zuQaz9506qFBMsLBQ8vOLD87cy6vBbeN+OwNTcLO05yCod/Zeyxmi2O7nhvqQ9BaqN5ZDPFa77Xebw+OoJF3GqBkzcfYqLnj7cvPATX3b4gR2nzuHudoqfW5i/f48M86/m7vrBOA6cy5YrrzLsmIu0nMKmY65c8rrAsVVjaFIo1ZYZHv/jJ+X/jOFLd3PO0xtfbzdc9i6mZ9nES2h95wcJ6yajWbnrFF6XLnPFy5l9SwZR1ypV6ckwfhrUavX7P0rTrW9NLu84zGMNKIp1ZcmhU5x33cKICnn5fKkX1/2ucNV5FvbaN8szOr6h5ccIklV1+s7dxOmLnlz2cGLv4gHUSsy/vusvyaohMw+f46/epZJXojSecZgLa3pSOk37KxMX+QSvQ87457ejdIrbwRm1D0qK2RYj7PJpXB+EERP9iif/enLpgdYM1EdE8y6S4LuBROTJR17T1KkZUWBd1g450Jt/Q4pQunT2nHdBt4za2vSZ1KJdJU+mD+hNly968VOAA4tmd8RGAlBi1+9Xlvcy4ci0HjSu14S2wxaz7/orNADKSny97BdaP11K75ZNaNxpMk6237N6ajPySQAKbKpKHBnSm98etuDr+j5822kWnjU60rywAuRwTs7qTOvmzei+4mb6swMmDejd4gELhvajR6euTPOpxbQJ7RNmqpWVGbZ4BjV8ZtChiT1tRuzEytGRYql7UDmKh36eeNx6keuWXEncxv1yaZo3LkSN5g0JPu9NhIn2NHx1HFvLnDvjifOZm9Rq1yLzS3aymH9l8bLYxd/nzjM1JhUHMbv7C1ZM3cxd2wqUSdNIZkxZ3p7GBa5w3ieTjZ/O8hVNYEAoJcrYolAUp8OUJSzsXwMTzLErU5hH/g/TL0/pyWJ89DE8fhqeebjztIZ9ymVaRpKsalO/3EPOn39iQCwkTAtWobNjFZ66e/E4aQdDyl8W42d4fLLGoPznYP5Skyu85W0VBaY+iU20AmSNhKQ14JCiJKRCGjTp5D/N/kYyKD4pyLy86Mr1/LWpqz1K1RUfRUm+/KEfUeuXciZMkbJzkl9yYt0OrAbOZWijClTvNIXx1Tz4bes14rW3yzLd/Zf6xhr6OzSl2UxXYm//Qdd6dalZpz5dkvqi+Ess7d2e5h1/wTNvRyb2iWJJ7zbYt+jCfHettkxX/tXxCcdSKNO/u6UsR7vGYfzerw0NWw7gr7c9+G325xRKcY2p4/gfNQUlu03gG+tjDG3ViM8ataL7pD9xfZJQGvWeH2Qinl/j+JLhtG1Sn/odJuBU9BvmDKyYMtYGxs+8fj96FzjFdpdwZEATdIjJXdvTouUg/rofyfEJjahZpy6128zHXftAGR3f0PKTVYoidPp5FWOKOjOlczMatP6a7arBLJ/clITVfLqvv+RIb5bO2EOBsfMZXMGUgi0m81ObO/xv9n4epWkQFOSxroDDgI6Uf+TL1TSzaJC2fYjD78w5FB0nML17bQobPHDIjSSUZgWxrVGB/K+DePk2dXoGFDaUtpN5GviUJwEhFCpb6j83kZEbGTwBDoAcjtsRV0LUAJH4HnLi5eY21Dc/ysk3xWnVvjr3tnVjh18wGiA20I/wxF2VFdrxRZnLrB/hzos4IO4OO9YcZcDarjRedJFzQPz9q9yIDKf88wgevfQl6I2Sl5FWFMwvQXDigXSRI7m47zhP4gFiuOF3F0VjW4ooIKJcaxxL+7Jp2GVeqoEQD9bvuEyf7qmPEY77qim4p3o5V5DectnFj2Ed+/O53WvOTw/Ctt/7ZFX1trSRzzHtdhxhT89wbaIjrawPse9lYiOkqsukgxcYl7RCRmVO3si9yfsDWc+/uQXmb2OIVZal38y+RK0bwsEHdXAwMcci3R49fSZ25Sj5/D4PMrnWUXf5csPb/xGFW5XCwqYKPTvUp3LMM6rtPUZZ21c8CIgyfMlHVuOjTybip37kT6DUlrIllHA3TQ+UJZJVfqyIIPy1ruVTeXBY7M2dxYAcR8ilv5m66RpJbbze8gdZj18m4pMVhuQ/R/OXKG5UBFH2MjIKTLdbYnY38Qr3uQqTN9G8ba1GdUaJlD+eN1++Q6NUon0rJMP9jWRIfFKToyOIiLfA0kLrM2QYHwVFv5jKMMUWhh0NRtM8RbYAmcibR9h5ZwVTflzCwELm3Fg5Ba+g7Cn/KHT3X5kTg+vG9fhEaIC3yfUD0JF/LZKU/t0tOQLnTZu5GqEGHnJ443FG/dWG+ubHOJW0JMuQ43+UZF4/ekRkaXs6NjnPFtcAwh8Gpt5IJ3WgOycCE/8Ju87hs/cZWLUESu6+H9gbEj/JhvaD2hO2bzCZftzHkOPrKj9ZpCjsQK9mwWzrvZ2rYQnl58iW03yzvB11TC7ijf7rr9gb65j+d302/fonbfIVw21Of06lWI5vQqNZztyeKRMfG0qA7wnmTtrAHXXqupwgZfsg8+rsHPpG9mH06MUc/z6Mc9v+YNnmizx9l3rP3EpJ0ab96d8UNHExvA7yx9vpKmFJIVIUo+6XA6mV1F0oTDB5dztp54SlcPJD3EI1vIkM4GXDcpQ0v4t/NoyBhYy9HwTJMjIgaZdWSUJKfD1hmxiiYt4XejkqgkhVfgrmleBtAWwKaAh69iLhzk8qigLW5I8MIlh7UuxFECEm1SmUeEtWjokmWgaNRkN0ZDRghUZWoEyvBqVHfs2riPfzghpZBoUCCVBY21AgNoSQmKTcyESGhPJRlS8Jor1duTXnZ74M2UDfh2oGJMdGRQ1HB+xsrVnj0g0ZJZb5TVG2tGb//pcJm8TfYP2Iyex/kXCGVPUnsmtC0v5Gio0h1rwoVXrPYIi8iaH7nqCxbopZXDQxBl+nSOSxtESZWA4yQ3f5gqjAQF6VKEOVxpUo472V/eXaYl/xJmWKPsH9ocEfMOdkJn7qGGLemWFhbmjF0E+OiiSKfOTPpyBxliMdb3Ga2pQxR2MwsbKl8YhFLF0Xz9d9V3MrXnf5y+TpTCsz8ckC/fnP4fwlUm23Iv9+kIvF87ZfFJH5Lcm3RwVxKsyXmhEzJJqIXjKEqjBzM0FhBwqtWyEZ7m8k/fFJS7IqSEFVBHfSnQlOSSrUlinf5GfH2L08UUOaiWCFLb2WrqeP/wy6dPbitU1jRi1cysZCk/hq+VXjnw+VdPdfmaJ+RsBjXfcRskgTTkjI++PKr0J4qayOtaUEyf2aDpbtWXJsDs0TgxsfuJXhA9dw27DTqX9/felGkXntMo9+sb0ZOWo1J6c+5sSGFfyx7zrhBp0wify1ejNuVBca2FqARkaV3xaTS5lvQ5Xlv2Rg7atsmxNg4F3RTMqo/OiLr450yaYIhUwrMmKzC4MTN0dSYaZwJ1/i9vqvv+K4v2cj57/+g06Bi5nmEZGq3YvDa357hvyTMImgT9r2IY4gr23M9drB8qod+fbHhWy1/YGucy98JF+CpSbYbQdnb0an3x9oQrh5wgn/xIsbRfFGtG+YlKjAulwZrPKZ07p/ZUBClUeJVNroqUQWAAAcMElEQVQc/zsf1VXqRye5d5SjXxOptsbGWoLnCa+ZFSyIeeTthDXfEqAoQBEbU0hcgCAVKoKNOpxXUTLIEbyKUFCncCEUPE9TCTSvQgjLV41iFhK8TiwERYtTJP4Vr5JKuJz4B8hoDb4yI4OdNOFhvDavio2FRNIi9jz58pL0zN5HI9Kdg4d8UD87w321zfvXVTVwbAU7x3flz9tqQMK682K2Orak0IH9JAyD4ngdEkxQcMLZMQmLTXOeskr9/D4BylFMGvkvq4bsJFAN5pWrUfaxPwEG9xQy72Ji0VhYoD15bAh95Uv90J/HNg1xbFKF224/cyG8O2M71MI0IoCAXNDCZip+qrzkNY3hcWZHijrIr29w7XFZmtkXZ53/Ez3lQiYu8jFue04T2K8pNfNL3IrQXf4y+3xXapmKTxbozb+e+mVs/pJIUQqkKCDEFPNT7wj/PB71PhVKDUiBebCc+77FUvd8zZu75ii18q9rf2PojU8aCoq0cqBmqC+rktdLZsykniNt7RrQ+eg1ftB6/bjf56zq2ZOVIY1pXy+QvXO8E+7kB3uydo0rPed1oNqqq/gauyZOT/+VQkZ3apJp0OjPcuYpClKksAkkXnpL1oUpFB+W0P8aIsaV+X16JC+xkeOjE2JpKH3760s32jueeW5jrucOllfvzU8r1zA38nMmnEz1BTrpnR8ze6YsG4rJr8Ppe/IJsbKCUoM3s7da6g31Madx/y+xPjuXk9p3gLNVBuVHX3x1pMuhL3j51pet3UewM53GyhT0X39JVjQcN5Fmd/dxushQZnZ1YdyBp1kcCOpqH9SE3T7Ckg0t6T6+PmUUF7ieepOPkpp3MdHEJA2C3mgNdBWFKV0a7p7ew43EcpWnQhvalS2N+Z07H9dk/Ufm/bLrN364Xy9Kl6+7UdXaDIuiDfm6X0NeenhoXWRY0LR3LypbSkhmpfhiYAfyebrgEwtonnHB5R7VBn5P96rWmChMyFu0ItXtEr5iU/3gFIfv1mXoN/YUNQGFVWX6juqEqdNRPIyextNP7X8Op2f1GTisATYqUBaozaA+jdMOgiRrmo9fwvwvy6W/LvtDk8Nx/nUkE7Zr3cIHVDXa4WDixkmvYEJDQwkNDeH+KSfu1nGkVYpF43pkNf+xlzhyNgLpsSc+r0ywKtWcsWPbEHzWJZ01wxl79yiAoGLlKZfmxOimr3zJrwMJfFuNJtWe4u0Txk3va5Ru0RSbx/5k6kZQVuOjTybipyxdgTLqQB48y8wH10N9nz0b3Sn7zSKmdapFqULWFC5VlSYNyqY7IFValqRJz/ZUCLnD3dey4eUvq/HLRHyyRE/+czx/SjVxDeNRF5KRTWTk4nG8aROP9FCJIumKXAlIQB4N8W1iiGovYXbQJOGCz5D9jaEnPu9JmFiVpG7XaayYWBmvP7dyRXtSO4P4vDs9mTrVq1O5WsJfzTGHeHVjOR3rdGfFHTVy9GMeRZSnRZtyWCiAPCVo2bERFg/9eZYd+dPTfyV59zKUKNt6NLLNAygwNTNNe8GtSwb5N4iUj9aD+lPDSgF5bPli0Ofk83Tmsnb/qev48hvCg4MJSvwLfhmVueep9O2vL90oCkrUakIVGzMUqHn99AFB0SrMzFLmMsPzY1KQgpbRBD8N542sxLJMW4Z1q5Y2RrriB0iFOzCwfST7d3hl7cJUz/F10hdfHemaEGf2eZRj8MQuVLM2ARTksS5Hw7ql014DpUuiUOvpLGh3j19m/MysGfso/P3/GFQh1U8k6JVB+6AoTO2WjalSogDmSgWm1tXp2eUz4v3v8jQ76ncupyhcFlvlEx49iyY2JobYmBgiHgQSXrQcJbPx2V8hrfeDIE0Q++bN5kzBYWx29ubS0V9o+nA5E1dfff8AnzqQs5eLMHWXC97nd/CN1WGmzD+eOAuq5v6myUw5bs6AP0/i6+uB0/YF9K+ZN6ERUgewZfJ0nEpMYJerB14nltHhxSrG/HI+aeJeN1Utxmw8jNO58+wfVx3zFnNxvujE6b3TaWnIl2jE32TdlEXcrreAEx6eXNg1gUIPbqZtyBSW2NVuRKNKNplvpD4YE2q2a4WZhwvXtNbPaoIv4BpQhw6tbAzvqLOc/ygu/jaRZU9bsuK0B+57Z1Hr+gKmbXmQqZkitb8nnlH1aP5ZqkcCVbX5dutRXFwv4jTHHvM6Ezh80ZmzB2bQygL95Uv9kPtPbCmn8cH7hYY3Vy9x37YcqocBab/9TJcsx0cfQ+OnwNa+CcWveSRMPmQbDUFHZjB00Q3Kj1jJEZdzOO1dycS2dlqdZOIzQbducMNtL/Pq3WPJpNX4xWWi/GU5fobGJ6t05f//IX8SqO1jifo1grDt4YT/FEv8U3Pybk4c5ADUiiF8azhh6yOJtgezRXkxe5SJ/Y2iKz6JVA2Y7eSH37mdLOpVgPOzBjHp0LOUd1WyGp+33iyb/DeRXVbj7OHBJadNjLI8zHezDhCULRdJevqvRHHef/HzQRWD/znPZa8LnJzdEisJlHZ9WHnkDBdPzKSJeU0m7D2Hy+Hf6JX6F5115F9ZcxSbDx7iwIwWWFYYwOoDhzi4qCvJP+0W58HW44WZssuFSxd2MNryIFPmnyTFDQkdx9dNSaVBf3Ls7EnmtTSnyqgtOJ/ax49tcsvvBEnkq/kVi3adxdvbG+9jc6nqs5DfToaluGOR0fkhyoW1qx7RepUzPh5n2DW9Gj7HvUjzuInO+Cmp2Ks/9W7sZM+9LLY6GRzf4PKTVZpgDs8cy4bYTvx68CJ+l905t2MBA+tYa10EZkxZogs/za6L29z/cTJEw5ub65mxSWL4L6Opbcj1F+hpH0yxbT2G37cfx8PHl0vHf6fru11MmH+SV5npnz9KCgqVtUP19CGhWsVKjn7M04iilC4tRkE5SbIbs1EGUJ1dmDotJRN7fj47m6jvO7PoSvbN73xIVp3/wKXbeT4fvpuQ/3xF+1goqTR6BxuqbqHb90ezbZnRf4ZpDSbuXkbh5d2Z4fJx/YaHIAiCIAhCbmHIJEAKuWNWKAsURanVpDrFzBOyrLSuy+A+dXl02e8TmGn4mKi5u2UB+4sP49vGuWUWMrdQUbbPRBwfLGW5qxgACYIgCIIgZJXxXxv0sZBMsWs/hV/ml6FAHhNMNGHcOr2IqRtTPlsj5AIxfiztnfq7ywWIJ2Dr13TYmvp1QRAEQRAEITMMXw4nCIIgCIIgCILwH5Dp5XCCIAiCIAiCIAgfMzEIEgRBEARBEAThkyIGQYIgCIIgCIIgfFLEIEgQBEEQBEEQhE9K9g+CJDPsZ+1mQdv8mIjvN05LxEc3ER/jiPjlLBHfnPWpx/dTz/+HJuIvCJ+UtIMgVU2mHLuG76ouWGeqEZCwbjyWv0+eZUW3CrSfdxzPC7sYX9c09YZZJhWsz8jlB3Dz8eOq+zE2TG2LbdKXfEtWVO06mVW7z3DpylWueZxgy4wOlDZJcYgsUxT5ghUuh5hS1yzpFYp0Xs75A99TO+klnT5wfAAU+ajk+A1L97txbfdIyqf9Sewss2z6I86ui2mf/32hUZYbxi73TQwy6FevP3x8lMVb8v2qA1z0uoyfxyn+md+b6nkzVQl0kiwq03PuRk65+XDjiicXT+xgSa/yCb8crihKv41+3Ll1kzs3r3PL9yKnt/3C4Lr5DfytJP3x05d/Y8uHaWlHpq07irv3JS6fP8ja79tQMpvqn1SkD5v8bnLn5g1u+brhtGs5kztVwjIpOPril5x+g3+v++HreoiNc76kavIB9DE+vjmdbozMxPffm9e47uXE/j++p22pxBP8EcTXKPrKFwB5KO0wjpV7nLjsdwU/tzMcXD2Segb94HvO519nugH9p876bcD+RtGOv9bftVVdyQeAkgqj9nBl5RcYFO409MQ/M/kzrcq3e3y5uSfzbahRdLXf+uqvXkoqDV7NcacL+F67wS1fd86f2s9ch5z5LT+pSE/Wn1/Nl4Vz4uiC8F6aq1NVtXa0ku/xtGY7WhTMRAFUVmXgD72IXtmLMXv+5ciU1jTp8h3/3H6XesuskfLhMG0xfdXbGebQmGZD9qLqvZDF/e0SLiIBc8sYLi4biWPj+tj3W0Vwy7nM6lI4Wyqp5sUJFq1+TudJ/SivBMnKnnFjy3N64Xquvkm9dTo+eHyUVBq5mtUDi3LrwnUiU+1urGiPv1h/rwlf9yyT+H6W2A/pS4Gjq9jzWJNq63R86PhI+ek4/Rc6vlpF7xYNqPf5VNzsJrLo6yrJ5cs4SqoOW8jMWvdYPLAtDZt1pO+E5ezyeab1O1VxeM1vQ9Xqtajdsi8/epZk7JJxNMqjdZiM6IufvvwbWz5U1Ri9bBY1fOfQ2b4h9r2W4G//E8uGVsym+AHxl/jZoTY1m/Vg/KbH1J2+gZV939d//fGLw2u+A9VqN6LN0JUEfjaDX4dXNezzGRvfnE7PDnrj+xanqQ2pUqMuDTuOY4+mCwund9SaLMvF8c0WusqXhHXr2Wyc34wXm8fzRTN7mnUdybwN57gfm/o46cjp/OtLR0//aUD91rl/tojD+3/tqFGzFtUS/+qOO8zr1Jtlhb74Y2j+VFQcOJ3PZX/C/l9/zdqQ9ltf/dVFzd3N39DRoT0/usby79qBtG7fg7lOOfGj3UpKf9GNKl77OROa/UcXBG2pBkEqqrdrjey8jM3Xa9K+RcFMNGAKVErQaJIueGXevQoi1JABgiHMGtKhWRD/LD/Av+EaSrfrgF1oKGU+b4edEpAj8f3nT3a4BxD2No6ogLOcuQ4lbAunzmQWaXi6bxF/x3/F5C521Bk2kcaXfmWld3TqDTPwgeODmrvrB+M4cC5brrzKppho0TzlwKrDWPUdgr0lKGy7MaL5Pdb97YMh1wAfPj4mWFgoeHjFh+dvZdTht/C+HYGpuVkm6oAuSorZFiPs8mlcH4QRE/2KJ/96culBetGRiYt8gtchZ/zz21HaoNl0PfHTm3/95UOyqk7fuZs4fdGTyx5O7F08gFpWCZ9NadeMlkXc2LjJl5fxMu+CL7Li99PYdO5Etey7CgVk1DHB3DzxG98t8qX6iCE0TnMnVk/8NG8Jf3COIx6hlChd0sBfjDYyvjmdnm0MiK+sJvblLY6evYWyaDGsUxeW3BjfbJVO+VKWoec3jrxYN5UFR28SHBVLVGgAVy7dJcKg67gczr++dD39p976rWf/7CLLatRqrT+NQcE1gJ74G5g/pV0fZnYPYu0/d7Re/f+gv/1Opq/+fmjKSnTrUhin/Rd4rXV6dfU/po6/cnb9QlYccMHr1O98N3YpB10u4LLyS0opAPOOrLy8lzEVkxoDCesv13Jl2+CEdOGTlfL0q6rj2Frm3BlPnM/cpFa7FsmzBFKhbvzh6oaXe8o/9wMTqKsC1LfY9ttxik8/wIpudlRu2pJq1obeatVPWbwsdvH3ufNMjUnFQczu/oIVUzdz17YCZdJ0ckoK1PiKPp89w9n1gdZMu5HUAfzzy16sx23g9y8e8Puy88kd3EcRH3V8QiwUymycHX3vjd8m1t5uxrBuFWg46CvyH1zFkeCETiXXx0d+yYl1O7AaOJehjSpQvdMUxlfz4Let14hPfbAsicPvzDkUHScwvXttCutc5acgj3UFHAZ0pPwjX65GyEbHT2/+QXf5UBSh08+rGFPUmSmdm9Gg9ddsVw1m+eSm5AVQKlGo44nXuukX9zqCmGKlsm1JXEoyLy+6cj1/beqmucpNG7+UyaYUKN+W7s0t8PW8SRzGl0998c3p9OynK74SpgWr0NmxCk/dvXicuoHNhfHNXmnLl2RVm/rlHnL+/JN0+5sPnX996Sml039mqn6ns/8HZmz8U8ogf4qSfPlDP6LWL+VMmCLFxZXe988OutrvFPTU3w8sT70edFKeZN8lrRlQff0PCmyqShwZ0pvfHrbg6/o+fNtpFp41OtK8sBjlCBlLUf1U1dvSRj7HtNtxhD09w7WJjrSyPsS+lzJy2Clm9/Yg9cocWR3Dq3gADcEui+jr+Q89FvzNqPoj+LPbOFznDGeeUwgGLIjSzdwC87cxxCrL0m9mX6LWDeHggzo4mJhjkVzjTWk17wSLOhQgL0858ftU1vhl162EBHH3T3ImeDRfBx7DVetW7ccRn0SSlE13N1KRQzj25z4Gr1zBT/JNlva5RdJigtwfH5nIm0fYeWcFU35cwsBC5txYOQWvoOzqIWRenZ1D38g+jB69mOPfh3Fu2x8s23yRp8krLkxoNMuZ2zNl4mNDCfA9wdxJG7ijBoyMn/78a0mnfCgKO9CrWTDbem/napgaeMiRLaf5Znk76phc5GKgF17RS+jboxK+u+/yzrouA0Z3opTyFsrUB8smcnQEEfEWWFokvYGO+Cm00meBHP+QE/8bzaS9zxLKVk7HN6fTc0Da+ObBYbE3dxYDchwhl/5m6qZrvE3eIxfHN1tkXL4UVvmxIoLw1+m3VMa2f3rzZ2w6oKv/VBtUvzPeP3uoqDfxIB5jk2Icz80/BzB822O9/YOx8U84vq78KSj6xVSGKbYw7GgwmuakaEP1v382Sqf9TqCv/uYGeWnWw4Gww8O4pRUXff2PNxB//yo3IsMp/zyCRy99CXqj5GWkFQXzS2TPmknhv0hrEKSihqMDdrbWrHHphowSy/ymKFtas3//SyjYnp93T6FBqskRdfBevu31O1cSC6wc+5zAoFDc9wxlbdm1HO/XmpXOuzF6aWdsDLHmRanSewZD5E0M3fcEjXVTzOKiiUm+Tn2Hx9Kv6LbWnAKlP6PXhNVsLTSOr1bdSL4YN46Cwh2+4yvFRW7X/YbhNdxZfiOhCZE+ivjkvPg7/7D13hBG3t/CWa1F0bk+Pgpbei1dTx//GXTp7MVrm8aMWriUjYUm8dXyq2RPVx5HkNc25nrtYHnVjnz740K22v5A17kXEtdwx+E1vz1D/glO06kbG78wffnXQ7IpQiHTiozY7MLg5BdVmCncyWcKRF9hxYRVTP9hKcfHWPA2yIc9x915VukNL+K0DpSNJKuCFFRFcCf5Tk/G8UuQmL7XhnE711BTE0Zk0p3cnI5vTqfngLTxfYvT1KaMORqDiZUtjUcsYum6eL7uu5pbGsjV8c0WGZcvOSqSKPKRP58CQtK+4QfPv750QGf/+c6Q+q1j/6RNjBLP9fUjmHAwhOQaHxma5lykx9j4J/Q/GecvrlBbpnyTnx1j9/JEDalv9Bv0/pbtWXJsDs0Td44P3MrwgWu4nXR+9KXrpaP+GvL++ujbX186IBVyoGcTfw78/jDFHUS9/Q8gx0QTLScsaYyOjAas0MiKDCfhJCmDBOGT8n4QpKqBYyvYOb4rf95WAxLWnRez1bElhQ7sJ1TfTIaUj8oNKxL/wB9TSUEem2q0blSKiCfPiDb2AhZQP79PgHIUk0b+y6ohOwlUg3nlapR97E+AVm15G/GC5xHw/Nkjlu9sx7n+zbBbc4N7hlZkHaSCrZg8vgzHJvdjS6n/sWv6AI4P+Zt78QbM9OSS+OQ4OYaIyDiiXkcld1SQ++MjFWhM+3qB7J3jzUs1EOzJ2jWu9JzXgWqrruKbrbN1asJuH2HJhpZ0H1+fMooLXNeTR2Pjpy//+sihL3j51pet3UewM90RqUzMnX3MGbIv8X8VlcfsYPDVtdzO1tglUVCklQM1Q31Zldn1HO9usXH5OQ79OJbWZ2biFG7AnW4j45vT6dlPV3xl4iIf47bnNIH9mlIzv8StMK3kXBjfnCa/vsG1x2VpZl+cdf5P0lyYf+j860tPknH/aVj9znj/99sY411kCMHBaQeh+hgb/yQZ5e9hPUfa2jWg89Fr/PB+c477fc6qnj1ZcU/P+wPEuDK/Tw+SHsGT46MT+qIk+tINlk79fSkbf3x9++tLR0HJz7tT03c3P7xIeYb19T+mAHLiHyAjp7j+QJaRUaJMXhmnwNrGOoM7ZsKnJHkQpKrRDgcTN2Z7BROaOG3z6pQTd0c50qrQAfaGxhIWnN5D3ImkPJRy+J4piypQtJAlvJpDkbOr+XaZW8oH4yVrmo+bQYfna5mz516K0b7O9NhLHDkbgWMlT3xemWBVqgmjx7Yh+MxgHqkBVRkat7Im9MYDnoW9wbR4Awb3qEPknV08T1XRijfuSYfSDzmx14sgQ1tTyQr7cZP5zON/9Ljxhshbv/NX983M7HOGYdsfodbk8vgYLIvx0SeXx0eOfsyjiPK0aFOOQ7v9iTEpQcuOjbB4uIlnKWKQxfgoClO7eXne3vuXh8GvUeevSs8unxHv78JTDehtjY2Nn57866MJcWafxwhGT+zCtSXHufVKTR7rMtS2i+fqlUcJSyqUKlSaeDRmRan1+bfM6/uGjcNdiUpxpCzGL5mEiVVJarQZxPSJlfFa/BNX4khc7mYomdcXVrP6/m4mDq+N+xI/YnM6vjmdnuz/J75Ky5I07tmeCiE+3NV+ehnIlfFNZmx8MqC+z56N7vSdvohpYYvY5vGENxZFqVDsDVcvBxDzofOvL92Q/lNX/TZkfyDH4p9EZY6VlVXyhY0cF0vkm3jj2089+Xt3ejJ1qk9OPpxpqwW4jglkwFfr8FcD6Hl/APkN4cE61hzoS8+EdOuvscfXt7++dGUFunazxXX5OcJTNSn6+p/ULVAa8c95GlqCxi3K89fdu6iLtGBAp4qowlNvKHxqEtsKBTXbNcfM439c07pvrQm+gGvAWDq0smHf3ve3oNOlCeHsgoGcXaCi3rQtdL4wmLnu6ayDUVhiV7sRjaz2YUI6F7EZpkdx8beJLJszixWnh1NAHYzf4QVM25L4YKJkQfkOk/jppyrY5lPx9tVDrjqv4Nul51NehEl5aThwGuMV8zmyRztBN/O6o/mh9R1W9HZPWOKhfsKeX3fSbc00ujmPY99zPa35h44PoKw5ig0/d8TGqiiWBRuz+sAXxNzewOgfDr3vjLIYH6N96Pi89WbZ5L+ZOXU1zhOsUMZFEui5l+9mHUjZUWc5PqbYth7D2LkVKF7QAunNC+6672LCLyd5JaN/EKSP3vjpyT/6ykcwh2eOxfT7Cfx6cAYlLWRiXwZyeedCrl95BICJ/WxclnfGKv41j686se3bsey6m+ocZjl+gKoBs538+OFNOE9vu3No1iD+ckl85iSzNM848PsOvto4ma/2D2bDgzQlKSWj45vT6YlyNL5JzxTIaN5F8vTGGZZMWo1fOoOk3BffRMbERycNQUdmMFQaz9QRKzmyoCCK2BfcOTifkZcDiEm9eWo5nn896Qb0nzrrtwH7J2yXU/FPYNpyHue95iX//9ZlBs2+PaT/kRB98Tc0fx+QzvYb0Fl/9VJSadBKfh9Ug+JFzDFrugXnHkE4LxrCT87Z8zXZprW70dn8FD94plNb9PQ/eloXiL/GxoV7WDJjC+7D4wh76MbGXYd57ph6Q+FTI9mN2SgDqM4uTJ2WRQpKNOtBpYcHOJdmGUUuoKrHzOMrKLaiE+OPhmVL5c0cER/dRHyMI+KXs0R8c1YOxzfXxyeH8/+hifgLgpCLZNeXM2rR8OziXp6lfjmXUJSoRQ35FH84fagGWMRHNxEf44j45SwR35yVs/HN/fHJ2fx/aCL+giDkJjlwJ0gQBEEQBEEQBCH3+j+vzlYMrM1XUQAAAABJRU5ErkJggg==;" vertex="1" parent="1">
          <mxGeometry y="153" width="833" height="323" as="geometry" />
        </mxCell>
        <mxCell id="IL1taavYY2HPRo79wi6H-8" style="edgeStyle=orthogonalEdgeStyle;rounded=0;orthogonalLoop=1;jettySize=auto;html=1;exitX=0.5;exitY=1;exitDx=0;exitDy=0;entryX=1;entryY=0.5;entryDx=0;entryDy=0;fillColor=#f8cecc;strokeColor=#b85450;strokeWidth=3;" edge="1" parent="1" source="IL1taavYY2HPRo79wi6H-3" target="IL1taavYY2HPRo79wi6H-5">
          <mxGeometry relative="1" as="geometry" />
        </mxCell>
        <mxCell id="IL1taavYY2HPRo79wi6H-3" value="" style="rounded=1;whiteSpace=wrap;html=1;fillColor=none;strokeColor=#FF0000;strokeWidth=3;" vertex="1" parent="1">
          <mxGeometry y="456" width="730" height="20" as="geometry" />
        </mxCell>
        <mxCell id="IL1taavYY2HPRo79wi6H-5" value="Register readout was done in the background" style="rounded=1;whiteSpace=wrap;html=1;fillColor=#d80073;strokeColor=#A50040;fontColor=#ffffff;" vertex="1" parent="1">
          <mxGeometry x="40" y="490" width="260" height="25" as="geometry" />
        </mxCell>
        <mxCell id="IL1taavYY2HPRo79wi6H-9" value="" style="rounded=1;whiteSpace=wrap;html=1;fillColor=none;strokeColor=#7EA6E0;strokeWidth=3;" vertex="1" parent="1">
          <mxGeometry y="250" width="830" height="180" as="geometry" />
        </mxCell>
        <mxCell id="IL1taavYY2HPRo79wi6H-11" value="Trace of the user program" style="rounded=1;whiteSpace=wrap;html=1;fillColor=#dae8fc;strokeColor=#6c8ebf;" vertex="1" parent="1">
          <mxGeometry x="460" y="190" width="260" height="25" as="geometry" />
        </mxCell>
        <mxCell id="IL1taavYY2HPRo79wi6H-13" style="edgeStyle=orthogonalEdgeStyle;rounded=0;orthogonalLoop=1;jettySize=auto;html=1;exitX=0.75;exitY=1;exitDx=0;exitDy=0;entryX=0.789;entryY=0.001;entryDx=0;entryDy=0;entryPerimeter=0;fillColor=#dae8fc;strokeColor=#6c8ebf;strokeWidth=3;" edge="1" parent="1" source="IL1taavYY2HPRo79wi6H-11" target="IL1taavYY2HPRo79wi6H-9">
          <mxGeometry relative="1" as="geometry" />
        </mxCell>
      </root>
    </mxGraphModel>
  </diagram>
</mxfile>
